<?xml version="1.0" encoding="utf-8"?>
<!-- Generator: Adobe Illustrator 25.0.1, SVG Export Plug-In . SVG Version: 6.00 Build 0)  -->
<svg version="1.1" id="Layer_1" xmlns="http://www.w3.org/2000/svg" xmlns:xlink="http://www.w3.org/1999/xlink" x="0px" y="0px"
	 viewBox="0 0 4684.7 3132.9" style="enable-background:new 0 0 4684.7 3132.9;" xml:space="preserve">
<style type="text/css">
	.st0{clip-path:url(#SVGID_2_);}
	.st1{fill:url(#SVGID_3_);}
	.st2{fill:#CE0E2D;}
	.st3{clip-path:url(#SVGID_5_);}
	.st4{fill:#939598;}
	.st5{clip-path:url(#SVGID_7_);}
	.st6{fill:#FFFFFF;}
</style>
<g>
	<g>
		<g>
			<defs>
				<polygon id="SVGID_1_" points="182.5,1298.1 182.5,1395.3 4502.2,533.4 4502.2,436.2 				"/>
			</defs>
			<clipPath id="SVGID_2_">
				<use xlink:href="#SVGID_1_"  style="overflow:visible;"/>
			</clipPath>
			<g class="st0">
				
					<linearGradient id="SVGID_3_" gradientUnits="userSpaceOnUse" x1="8241.4844" y1="-5903.9741" x2="8255.4473" y2="-5903.9741" gradientTransform="matrix(334.343 -65.802 65.802 334.343 -2366849.5 2517607.75)">
					<stop  offset="0" style="stop-color:#77787B"/>
					<stop  offset="0.189" style="stop-color:#EBEBEC"/>
					<stop  offset="0.234" style="stop-color:#EBEBEC"/>
					<stop  offset="0.449" style="stop-color:#77787B"/>
					<stop  offset="0.659" style="stop-color:#EBEBEC"/>
					<stop  offset="0.714" style="stop-color:#EBEBEC"/>
					<stop  offset="1" style="stop-color:#77787B"/>
				</linearGradient>
				<polygon class="st1" points="0,472 4341.1,-379 4684.7,1359.6 343.5,2210.5 				"/>
			</g>
		</g>
		<polygon class="st2" points="4502.2,1883.2 182.5,2753.9 182.5,1398.8 4502.2,533.4 		"/>
		<g>
			<g>
				<defs>
					<rect id="SVGID_4_" x="696" y="635.9" width="3155.3" height="1593.1"/>
				</defs>
				<clipPath id="SVGID_5_">
					<use xlink:href="#SVGID_4_"  style="overflow:visible;"/>
				</clipPath>
				<g class="st3">
					<path class="st4" d="M994.8,1962.9l-20.1-130.3l-118,23.7l-41.2,142.6l-98,19.7l195.6-629.2l83.5-16.8l103.2,569.2
						L994.8,1962.9z M944.6,1616.8c-2.5-17-4.5-39.6-6-59.5l-1.5,0.3c-4.7,21.2-10.3,45.3-15.5,63.8l-34.7,127.5l72.8-14.6
						L944.6,1616.8z"/>
					<g>
						<path class="st4" d="M1275.2,1906.6l-148.6,29.8l38.3-497l134.1-26.9c68.9-13.8,123.4,22.8,117.1,105.3
							c-2.6,34.3-20.2,76.1-44.2,94c33.5,5.5,67.4,45.5,62.2,112.5C1426.7,1820.2,1357.9,1890,1275.2,1906.6z M1278,1684.4
							l-38.3,7.7l-11.2,144.9l38.3-7.7c29.1-5.8,60.8-35.2,64.5-83.5S1307.1,1678.6,1278,1684.4z M1279.8,1495.4l-25.3,5.1
							l-8.7,112.2l25.3-5.1c21.4-4.3,45-25.9,47.9-64.1C1322,1504.6,1301.2,1491.1,1279.8,1495.4L1279.8,1495.4z"/>
						<path class="st4" d="M1572.7,1853.1c-42.9,8.6-83.2,3.7-105-7.3l-1.4-99.4c27.4,16,65.2,24.5,102,17.1
							c35.2-7.1,58.2-31.6,60.5-61.2s-9.1-48.8-46.3-65.1c-67.1-29.5-98-68.5-92.9-134.7c6-77.9,62.6-146.8,149.2-164.1
							c43.7-8.8,80.2-3.1,95.5,3.8l-24.4,91.6c-13.8-6.4-42.1-11.5-66.6-6.6c-32.9,6.6-49.6,26.8-51.5,51.8
							c-1.9,24.1,11.2,40.7,41.8,54.5c67.8,30.9,106.3,69.2,100.5,143.9C1727.1,1767.6,1670.7,1833.4,1572.7,1853.1z"/>
						<path class="st4" d="M1957,1779c-116.4,23.4-201.3-59.3-189.2-215.9s112.6-276.4,229-299.8c115.7-23.2,202.1,59.1,190,215.7
							S2072.6,1755.8,1957,1779z M1989.2,1360.7c-54.4,10.9-105.8,81.1-113.6,181.5s34.3,151.9,88.7,141
							c53.6-10.8,106.6-81.2,114.3-181.7S2042.9,1349.9,1989.2,1360.7z"/>
						<path class="st4" d="M2433.4,1674.2l-84-181.8l-23.7,4.8l-15.6,201.8l-101.1,20.3l38.3-497l147.8-29.7
							c74.3-14.9,133.4,30.7,126.5,119.6c-4.2,54.5-34.5,105.1-69.7,131.3l100.9,206.7L2433.4,1674.2z M2375.3,1283.2l-33.7,6.8
							l-9.4,122.3l33.7-6.8c24.5-4.9,49.9-30.7,53-71.2S2399.8,1278.3,2375.3,1283.2z"/>
						<path class="st4" d="M2707.6,1619.1L2559,1649l38.3-497l134.1-26.9c68.9-13.8,123.4,22.8,117.1,105.3
							c-2.6,34.3-20.2,76.1-44.2,94c33.5,5.5,67.4,45.5,62.2,112.5C2859.1,1532.8,2790.3,1602.5,2707.6,1619.1z M2710.4,1396.9
							l-38.3,7.7l-11.2,144.9l38.3-7.7c29.1-5.8,60.8-35.2,64.5-83.5S2739.5,1391.1,2710.4,1396.9L2710.4,1396.9z M2712.2,1207.9
							l-25.3,5.1l-8.7,112.2l25.3-5.1c21.4-4.3,45-25.9,47.9-64.1C2754.5,1217.1,2733.6,1203.6,2712.2,1207.9z"/>
						<path class="st4" d="M2902.2,1580.1l38.3-497l105.7-21.2l-38.3,497L2902.2,1580.1z"/>
						<path class="st4" d="M3377.5,1488.5l-128.3-185.2c-20.4-28.9-44-65.6-61.2-95.8l-1.6,1.1c-1.3,36.3-3.5,75.1-5.9,106.3
							l-16.4,212.7l-97.3,19.5l38.3-497l88.9-17.8l113,168.3c16.3,23.6,39.1,59.6,53.7,85.9l0.8-0.9c0.9-30.9,2.9-66.5,5.2-96.1
							l15-194.7l98.8-19.8l-38.6,500.9L3377.5,1488.5z"/>
						<path class="st4" d="M3495,1461.1l38.3-497l232.9-46.7l-6.9,89.6l-129.5,26l-8.7,112.9l107.2-21.5l-7,90.4l-107.2,21.5
							l-8.8,114.5l146.3-29.4l-6.9,89.6L3495,1461.1z"/>
					</g>
				</g>
			</g>
		</g>
		<g>
			<g>
				<defs>
					<rect id="SVGID_6_" x="1096.4" y="1709" width="1063.5" height="944.8"/>
				</defs>
				<clipPath id="SVGID_7_">
					<use xlink:href="#SVGID_6_"  style="overflow:visible;"/>
				</clipPath>
				<g class="st5">
					<path class="st4" d="M1266.5,2281l-40.9,8.2l-14.2,184.5l-78.2,15.7l35.1-454.4l119.1-23.9c56.6-11.4,100.9,32.3,94.7,113.5
						C1375.7,2205.8,1323.1,2269.7,1266.5,2281z M1271.2,2093.5l-30.9,6.2l-8.6,111.8l30.9-6.2c18.7-3.7,38.8-26.7,41.7-63.8
						S1289.8,2089.8,1271.2,2093.5z"/>
					<g>
						<path class="st4" d="M1378.3,2440.2l29.2-378.7l80-16l-23.9,310.4l110.3-22.1l-5.3,68.3L1378.3,2440.2z"/>
						<path class="st4" d="M1720.4,2378c-74.7,15-129.7-17.2-124-90.8l20.7-267.7l80-16l-20.1,261.2c-2.6,33.8,17.5,49.1,49.6,42.6
							s55.2-30.4,57.8-64.2l20.1-261.2l78.8-15.8l-20.7,267.7C1856.9,2307.3,1795.1,2363,1720.4,2378z"/>
						<path class="st4" d="M1977.4,2324.7c-32.7,6.6-63.4,2.8-80-5.6l-1.1-75.8c20.9,12.2,49.7,18.7,77.7,13
							c26.8-5.4,44.4-24.1,46.1-46.7s-6.9-37.2-35.2-49.6c-51.1-22.5-74.7-52.2-70.8-102.7c4.6-59.4,47.7-111.8,113.7-125.1
							c33.3-6.7,61.1-2.3,72.8,2.9l-18.6,69.8c-10.5-4.9-32.1-8.8-50.8-5c-25.1,5-37.8,20.4-39.2,39.4c-1.4,18.4,8.5,31,31.8,41.5
							c51.6,23.5,81,52.7,76.6,109.7C2095,2259.5,2052.1,2309.7,1977.4,2324.7z"/>
					</g>
				</g>
			</g>
		</g>
		<path class="st6" d="M4209.6,1091.4c0-25.9,21-45,45.8-45c24.6,0,45.6,19.1,45.6,45c0,26.1-21,45.2-45.6,45.2
			C4230.6,1136.6,4209.6,1117.5,4209.6,1091.4 M4255.4,1129.1c20.4,0,36.5-16,36.5-37.7c0-21.4-16.1-37.5-36.5-37.5
			c-20.6,0-36.8,16.1-36.8,37.5C4218.7,1113.1,4234.8,1129.1,4255.4,1129.1 M4245.9,1117.6h-7.9v-52h19.8c12.3,0,18.4,4.5,18.4,14.8
			c0,9.3-5.8,13.4-13.5,14.3l14.8,22.9h-8.8L4255,1095h-9.1L4245.9,1117.6z M4255.3,1088.3c6.7,0,12.7-0.5,12.7-8.5
			c0-6.5-5.8-7.6-11.3-7.6h-10.8v16.1L4255.3,1088.3z"/>
		<path class="st6" d="M965.6,1935.1l-20.1-130.3l-118,23.7l-41.2,142.6l-98,19.7l195.6-629.2l83.5-16.8l103.2,569.2L965.6,1935.1z
			 M915.4,1589c-2.5-17-4.5-39.6-6-59.5l-1.5,0.3c-4.7,21.2-10.3,45.3-15.5,63.8l-34.7,127.5l72.8-14.6L915.4,1589z"/>
		<g>
			<path class="st6" d="M1245.9,1878.8l-148.6,29.8l38.3-497l134.1-26.9c68.9-13.8,123.4,22.8,117.1,105.3
				c-2.6,34.3-20.2,76.1-44.2,94c33.5,5.5,67.4,45.5,62.2,112.5C1397.4,1792.4,1328.7,1862.2,1245.9,1878.8z M1248.7,1656.6
				l-38.3,7.7l-11.2,144.9l38.3-7.7c29.1-5.8,60.8-35.2,64.5-83.5S1277.9,1650.8,1248.7,1656.6L1248.7,1656.6z M1250.5,1467.6
				l-25.3,5.1l-8.7,112.2l25.3-5.1c21.4-4.3,45-25.9,47.9-64.1C1292.8,1476.7,1272,1463.3,1250.5,1467.6L1250.5,1467.6z"/>
			<path class="st6" d="M1543.4,1825.2c-42.9,8.6-83.2,3.7-105-7.3l-1.4-99.4c27.4,16,65.2,24.5,102,17.1
				c35.2-7.1,58.2-31.6,60.5-61.2s-9.1-48.8-46.3-65.1c-67.1-29.5-98-68.5-92.9-134.7c6-77.9,62.6-146.8,149.2-164.1
				c43.7-8.8,80.2-3.1,95.5,3.8l-24.4,91.6c-13.8-6.4-42.1-11.5-66.6-6.6c-32.9,6.6-49.6,26.8-51.5,51.8
				c-1.9,24.1,11.2,40.7,41.8,54.5c67.8,30.9,106.3,69.2,100.5,143.9C1697.8,1739.8,1641.5,1805.6,1543.4,1825.2z"/>
			<path class="st6" d="M1927.7,1751.2c-116.4,23.4-201.3-59.3-189.2-215.9s112.6-276.4,229-299.8c115.7-23.2,202.1,59.1,190,215.7
				S2043.4,1728,1927.7,1751.2z M1960,1332.9c-54.4,10.9-105.8,81.1-113.6,181.5s34.3,151.9,88.7,141
				c53.6-10.8,106.6-81.2,114.3-181.7S2013.6,1322.1,1960,1332.9L1960,1332.9z"/>
			<path class="st6" d="M2404.9,1646.2l-84-181.8l-23.7,4.8l-15.6,201.8l-101.1,20.3l38.3-497l147.8-29.7
				c74.3-14.9,133.4,30.8,126.5,119.6c-4.2,54.5-34.5,105.1-69.7,131.3l100.9,206.7L2404.9,1646.2z M2346.8,1255.2l-33.7,6.8
				l-9.4,122.3l33.7-6.8c24.5-4.9,49.9-30.7,53-71.2S2371.3,1250.3,2346.8,1255.2L2346.8,1255.2z"/>
			<path class="st6" d="M2679.1,1591.2l-148.6,29.8l38.3-497l134.1-26.9c68.9-13.8,123.4,22.8,117.1,105.3
				c-2.6,34.3-20.2,76.1-44.2,94c33.5,5.5,67.4,45.5,62.2,112.5C2830.6,1504.8,2761.8,1574.6,2679.1,1591.2z M2681.9,1369l-38.3,7.7
				l-11.2,144.9l38.3-7.7c29.1-5.8,60.8-35.2,64.5-83.5S2711,1363.1,2681.9,1369z M2683.7,1179.9l-25.3,5.1l-8.7,112.2l25.3-5.1
				c21.4-4.3,45-25.9,47.9-64.1C2726,1189.1,2705.1,1175.6,2683.7,1179.9L2683.7,1179.9z"/>
			<path class="st6" d="M2873.7,1552.1l38.3-497l105.7-21.2l-38.3,497L2873.7,1552.1z"/>
			<path class="st6" d="M3349,1460.5l-128.3-185.2c-20.4-28.9-44-65.6-61.2-95.8l-1.6,1.1c-1.3,36.3-3.5,75.1-5.9,106.3l-16.4,212.7
				l-97.3,19.5l38.3-497l88.9-17.8l113,168.3c16.3,23.6,39.1,59.6,53.7,85.9l0.8-0.9c0.9-30.9,2.9-66.5,5.2-96.1l15-194.7l98.8-19.8
				l-38.6,500.9L3349,1460.5z"/>
			<path class="st6" d="M3465.8,1433.3l38.3-497l232.9-46.7l-6.9,89.6l-129.5,26l-8.7,112.9l107.2-21.5l-7,90.4l-107.2,21.5
				l-8.8,114.5l146.3-29.4l-6.9,89.6L3465.8,1433.3z"/>
		</g>
		<path class="st6" d="M1237.2,2253.2l-40.9,8.2l-14.2,184.5l-78.2,15.7l35.1-454.4l119.1-23.9c56.6-11.4,100.9,32.3,94.7,113.5
			C1346.5,2178,1293.8,2241.9,1237.2,2253.2z M1241.9,2065.7l-30.9,6.2l-8.6,111.8l30.9-6.2c18.7-3.7,38.8-26.7,41.7-63.8
			S1260.6,2062,1241.9,2065.7z"/>
		<g>
			<path class="st6" d="M1349.1,2412.4l29.2-378.7l80-16l-23.9,310.4l110.3-22.1l-5.3,68.3L1349.1,2412.4z"/>
			<path class="st6" d="M1691.2,2350.2c-74.7,15-129.7-17.2-124-90.8l20.7-267.7l80-16l-20.1,261.2c-2.6,33.8,17.5,49.1,49.6,42.6
				s55.2-30.4,57.8-64.2l20.1-261.2l78.8-15.8l-20.7,267.7C1827.6,2279.5,1765.9,2335.2,1691.2,2350.2z"/>
			<path class="st6" d="M1948.1,2296.8c-32.7,6.6-63.4,2.8-80-5.6l-1.1-75.8c20.9,12.2,49.7,18.7,77.7,13
				c26.8-5.4,44.4-24.1,46.1-46.7s-6.9-37.2-35.2-49.6c-51.1-22.5-74.7-52.2-70.8-102.7c4.6-59.4,47.7-111.8,113.7-125.1
				c33.3-6.7,61.1-2.3,72.8,2.9l-18.6,69.8c-10.5-4.9-32.1-8.8-50.8-5c-25.1,5-37.8,20.4-39.2,39.4c-1.4,18.4,8.5,31,31.8,41.5
				c51.6,23.5,81,52.7,76.6,109.7C2065.8,2231.7,2022.8,2281.9,1948.1,2296.8z"/>
		</g>
		<path class="st6" d="M3894,1406.9c8.8,3.5,17.1,6.2,28.5,3.9c18.8-3.7,20-20.7,20.9-33.3l14.7-202.5l29.2-5.8l-15.1,208.2
			c-2.2,29.5-18.9,49.3-53.6,56.1c-11,2.2-16.8,2.5-26.7,0.9L3894,1406.9z M3957.9,1097.1l40.1-8l-2.9,40.5l-40.1,8L3957.9,1097.1z"
			/>
		<path class="st6" d="M4054.6,1165.7l30.7-19.6l-5.2,70.9c-0.2,2,0.7,2.2,1.2,2.2c11-2.2,32.2-58.7,97.1-91.1l-3.3,45.3
			c-44.3,8.8-69,32.9-95.9,68.6l-7.4,101.7l-30.6,6.1L4054.6,1165.7z"/>
		<path class="st6" d="M4152.9,1306.8c1-13.3,14.6-26.8,29.2-29.7c15.5-3.1,27,6.2,26.1,18.8c-1,13.8-14.6,26.4-29.2,29.3
			C4164,1328.2,4151.9,1320.5,4152.9,1306.8"/>
	</g>
</g>
</svg>
