<svg xmlns="http://www.w3.org/2000/svg" width="4301.147" height="1176.319" viewBox="0 0 4301.147 1176.319">
  <path d="M4471.58,2151.449c0,324.81-250.958,588.142-560.449,588.142H730.881c-309.524,0-560.448-263.332-560.448-588.142h0c0-324.844,250.924-588.177,560.448-588.177h3180.25c309.491,0,560.449,263.333,560.449,588.177Z" transform="translate(-170.433 -1563.272)" fill="#feaa61"/>
  <path d="M4471.58,2151.449c0,276.678-250.958,501.013-560.449,501.013H730.881c-309.524,0-560.448-224.335-560.448-501.013h0c0-276.712,250.924-501.045,560.448-501.045h3180.25c309.491,0,560.449,224.333,560.449,501.045Z" transform="translate(-170.433 -1563.272)" fill="#002f87"/>
  <g>
    <path d="M825.909,1831.02l262.171,669.655h-112.5L903.256,2303.6H635.065l-75.341,197.073H465.31L751.58,1831.02Zm54.243,405.62c-35.153-92.8-69.311-185.584-104.465-306.13H773.68c-36.165,120.546-73.325,213.329-111.5,306.13Z" transform="translate(-170.433 -1563.272)" fill="#fff"/>
    <path d="M1138.284,2500.675V1797.539h90.4v703.136Z" transform="translate(-170.433 -1563.272)" fill="#fff"/>
    <path d="M1355.234,1797.539h90.4v299.423h2.015c37.16-57.4,108.479-86.094,164.73-86.094,195.869,0,228.012,167.422,228.012,236.291,0,145.414-90.4,264.989-238.055,264.989-63.283,0-117.527-28.7-154.687-74.605h-2.015v63.132h-90.4Zm387.725,450.573c0-87.047-46.208-176.018-139.619-176.018-102.458,0-157.7,75.575-157.7,198.98,0,91.847,44.2,179.848,156.7,179.848C1710.816,2450.922,1742.959,2335.176,1742.959,2248.112Z" transform="translate(-170.433 -1563.272)" fill="#fff"/>
    <path d="M1900.631,2255.772c0-154.98,120.537-244.9,247.1-244.9,126.549,0,248.1,89.924,248.1,244.9,0,148.273-99.44,256.376-248.1,256.376C2000.071,2512.148,1900.631,2404.045,1900.631,2255.772Zm97.433,0c0,89.924,32.143,195.15,149.67,195.15,118.522,0,150.665-105.226,150.665-195.15,0-86.094-37.161-183.678-150.665-183.678C2035.233,2072.094,1998.064,2169.678,1998.064,2255.772Z" transform="translate(-170.433 -1563.272)" fill="#fff"/>
    <path d="M2490.238,2500.675V1797.539h90.392v703.136Z" transform="translate(-170.433 -1563.272)" fill="#fff"/>
    <path d="M2768.455,2267.244c-1,95.677,70.307,183.678,169.763,183.678,46.192,0,102.45-16.256,137.6-41.124l26.123,46.877c-52.229,35.388-114.508,55.473-166.754,55.473-156.685,0-260.155-91.831-260.155-260.206,0-165.5,124.559-241.074,238.063-241.074,152.689,0,203.914,131.065,193.863,256.376Zm256.142-57.4c0-74.621-33.147-137.754-112.5-137.754-96.43,0-134.593,76.528-137.62,137.754Z" transform="translate(-170.433 -1563.272)" fill="#fff"/>
    <path d="M3287.746,2081.66c47.211-47.83,119.525-70.792,171.77-70.792,115.512,0,177.791,61.226,177.791,181.771v308.036H3546.9V2210.8c0-89.923-40.17-136.8-121.548-136.8-71.311,0-136.6,46.877-136.6,138.724v287.95h-90.409V2022.341h89.405Z" transform="translate(-170.433 -1563.272)" fill="#fff"/>
    <path d="M3825.116,2267.244c-1,95.677,70.307,183.678,169.763,183.678,46.191,0,102.45-16.256,137.6-41.124l26.122,46.877c-52.228,35.388-114.508,55.473-166.753,55.473-156.685,0-260.156-91.831-260.156-260.206,0-165.5,124.559-241.074,238.064-241.074,152.688,0,203.913,131.065,193.862,256.376Zm256.142-57.4c0-74.621-33.147-137.754-112.5-137.754-96.43,0-134.594,76.528-137.621,137.754Z" transform="translate(-170.433 -1563.272)" fill="#fff"/>
  </g>
  <path d="M4184.159,2462.98c0-22.042,17.711-40.187,39.519-40.187,21.707,0,39.4,18.145,39.4,40.187,0,22.259-17.694,40.405-39.4,40.405C4201.87,2503.385,4184.159,2485.239,4184.159,2462.98Zm72.03,0c0-18.145-14.7-33.732-32.511-33.732s-32.612,15.587-32.612,33.732c0,18.246,14.8,33.949,32.612,33.949S4256.189,2481.226,4256.189,2462.98Zm-48.2-22.945h16.356c9.348,0,16.707,3.679,16.707,11.138,0,6.238-4.131,9.917-9.583,12.476l14.132,18.363-7.894,1.889-13.362-18.6h-8.563v17.811h-7.793Zm7.793,20.938h4.666c10.135,0,12.242-5.686,12.242-9.349,0-5.234-4.666-7.241-9.9-7.241h-7.007Z" transform="translate(-170.433 -1563.272)" fill="#fff"/>
</svg>
