<?xml version="1.0" encoding="UTF-8"?>
<svg width="400px" height="65px" viewBox="0 0 400 65" version="1.1" xmlns="http://www.w3.org/2000/svg" xmlns:xlink="http://www.w3.org/1999/xlink">
    <title>brand-thermacare</title>
    <g id="Page-1" stroke="none" stroke-width="1" fill="none" fill-rule="evenodd">
        <g id="brand-thermacare">
            <path d="M397.269464,15.6896188 L397.489564,15.6896188 C397.747836,15.6896188 397.956565,15.6035281 397.956565,15.395611 C397.956565,15.211247 397.821744,15.0886084 397.526924,15.0886084 C397.404285,15.0886084 397.318194,15.1007911 397.269464,15.1137859 L397.269464,15.6896188 M397.256469,16.8307262 L396.79028,16.8307262 L396.79028,14.8189659 C396.974644,14.782418 397.232104,14.7572406 397.563472,14.7572406 C397.944382,14.7572406 398.115751,14.8189659 398.263567,14.9050566 C398.373211,14.9911473 398.459302,15.1503338 398.459302,15.3468804 C398.459302,15.5677923 398.287933,15.7391615 398.041843,15.8122574 L398.041843,15.8374348 C398.23839,15.9105307 398.348846,16.0583467 398.409759,16.3279892 C398.471484,16.6349918 398.508032,16.7576304 398.557575,16.8307262 L398.054838,16.8307262 C397.993113,16.7576304 397.956565,16.5732664 397.894839,16.3401719 C397.858292,16.1192599 397.735653,16.0209866 397.478193,16.0209866 L397.256469,16.0209866 L397.256469,16.8307262 M396.0179,15.7757094 C396.0179,16.6715397 396.679824,17.383006 397.587837,17.383006 C398.471484,17.383006 399.121225,16.6715397 399.121225,15.7887043 C399.121225,14.8920618 398.471484,14.1684128 397.575654,14.1684128 C396.679824,14.1684128 396.0179,14.8920618 396.0179,15.7757094 M399.636957,15.7757094 C399.636957,16.9168169 398.741127,17.8126472 397.575654,17.8126472 C396.422364,17.8126472 395.502169,16.9168169 395.502169,15.7757094 C395.502169,14.6589672 396.422364,13.7639491 397.575654,13.7639491 C398.741127,13.7639491 399.636957,14.6589672 399.636957,15.7757094" id="Fill-47" fill="#BA2530"></path>
            <image id="Image-48" x="0" y="0" width="400" height="48.2627552" xlink:href=""></image>
            <image id="Image-49" x="395.302373" y="13.449637" width="4.50270455" height="4.60016568" xlink:href=""></image>
            <path d="M327.421503,25.839384 C326.748209,27.3484073 321.144194,40.543021 321.144194,40.543021 L332.828972,40.543021 C332.828972,40.543021 337.830353,28.7843347 338.467911,27.8292156 C339.543232,26.1585693 341.603723,23.1445836 345.861963,21.7151536 C349.229245,20.5188181 354.440167,20.7551614 355.824927,20.7551614 L358.209476,15.6709387 C358.209476,15.6709387 346.294852,15.3582509 344.622582,15.5150009 C338.666082,15.8293131 334.216981,17.6591459 331.98837,19.6465409 C329.5291,21.7914981 328.098858,24.3344216 327.421503,25.839384 Z M120.868054,25.839384 C120.152527,27.3484073 114.593181,40.543021 114.593181,40.543021 L126.273898,40.543021 C126.273898,40.543021 131.241168,28.7843347 131.95507,27.8292156 C133.030392,26.1585693 135.012914,23.1445836 139.30364,21.7151536 C142.678232,20.5188181 147.889154,20.7551614 149.275539,20.7551614 L151.6609,15.6709387 C151.6609,15.6709387 139.741403,15.3582509 138.073193,15.5150009 C132.11182,15.8293131 127.665156,17.6591459 125.399997,19.6465409 C122.978087,21.7914981 121.543784,24.3344216 120.868054,25.839384 Z M300.525478,36.8094472 C305.969495,36.5714796 309.50571,33.1530302 310.499001,31.6448191 C311.574322,30.131735 312.842941,27.4304371 312.842941,27.4304371 C306.728067,28.624336 297.151698,30.131735 295.239836,34.1049007 C294.528369,35.618797 296.873934,36.8094472 300.525478,36.8094472 Z M318.003509,40.6177412 L307.51669,40.6177412 L308.592011,38.1617205 C304.539252,40.141806 300.851161,41.1797671 294.924711,41.1797671 C287.854718,41.1797671 282.532528,38.0796907 284.039114,34.1861183 C285.233826,31.008073 289.282524,28.624336 295.559021,26.9561262 C298.260319,26.3201923 303.266572,25.2871043 306.96441,24.5707649 C311.6929,23.5368647 314.870133,23.8552377 315.225866,21.7914981 C315.625457,19.1697935 309.624287,19.0089827 305.889089,19.3297922 C302.114907,19.5661355 298.223771,20.3620681 294.924711,21.3894709 L293.175284,17.5803648 C298.339912,15.9901239 307.002583,14.7994737 312.606598,14.9594724 C319.916183,15.1933791 326.870848,16.3872781 326.148823,21.3131264 C325.952277,22.8229618 318.003509,40.6177412 318.003509,40.6177412 Z M227.151049,36.8094472 C232.63405,36.5714796 236.128844,33.1530302 237.160307,31.6448191 C238.190959,30.131735 239.466888,27.4304371 239.466888,27.4304371 C233.382876,28.624336 223.813005,30.131735 221.903578,34.1049007 C221.189676,35.618797 223.532804,36.8094472 227.151049,36.8094472 Z M244.629891,40.6177412 L234.18287,40.6177412 L235.21677,38.1617205 C231.200559,40.141806 227.550639,41.1797671 221.586018,41.1797671 C214.474603,41.1797671 209.190585,38.0796907 210.697984,34.1861183 C211.891883,31.008073 215.948703,28.624336 222.187028,26.9561262 C224.922437,26.3201923 229.931127,25.2871043 233.583484,24.5707649 C238.353394,23.5368647 241.530627,23.8552377 241.847376,21.7914981 C242.24453,19.1697935 236.28803,19.0089827 232.555269,19.3297922 C228.777837,19.5661355 224.884265,20.3620681 221.552718,21.3894709 L219.841463,17.5803648 C224.96467,15.9901239 233.702061,14.7994737 239.230544,14.9594724 C246.573429,15.1933791 253.528905,16.3872781 252.816627,21.3131264 C252.610334,22.8229618 244.629891,40.6177412 244.629891,40.6177412 Z M300.803242,8.51729123 C297.151698,7.64582623 294.091419,7.09029774 286.816757,7.1666423 C270.253237,7.32745318 255.632442,16.1501226 253.175609,27.3484073 C251.781102,33.6305898 256.073453,39.8274938 269.339538,41.1001738 C273.989247,41.4973279 276.41278,41.3365171 279.313874,40.7793642 L281.500252,35.8567646 C278.519565,36.6510729 275.854003,36.8094472 274.58376,36.6510729 C268.226045,36.0898592 264.931046,32.9946559 266.323928,26.9561262 C267.988077,19.8024788 274.064779,14.2415087 283.67932,11.854523 C288.051265,10.7475269 294.729789,11.541023 298.463363,13.0476098 L300.803242,8.51729123 Z M71.2083557,15.1162224 C66.1647418,14.5615061 58.9745464,15.2754089 54.9997563,16.9468674 L60.5233663,4.07062684 L7.96176275,4.07062684 L3.94717606,9.5568767 L23.2704709,9.5568767 L7.92115394,40.543021 L20.0518168,40.543021 L35.2833683,9.5568767 L47.1760635,9.5568767 L32.8980069,40.543021 L44.1539561,40.543021 C44.1539561,40.543021 48.2879327,30.3729513 50.3094391,26.7993762 C51.9029287,23.8552377 55.0801618,19.5661355 63.3432419,19.4061368 C66.7592547,19.3297922 68.0319348,20.7551614 67.7143739,21.7914981 C67.3586407,22.9829605 59.6080438,40.543021 59.6080438,40.543021 L70.5740461,40.543021 C70.5740461,40.543021 76.4923737,26.4014099 77.8397739,23.5368647 C79.3114371,20.4416614 79.0003736,16.3052483 71.2083557,15.1162224 Z M154.123418,15.3582509 L142.879652,40.543021 L154.360574,40.543021 C154.360574,40.543021 160.041746,26.7993762 160.95382,25.6095382 C164.770235,20.7551614 168.03031,19.4061368 172.517584,19.3297922 C175.215633,19.3297922 176.846482,20.2800383 176.568718,22.0319023 C176.367299,23.1445836 168.585027,40.543021 168.585027,40.543021 L180.382697,40.543021 C180.382697,40.543021 185.309358,28.3075873 186.65757,25.9238504 C190.237643,19.882072 195.796176,19.3297922 198.021539,19.3297922 C200.998977,19.3297922 202.711044,20.5188181 202.153891,22.1058103 C201.439988,24.0980784 194.089794,40.543021 194.089794,40.543021 L205.495184,40.543021 C205.495184,40.543021 213.321313,23.3045823 213.642123,22.1878401 C214.793788,17.8971135 209.546318,14.722317 202.864545,14.9594724 C197.307636,15.1162224 193.056706,15.6709387 187.615938,18.7710151 C186.65757,16.7032146 183.044199,14.7994737 177.921804,14.7994737 C170.333642,14.8774426 165.52231,16.7032146 163.34243,18.1326446 L164.529019,15.3582509 L154.123418,15.3582509 Z M379.506359,19.0089827 C373.309455,19.0089827 370.805516,20.5975992 367.428488,24.0980784 L383.120543,24.0980784 C383.836883,22.5086497 383.878304,19.0089827 379.506359,19.0089827 Z M385.820217,38.8707503 C380.582493,40.7793642 373.589656,41.8124523 368.856294,41.8124523 C354.951026,41.8124523 350.027614,35.618797 351.928918,29.3382389 C354.085246,22.348651 363.377353,14.9594724 378.832253,14.9594724 C385.380829,14.9594724 395.438007,16.0705294 393.371018,24.253204 C393.015285,25.6095382 392.855286,26.5532869 392.296509,28.0671832 L365.046375,28.0671832 C364.565567,28.9386482 364.209834,29.9741728 364.013287,31.0836054 C363.174309,35.618797 366.714585,37.444569 370.805516,37.3633514 C374.141936,37.3633514 383.001153,35.9379822 387.611065,33.8669331 L385.820217,38.8707503 Z M105.059045,19.0089827 C98.897877,19.0089827 96.3963744,20.5975992 92.9811738,24.0980784 L108.717087,24.0980784 C109.388756,22.5086497 109.427741,19.0089827 105.059045,19.0089827 Z M111.415948,38.8707503 C106.173351,40.7793642 99.1374689,41.8124523 94.4544613,41.8124523 C80.505336,41.8124523 75.6184721,35.618797 77.4864773,29.3382389 C79.6314345,22.348651 88.929227,14.9594724 104.423923,14.9594724 C110.978997,14.9594724 120.992317,16.0705294 118.961876,24.253204 C118.564722,25.6095382 118.407972,26.5532869 117.850819,28.0671832 L90.5958124,28.0671832 C90.1629225,28.9386482 89.8047529,29.9741728 89.6073941,31.0836054 C88.7716648,35.618797 92.3021945,37.444569 96.3963744,37.3633514 C99.6962461,37.3633514 108.59526,35.9379822 113.244156,33.8669331 L111.415948,38.8707503 L111.415948,38.8707503 Z" id="Fill-50" fill="#BA2530"></path>
            <image id="Image-51" x="192.583207" y="47.6584962" width="197.76814" height="16.880269" xlink:href=""></image>
            <image id="Image-52" x="192.583207" y="47.3661128" width="197.670679" height="0.896642464" xlink:href=""></image>
            <path d="M199.540308,55.0111268 C200.148628,55.0111268 200.61563,54.8673716 200.9405,54.5806735 C201.266183,54.2947875 201.428618,53.9122525 201.428618,53.4346929 L201.428618,53.4022059 C201.428618,52.8718548 201.258061,52.4738885 200.916947,52.2083069 C200.575021,51.9427253 200.10071,51.8103406 199.49239,51.8103406 L197.044491,51.8103406 L197.044491,55.0111268 L199.540308,55.0111268 Z M194.580349,49.5866023 L199.701119,49.5866023 C201.119179,49.5866023 202.207495,49.9658886 202.964443,50.7220246 C203.604438,51.3620194 203.924435,52.2156165 203.924435,53.282816 L203.924435,53.3144908 C203.924435,54.2216916 203.702711,54.9599597 203.260887,55.5301074 C202.818251,56.1010672 202.23917,56.5201501 201.524455,56.7865439 L204.260676,60.7865114 L201.380699,60.7865114 L198.980719,57.2023781 L197.044491,57.2023781 L197.044491,60.7865114 L194.580349,60.7865114 L194.580349,49.5866023 L194.580349,49.5866023 Z" id="Fill-53" fill="#BA2530"></path>
            <polyline id="Fill-54" fill="#BA2530" points="205.668989 49.5866023 214.101002 49.5866023 214.101002 51.7786658 208.100645 51.7786658 208.100645 54.0503224 213.380602 54.0503224 213.380602 56.2423858 208.100645 56.2423858 208.100645 58.594448 214.180595 58.594448 214.180595 60.7865114 205.668989 60.7865114 205.668989 49.5866023"></polyline>
            <path d="M222.340529,56.0823871 L220.852623,52.4503354 L219.364716,56.0823871 L222.340529,56.0823871 Z M219.748875,49.5061969 L222.020532,49.5061969 L226.820493,60.7865114 L224.24427,60.7865114 L223.220116,58.2744506 L218.484317,58.2744506 L217.460163,60.7865114 L214.948914,60.7865114 L219.748875,49.5061969 L219.748875,49.5061969 Z" id="Fill-55" fill="#BA2530"></path>
            <polyline id="Fill-56" fill="#BA2530" points="228.068808 49.5866023 230.532138 49.5866023 230.532138 58.5465296 236.116661 58.5465296 236.116661 60.7865114 228.068808 60.7865114 228.068808 49.5866023"></polyline>
            <polyline id="Fill-57" fill="#BA2530" points="241.81164 49.5866023 244.275783 49.5866023 244.275783 54.0186476 248.819908 54.0186476 248.819908 49.5866023 251.28405 49.5866023 251.28405 60.7865114 248.819908 60.7865114 248.819908 56.2903042 244.275783 56.2903042 244.275783 60.7865114 241.81164 60.7865114 241.81164 49.5866023"></polyline>
            <polyline id="Fill-58" fill="#BA2530" points="253.492357 49.5866023 261.923558 49.5866023 261.923558 51.7786658 255.924013 51.7786658 255.924013 54.0503224 261.20397 54.0503224 261.20397 56.2423858 255.924013 56.2423858 255.924013 58.594448 262.003963 58.594448 262.003963 60.7865114 253.492357 60.7865114 253.492357 49.5866023"></polyline>
            <path d="M270.163897,56.0823871 L268.67599,52.4503354 L267.188084,56.0823871 L270.163897,56.0823871 Z M267.572243,49.5061969 L269.843088,49.5061969 L274.643861,60.7865114 L272.067638,60.7865114 L271.043484,58.2744506 L266.307685,58.2744506 L265.283531,60.7865114 L262.77147,60.7865114 L267.572243,49.5061969 L267.572243,49.5061969 Z" id="Fill-59" fill="#BA2530"></path>
            <polyline id="Fill-60" fill="#BA2530" points="277.059273 51.8590712 273.651382 51.8590712 273.651382 49.5866023 282.931306 49.5866023 282.931306 51.8590712 279.523415 51.8590712 279.523415 60.7865114 277.059273 60.7865114 277.059273 51.8590712"></polyline>
            <polyline id="Fill-61" fill="#BA2530" points="291.26667 51.8590712 287.858779 51.8590712 287.858779 49.5866023 297.138703 49.5866023 297.138703 51.8590712 293.731625 51.8590712 293.731625 60.7865114 291.26667 60.7865114 291.26667 51.8590712"></polyline>
            <polyline id="Fill-62" fill="#BA2530" points="298.547017 49.5866023 301.010347 49.5866023 301.010347 54.0186476 305.554473 54.0186476 305.554473 49.5866023 308.018615 49.5866023 308.018615 60.7865114 305.554473 60.7865114 305.554473 56.2903042 301.010347 56.2903042 301.010347 60.7865114 298.547017 60.7865114 298.547017 49.5866023"></polyline>
            <path d="M316.658545,56.0823871 L315.170638,52.4503354 L313.682732,56.0823871 L316.658545,56.0823871 Z M314.066891,49.5061969 L316.338548,49.5061969 L321.139321,60.7865114 L318.563098,60.7865114 L317.538944,58.2744506 L312.803145,58.2744506 L311.778991,60.7865114 L309.266118,60.7865114 L314.066891,49.5061969 L314.066891,49.5061969 Z" id="Fill-63" fill="#BA2530"></path>
            <polyline id="Fill-64" fill="#BA2530" points="323.55392 51.8590712 320.146841 51.8590712 320.146841 49.5866023 329.426766 49.5866023 329.426766 51.8590712 326.018063 51.8590712 326.018063 60.7865114 323.55392 60.7865114 323.55392 51.8590712"></polyline>
            <polyline id="Fill-65" fill="#BA2530" points="335.15342 49.5866023 337.618375 49.5866023 337.618375 54.0186476 342.161688 54.0186476 342.161688 49.5866023 344.626643 49.5866023 344.626643 60.7865114 342.161688 60.7865114 342.161688 56.2903042 337.618375 56.2903042 337.618375 60.7865114 335.15342 60.7865114 335.15342 49.5866023"></polyline>
            <polyline id="Fill-66" fill="#BA2530" points="346.833325 49.5866023 355.265338 49.5866023 355.265338 51.7786658 349.265793 51.7786658 349.265793 54.0503224 354.54575 54.0503224 354.54575 56.2423858 349.265793 56.2423858 349.265793 58.594448 355.345743 58.594448 355.345743 60.7865114 346.833325 60.7865114 346.833325 49.5866023"></polyline>
            <path d="M363.505677,56.0823871 L362.01777,52.4503354 L360.529864,56.0823871 L363.505677,56.0823871 Z M360.913211,49.5061969 L363.18568,49.5061969 L367.985641,60.7865114 L365.409418,60.7865114 L364.386076,58.2744506 L359.650277,58.2744506 L358.626123,60.7865114 L356.11325,60.7865114 L360.913211,49.5061969 L360.913211,49.5061969 Z" id="Fill-67" fill="#BA2530"></path>
            <polyline id="Fill-68" fill="#BA2530" points="369.233143 49.5866023 371.698098 49.5866023 371.698098 58.5465296 377.281809 58.5465296 377.281809 60.7865114 369.233143 60.7865114 369.233143 49.5866023"></polyline>
            <path d="M382.641359,60.9465101 C381.787762,60.9465101 380.950409,60.7978818 380.129298,60.5030619 C379.308188,60.2074298 378.561798,59.7534233 377.889317,59.1410425 L379.345548,57.3940516 C379.857219,57.810698 380.382697,58.1412537 380.92117,58.3865309 C381.459643,58.6318081 382.049283,58.7544467 382.689278,58.7544467 C383.201761,58.7544467 383.598915,58.6618586 383.881552,58.4750581 C384.163377,58.2890697 384.305508,58.0299855 384.305508,57.700242 L384.305508,57.6685672 C384.305508,57.5085685 384.27627,57.368062 384.217793,57.2446112 C384.158504,57.1227848 384.047236,57.0074558 383.881552,56.9018729 C383.715868,56.7954778 383.486022,56.6890827 383.193639,56.5818755 C382.900443,56.4754804 382.518721,56.3642123 382.049283,56.2464467 C381.483196,56.0970063 380.972337,55.9402563 380.513458,55.7753846 C380.054578,55.6105128 379.665546,55.4025957 379.345548,55.1524455 C379.025551,54.9022952 378.777025,54.5912317 378.601595,54.2184429 C378.425353,53.845654 378.336826,53.3827136 378.336826,52.8288095 L378.336826,52.7971346 C378.336826,52.2854637 378.432662,51.825772 378.623524,51.415623 C378.813573,51.0054741 379.081591,50.6505531 379.425954,50.3524844 C379.770317,50.055228 380.18209,49.8261943 380.660462,49.6661956 C381.138021,49.5061969 381.665124,49.4266036 382.240956,49.4266036 C383.062879,49.4266036 383.816578,49.5500544 384.505304,49.7977681 C385.193217,50.0438575 385.82509,50.3987785 386.400923,50.8609067 L385.121745,52.7224144 C384.61982,52.3813005 384.129266,52.111658 383.64927,51.9142992 C383.169274,51.7169404 382.689278,51.6186671 382.209282,51.6186671 C381.729285,51.6186671 381.369491,51.7120673 381.129087,51.8972435 C380.889495,52.0848562 380.770105,52.3155142 380.770105,52.5924663 L380.770105,52.6249533 C380.770105,52.8060686 380.804217,52.9628186 380.873252,53.0960155 C380.942287,53.2292124 381.068174,53.3486022 381.249289,53.4549973 C381.430405,53.5613924 381.678931,53.6629144 381.993243,53.7587512 C382.307555,53.854588 382.704709,53.9658561 383.185517,54.0941799 C383.74998,54.2428082 384.255153,54.4109286 384.696977,54.5977292 C385.139613,54.7837175 385.513214,55.0078781 385.816968,55.2685867 C386.120722,55.5292952 386.350568,55.8346734 386.505693,56.1871579 C386.659195,56.538018 386.737164,56.9587252 386.737164,57.4476552 L386.737164,57.4809545 C386.737164,58.0340464 386.636454,58.5270373 386.435034,58.9583029 C386.233614,59.3887562 385.952601,59.7509868 385.592807,60.0441824 C385.233013,60.3365658 384.801748,60.5607264 384.303072,60.7150399 C383.803583,60.8685412 383.248867,60.9465101 382.641359,60.9465101" id="Fill-69" fill="#BA2530"></path>
        </g>
    </g>
</svg>