<?xml version="1.0" encoding="UTF-8"?>
<svg width="232px" height="80px" viewBox="0 0 232 80" version="1.1" xmlns="http://www.w3.org/2000/svg" xmlns:xlink="http://www.w3.org/1999/xlink">
    <title>brand-dvs</title>
    <g id="Page-1" stroke="none" stroke-width="1" fill="none" fill-rule="evenodd">
        <g id="brand-dvs" fill-rule="nonzero">
            <path d="M231.218582,17.4963852 C230.931857,12.0596831 228.396862,7.51269036 223.895401,4.35133056 C219.846793,1.49392401 214.06922,0.0455314567 206.722658,0.0455314567 C201.01769,0.0455314567 196.121212,0.973388709 192.045531,2.79833872 L192.978311,0.754345485 L165.532687,0.754345485 L155.0986,25.9603138 L155.382864,0.754345485 L130.473466,0.754345485 L130.469774,7.792032 C129.516074,6.80018459 128.429472,5.90063067 127.213659,5.10321489 C122.879557,2.217505 117.640978,0.754345485 111.646824,0.754345485 L87.021689,0.754345485 L79.1755115,34.0772189 C76.4017843,14.8087986 59.8307953,0 39.7957237,0 C17.8175665,0 0,17.8163359 0,39.7944932 C0,61.7726504 17.8175665,79.5902169 39.7957237,79.5902169 C53.343178,79.5902169 65.3019535,72.8146439 72.4897708,62.4728503 L70.1836641,72.2682664 L68.5260729,79.2825719 L100.054761,79.2825719 C107.461621,79.2825719 113.628057,77.5942163 118.375635,74.2704199 C123.434549,70.7411168 127.240732,63.2862637 130.014459,51.4665436 L130.452546,49.5776034 L130.44024,79.2825719 L157.163513,79.2825719 L167.939702,55.6554376 C167.649285,58.009537 167.545916,60.042455 167.633287,61.7197354 C167.942163,67.6548223 170.696201,72.5045378 175.643132,75.7766497 C179.982157,78.5799108 185.976311,80 193.460698,80 C204.380864,80 212.465774,76.7241963 217.482849,70.2698046 C222.261191,64.1489002 224.491001,57.3216428 224.110752,49.971389 C223.940932,46.7681895 223.089371,43.8590986 221.51792,41.0939855 C219.887402,38.2045839 217.052146,35.5243809 212.820182,32.8798646 L208.598062,30.2821104 L229.43301,30.2821104 L230.353484,25.7265036 C231.052453,22.3264113 231.335487,19.6339025 231.218582,17.4963852" id="Fill-314" fill="#FFFFFE"></path>
            <path d="M65.3615136,23.5913416 C62.9717274,23.6041224 59.5679434,24.2243347 56.9369635,27.0977388 C53.3670512,31.0614367 55.327365,36.1461929 56.8902015,40.2144901 L57.0932472,40.7485618 C58.9514229,45.7151823 60.5437933,52.2347946 56.543178,58.7334872 C52.4699585,65.4549146 44.8366713,67.0731272 39.1464698,67.2441778 C36.3407476,67.3278573 33.4045839,67.0792801 30.4179665,66.499677 C22.0844793,64.8839255 13.7448393,60.0662052 7.79375481,53.5798185 C12.9498846,65.5693586 24.8717428,73.9508383 38.8794339,73.9508383 C57.8537456,73.9508383 73.5620981,58.5772035 73.8931241,39.6779572 C73.9915705,34.1883403 72.774527,28.9989848 70.5385633,24.3916936 C68.8194432,23.8711583 67.0486387,23.581972 65.3615136,23.5913416" id="Fill-316" fill="#000000"></path>
            <path d="M32.7351484,50.6854945 C35.2418397,46.8042455 33.8894324,43.1445008 32.3130595,38.9026919 C30.9335794,35.2220274 29.4962621,31.4096908 30.4659591,27.0079065 C31.3987387,22.8017843 34.060483,19.2577142 38.1693893,16.7534841 C41.0858637,14.9937548 44.7739117,14.1015844 49.12032,14.1015844 C50.3582833,14.1015844 51.6196277,14.1778803 52.8698969,14.3243193 C55.242455,14.603661 60.8268266,15.2755576 66.7594524,18.3458545 C60.5868636,10.4664513 50.9637287,5.40384556 40.0804799,5.40384556 C23.0714044,5.40384556 8.69823104,17.7600984 5.6623904,33.9348408 C7.38520228,32.4064605 9.96942009,31.543824 13.0544839,31.5155207 L13.2661437,31.5155207 C16.3167513,31.5265959 19.6331641,32.3646208 22.6000923,33.875773 C27.0277188,36.14004 30.1976927,39.6324258 31.0886325,43.2343332 C31.5907091,45.2881711 31.3125981,47.2337179 30.2850638,48.8666974 C28.717305,51.3844639 25.5633287,52.8833103 21.625473,52.9645285 L21.4261191,52.9694509 C18.467805,52.9903707 15.2535302,52.1917244 12.3678203,50.7088756 C9.37258883,49.1718812 6.93727119,47.0405168 5.35105368,44.6901092 C5.59840025,46.5815105 6.0057222,48.4249192 6.55333026,50.2104907 C10.0026457,53.0420551 16.4914936,55.7764036 22.6197816,55.6385787 C25.8488233,55.5598216 30.2223043,54.6405784 32.7351484,50.6854945" id="Fill-318" fill="#000000"></path>
            <path d="M112.974619,34.4947547 L109.734502,48.4655284 C108.380864,54.6553453 106.767574,58.6904169 104.937702,60.4612214 C103.17182,62.2074142 100.331641,63.0946624 96.4996154,63.0946624 L93.1389017,63.0946624 L103.986464,16.9405322 L108.13721,16.9405322 C110.486387,16.9405322 112.249808,17.3798493 113.374558,18.2474081 C114.479619,19.1285033 115.07645,20.3270881 115.194585,21.9108445 C115.296724,23.5179818 114.549762,27.7511767 112.974619,34.4947547 M124.289802,9.57428088 C120.84787,7.27801877 116.60483,6.11512075 111.680049,6.11512075 L91.3004153,6.11512075 L75.433318,73.5004461 L75.333641,73.922535 L100.087986,73.922535 C106.373789,73.922535 111.506537,72.5590525 115.342255,69.8726965 C119.213659,67.1728042 122.404553,60.570743 124.825104,50.2560222 L128.139056,35.9529918 C129.693278,29.2992463 130.330718,23.7837871 130.030457,19.5555145 C129.731426,15.2300261 127.799415,11.8693124 124.289802,9.57428088" id="Fill-320" fill="#000000"></path>
            <polygon id="Fill-322" fill="#000000" points="169.149608 6.11475158 149.457868 53.682818 149.994401 6.11475158 135.864882 6.11475158 135.836579 73.9221658 153.750131 73.9221658 184.674604 6.11475158"></polygon>
            <path d="M225.899277,17.7895093 C225.702384,14.0017843 224.001723,10.9536379 220.837902,8.73121058 C217.708537,6.52355022 212.969574,5.40618366 206.756376,5.40618366 C197.794062,5.40618366 191.332287,7.93748654 187.544562,12.9311798 C183.813444,17.9113367 182.075865,23.4083372 182.385971,29.2622058 C182.518874,31.8402707 183.425811,34.2312875 185.093247,36.3688048 C186.752069,38.489094 188.648393,40.1983695 190.900354,41.5926165 L197.040948,45.4295647 C198.954499,46.588771 200.48288,47.7787417 201.575635,48.9637902 C202.604399,50.0860791 203.140932,51.3191201 203.22092,52.7305953 C203.367359,55.5375481 202.565021,58.1168436 200.838517,60.3995693 C199.102169,62.697062 196.887125,63.813198 194.05433,63.813198 C192.69577,63.813198 191.44427,63.4550992 190.222304,62.7142901 C189.049562,62.0153207 188.43181,60.8302723 188.337056,59.0988463 C188.279219,57.9654822 188.372743,56.6647593 188.623781,55.1179203 L188.851438,53.6682972 L173.678388,53.6682972 L173.631626,53.9562529 C173.127088,57.0573143 172.924042,59.5763113 173.020028,61.4406399 C173.240301,65.6689125 175.113244,68.9767113 178.585941,71.274204 C182.04264,73.5064759 187.059714,74.63984 193.494416,74.63984 C202.675773,74.63984 209.335671,72.0580834 213.290755,66.970866 C217.250761,61.8959545 219.102784,56.2734349 218.791447,50.2558991 C218.665928,47.9042609 218.040794,45.7667436 216.881587,43.7289032 C215.71992,41.6689125 213.418736,39.5547762 210.043255,37.4443316 L205.133241,34.423258 C200.961575,31.77505 199.514413,30.3709583 199.035718,29.6670666 C198.346593,28.6173819 197.966344,27.3523458 197.902353,25.9027227 C197.780526,23.5880018 198.421658,21.3631134 199.814675,19.2895862 C201.191694,17.2246731 203.17908,16.2229811 205.898662,16.2229811 C207.364282,16.2229811 208.578865,16.5576988 209.515336,17.2271343 C210.459191,17.8633441 210.955115,18.7973543 211.020335,20.0746962 C211.057253,20.9447162 210.916967,22.143301 210.582249,23.7393632 C210.54164,23.9276419 210.508414,24.0999231 210.47765,24.2660514 L210.35213,24.9207199 L225.079711,24.9207199 L225.135087,24.6463006 C225.731918,21.7495155 225.989109,19.4421781 225.899277,17.7895093" id="Fill-324" fill="#000000"></path>
        </g>
    </g>
</svg>