<?xml version="1.0" encoding="UTF-8"?>
<svg width="197px" height="150px" viewBox="0 0 197 150" version="1.1" xmlns="http://www.w3.org/2000/svg" xmlns:xlink="http://www.w3.org/1999/xlink">
    <title>brand-amb</title>
    <g id="Page-1" stroke="none" stroke-width="1" fill="none" fill-rule="evenodd">
        <g id="brand-amb" fill-rule="nonzero">
            <path d="M52.1222591,46.7524904 C80.1282656,13.7084426 133.782684,24.5189852 150.251454,46.7524904 L193.673357,46.7524904 L193.673357,121.274673 C133.782684,138.624351 57.0604492,136.221269 2.47630656,121.274673 L2.47630656,46.7524904 L52.1222591,46.7524904" id="Fill-1" fill="#FFFFFF"></path>
            <path d="M4.95261313,119.378612 C62.4657205,134.704642 136.751589,134.714627 191.19705,119.406348 L191.19705,49.2287969 L149.004425,49.2287969 L148.262199,48.2258484 C139.915759,36.9582098 121.516534,28.9690146 102.479373,28.3443907 C82.7121894,27.6920304 65.4956458,34.8025361 54.0116632,48.3523264 L53.2705464,49.2287969 L4.95261313,49.2287969 L4.95261313,119.378612 Z M99.2774819,135.816318 C65.5411336,135.816318 31.4131469,131.766802 1.82172732,123.662223 L0,123.164077 L0,44.2761838 L50.9895042,44.2761838 C63.4620124,30.117302 81.7502908,22.6983674 102.641354,23.395106 C122.556095,24.0474663 141.961596,32.3883591 151.469637,44.2761838 L196.149662,44.2761838 L196.149662,123.135232 L194.362329,123.653347 C166.371854,131.761254 133.020487,135.816318 99.2774819,135.816318 L99.2774819,135.816318 Z" id="Fill-2" fill="#4A4F54"></path>
            <path d="M25.4975257,83.6518985 L54.9624673,83.6518985 L54.9624673,70.9419671 L25.4975257,70.9419671 L25.4975257,83.6518985 Z M55.5404941,59.6754379 C61.4627721,59.6754379 66.3011112,64.4416623 66.3011112,70.3639403 L66.3011112,111.673438 L54.9624673,111.673438 L54.9624673,94.9184284 L25.4975257,94.9184284 L25.4975257,111.673438 L14.3031112,111.673438 L14.3031112,70.3639403 C14.3031112,64.4416623 19.0704451,59.6754379 24.9916136,59.6754379 L55.5404941,59.6754379 L55.5404941,59.6754379 Z" id="Fill-3" fill="#4A4F54"></path>
            <path d="M115.849431,59.6754379 L127.476534,59.6754379 L127.476534,111.673438 L116.210005,111.673438 L116.210005,76.7910209 C110.360951,83.7240138 104.0781,91.3803722 98.3000509,98.1680261 L80.3179826,76.8631355 L80.3179826,111.673438 L69.1235681,111.673438 L69.1235681,59.6754379 L80.678556,59.6754379 L98.3000509,80.6907599 L115.849431,59.6754379" id="Fill-4" fill="#4A4F54"></path>
            <path d="M141.421291,100.406909 L170.886232,100.406909 L170.886232,90.8744596 L141.421291,90.8744596 L141.421291,100.406909 Z M141.421291,79.6079306 L168.864803,79.6079306 L168.864803,70.9419671 L141.421291,70.9419671 L141.421291,79.6079306 Z M180.203447,80.1127332 C180.203447,81.3409014 180.058108,82.4969549 179.697535,83.4355553 C181.142047,85.2417497 182.224877,87.7690916 182.224877,90.2243183 L182.224877,100.984936 C182.224877,106.907213 177.386537,111.673438 171.464259,111.673438 L130.226876,111.673438 L130.226876,59.6754379 L169.513835,59.6754379 C175.363998,59.6754379 180.203447,64.4416623 180.203447,70.3639403 L180.203447,80.1127332 L180.203447,80.1127332 Z" id="Fill-5" fill="#4A4F54"></path>
            <path d="M76.9818474,147.23928 L76.966315,147.487798 C76.9574393,147.634247 76.9108422,147.683062 76.7643939,147.674187 L72.3864792,147.410136 C72.2477972,147.401261 72.2000905,147.346897 72.2089662,147.200449 L72.2244986,146.95304 C72.2333742,146.807701 72.2866282,146.766651 72.4253102,146.774417 L76.8032249,147.039578 C76.9485637,147.048454 76.9896136,147.095051 76.9818474,147.23928" id="Fill-6" fill="#44484A"></path>
            <path d="M82.3205513,144.575475 L82.3072378,144.852839 C82.3005811,144.991521 82.2550934,145.040337 82.1086451,145.03368 L79.6933587,144.921626 L79.6201346,146.490397 L81.7003652,146.586919 C81.845704,146.592466 81.8878634,146.645721 81.8812066,146.792169 L81.8678932,147.061767 C81.8612364,147.208215 81.8157487,147.249265 81.6704099,147.242609 L79.5901793,147.146085 L79.5136268,148.788081 L82.0165603,148.904574 C82.1630085,148.91123 82.2040584,148.964485 82.1974017,149.103166 L82.1851976,149.380531 C82.1785409,149.519212 82.1319437,149.568029 81.986605,149.561372 L78.9655553,149.420471 C78.8268733,149.413814 78.7780572,149.360561 78.7847139,149.221879 L79.0077147,144.421261 C79.0143714,144.282579 79.0676254,144.233762 79.2063074,144.240419 L82.13971,144.375773 C82.2850487,144.383539 82.3260986,144.436793 82.3205513,144.575475" id="Fill-7" fill="#44484A"></path>
            <path d="M85.8330898,144.411276 C86.847133,144.446778 87.3741247,144.837307 87.7058523,145.593956 C87.7668726,145.727091 87.7280415,145.792549 87.5949068,145.845803 L87.2842591,145.97339 C87.1500145,146.027753 87.1000892,146.003345 87.0390689,145.870211 C86.8071927,145.38094 86.4732461,145.112452 85.8097916,145.089154 C85.0143115,145.061417 84.5816233,145.332125 84.5627622,145.871321 C84.539464,146.521462 85.2073565,146.653487 85.9340503,146.759995 C86.7994266,146.89202 87.7557776,147.115021 87.7136184,148.296592 C87.6803351,149.260709 86.9514224,149.856487 85.6378257,149.80989 C84.5427921,149.772169 83.9825171,149.328386 83.6896206,148.492965 C83.6430234,148.352064 83.6818546,148.296592 83.8227553,148.249995 L84.124527,148.150143 C84.2576625,148.111312 84.3153539,148.134611 84.3686081,148.275512 C84.5838423,148.823584 85.0043264,149.123136 85.6611247,149.146435 C86.5220623,149.175282 86.9847056,148.906793 87.0057857,148.287716 C87.0279748,147.659764 86.4188828,147.528848 85.7421143,147.424559 C84.8490026,147.299191 83.7961282,147.11613 83.8382875,145.891291 C83.8704616,144.978208 84.5705291,144.368007 85.8330898,144.411276" id="Fill-8" fill="#44484A"></path>
            <path d="M92.9236252,144.879466 L92.9180782,145.15683 C92.9147501,145.296622 92.8626058,145.346547 92.7239232,145.343219 L91.341541,145.315483 L91.2516746,149.659004 C91.2483466,149.797686 91.2028592,149.848721 91.0575196,149.845393 L90.7357779,149.838736 C90.5893292,149.835408 90.5460609,149.783264 90.549389,149.644581 L90.6403644,145.299951 L89.2568723,145.272214 C89.1115336,145.268886 89.0682644,145.216741 89.0715933,145.07695 L89.0771404,144.799585 C89.0804685,144.660903 89.1248467,144.609868 89.2712954,144.613197 L92.7383463,144.686421 C92.8770289,144.68864 92.9269542,144.740784 92.9236252,144.879466" id="Fill-9" fill="#44484A"></path>
            <path d="M94.5445415,149.526979 L94.5434316,149.58578 C94.5389944,149.863144 94.4502379,149.949682 94.1651075,149.945244 L94.1207293,149.945244 C93.8355988,149.940806 93.7490614,149.859816 93.7534994,149.573576 L93.7546084,149.514774 C93.7579365,149.237411 93.846693,149.143107 94.1329333,149.147545 L94.1762017,149.148654 C94.4613321,149.151983 94.5478696,149.248505 94.5445415,149.526979" id="Fill-10" fill="#44484A"></path>
            <path d="M100.723103,144.634266 C101.79151,144.632057 102.44387,145.376503 102.446101,146.231893 C102.448308,147.335802 101.79151,147.725222 100.483461,148.241119 C100.051883,148.409757 99.5415323,148.58616 99.5415323,149.068773 L99.5426422,149.280679 L102.197571,149.274023 C102.34291,149.274023 102.387288,149.325057 102.387288,149.464849 L102.388398,149.742214 C102.388398,149.880895 102.345129,149.93304 102.198681,149.93304 L99.0034464,149.940806 C98.8569978,149.940806 98.8048535,149.889771 98.8048535,149.743323 L98.8037444,149.209675 C98.8015254,148.222258 99.5393141,147.89164 100.284868,147.597634 C101.000468,147.318051 101.70941,147.075081 101.707191,146.262959 C101.706082,145.72931 101.303349,145.292184 100.703133,145.292184 C100.081838,145.293294 99.7312501,145.558454 99.498264,146.071023 C99.4405718,146.209704 99.3895374,146.23855 99.2575118,146.195281 L98.9424262,146.078789 C98.8104014,146.03552 98.7748983,145.970062 98.8248236,145.838036 C99.1299242,145.091373 99.700185,144.637604 100.723103,144.634266" id="Fill-11" fill="#44484A"></path>
            <path d="M105.963066,145.245586 C105.203088,145.257791 104.777057,145.660524 104.788152,146.339511 L104.819216,148.285497 C104.83142,148.957828 105.268547,149.353904 106.029634,149.34059 C106.782954,149.328386 107.207876,148.918996 107.196782,148.246666 L107.165717,146.301789 C107.153512,145.620583 106.716387,145.233382 105.963066,145.245586 Z M105.951971,144.587679 C107.151293,144.567709 107.858017,145.228945 107.874659,146.289585 L107.905724,148.235572 C107.923475,149.295102 107.238941,149.979637 106.039619,149.999607 C104.833639,150.018468 104.128025,149.357232 104.110274,148.296592 L104.07921,146.351715 C104.061458,145.291075 104.744883,144.60654 105.951971,144.587679 L105.951971,144.587679 Z" id="Fill-12" fill="#44484A"></path>
            <path d="M111.430466,145.141298 C110.671599,145.161268 110.252224,145.568439 110.271085,146.246317 L110.325449,148.186756 C110.3432,148.857977 110.785873,149.247396 111.544741,149.226316 C112.295843,149.206346 112.715217,148.792519 112.696357,148.121297 L112.643103,146.179749 C112.624242,145.501872 112.182678,145.119109 111.430466,145.141298 Z M111.412715,144.4845 C112.608709,144.451216 113.32098,145.103577 113.349826,146.160888 L113.40419,148.101327 C113.433036,149.159749 112.759595,149.849831 111.562492,149.883114 C110.358732,149.916398 109.646461,149.265147 109.617615,148.206726 L109.563252,146.265178 C109.533297,145.207865 110.207846,144.516674 111.412715,144.4845 L111.412715,144.4845 Z" id="Fill-13" fill="#44484A"></path>
            <path d="M117.986244,146.834329 C118.527659,147.024046 118.796147,147.480032 118.819446,148.049183 C118.858278,148.983346 118.300221,149.635706 117.060957,149.68674 C115.943736,149.733338 115.377913,149.303978 115.073921,148.512936 C115.025106,148.376473 115.051732,148.316562 115.188196,148.25887 L115.482201,148.137939 C115.619774,148.088014 115.678575,148.114641 115.736267,148.251104 C115.941517,148.79141 116.237741,149.063226 117.033221,149.031052 C117.784323,148.998878 118.104957,148.634976 118.081658,148.072482 C118.058359,147.525519 117.746602,147.224857 117.170794,147.248156 L116.244398,147.286987 C116.097949,147.292534 116.052462,147.251484 116.045805,147.105036 L116.03582,146.849861 C116.029163,146.704522 116.071323,146.659035 116.217771,146.652378 L117.042097,146.617984 C117.589059,146.594685 117.87308,146.23966 117.854219,145.780345 C117.83092,145.210084 117.489208,144.918297 116.847942,144.944924 C116.09573,144.975989 115.837227,145.257791 115.677466,145.812519 C115.631978,145.95342 115.575396,145.970062 115.434495,145.938997 L115.130504,145.843584 C114.990713,145.803643 114.958538,145.740404 114.997369,145.607269 C115.233683,144.792929 115.740705,144.333614 116.834629,144.287016 C117.907473,144.242638 118.514346,144.772958 118.552067,145.684932 C118.573147,146.173092 118.407838,146.612437 117.986244,146.834329" id="Fill-14" fill="#44484A"></path>
            <path d="M125.207695,147.070643 L125.222118,147.319161 C125.230994,147.4645 125.189944,147.517753 125.044606,147.526629 L120.666691,147.780694 C120.528009,147.788461 120.473646,147.740754 120.46477,147.594306 L120.451457,147.345787 C120.442581,147.200449 120.491397,147.153852 120.630079,147.144976 L125.007993,146.89202 C125.153332,146.883145 125.199929,146.924194 125.207695,147.070643" id="Fill-15" fill="#44484A"></path>
            <path d="M189.394184,131.106676 L189.394184,131.384039 C189.394184,131.523831 189.343148,131.574866 189.204467,131.574866 L187.822084,131.574866 L187.822084,135.919496 C187.822084,136.058179 187.777705,136.109213 187.631257,136.109213 L187.309515,136.109213 C187.164176,136.109213 187.119798,136.058179 187.119798,135.919496 L187.119798,131.574866 L185.737415,131.574866 C185.592076,131.574866 185.547698,131.523831 185.547698,131.384039 L185.547698,131.106676 C185.547698,130.967993 185.592076,130.915849 185.737415,130.915849 L189.204467,130.915849 C189.343148,130.915849 189.394184,130.967993 189.394184,131.106676" id="Fill-16" fill="#44484A"></path>
            <path d="M195.424079,131.106676 L195.424079,135.919496 C195.424079,136.058179 195.371934,136.109213 195.233252,136.109213 L194.940355,136.109213 C194.793907,136.109213 194.750638,136.058179 194.750638,135.919496 L194.750638,133.278991 C194.750638,132.869602 194.793907,132.415833 194.882664,131.904375 L194.846052,131.904375 C194.662992,132.394754 194.479931,132.745342 194.261369,133.133652 L193.331644,134.785633 C193.272843,134.888812 193.221807,134.925424 193.105315,134.925424 L192.922255,134.925424 C192.805761,134.925424 192.761383,134.894359 192.695926,134.785633 L191.751778,133.11812 C191.525449,132.72981 191.379001,132.415833 191.203707,131.904375 L191.160438,131.904375 C191.248085,132.4236 191.27693,132.847413 191.27693,133.278991 L191.27693,135.919496 C191.27693,136.058179 191.233662,136.109213 191.087213,136.109213 L190.80874,136.109213 C190.670058,136.109213 190.619023,136.058179 190.619023,135.919496 L190.619023,131.106676 C190.619023,130.967993 190.670058,130.915849 190.80874,130.915849 L191.065024,130.915849 C191.225896,130.915849 191.270274,130.946914 191.335732,131.063406 L193.017667,134.054501 L194.692947,131.070063 C194.758404,130.946914 194.801673,130.915849 194.955888,130.915849 L195.233252,130.915849 C195.371934,130.915849 195.424079,130.967993 195.424079,131.106676" id="Fill-17" fill="#44484A"></path>
            <path d="M88.4880193,4.8871552 C89.5220326,6.70000687 91.0286744,7.5986665 92.513127,8.55058001 C89.5242516,8.22994717 86.7617054,7.33128753 84.2498956,5.54617227 C84.1555921,7.94814525 86.887074,11.0535136 89.7894111,11.8833869 C89.4388232,11.181101 89.1392698,10.5808852 88.7642738,9.82645486 C92.6074305,11.7569089 96.5393438,10.3279291 100.258242,11.1511457 C100.298182,11.0279961 100.337013,10.9059558 100.375844,10.7828062 C98.6661717,9.93961936 96.9553899,9.09532311 95.2457181,8.25213629 C99.3440493,8.31981313 103.354734,8.7070134 107.020378,10.8271845 C106.284808,10.0250475 105.518174,9.3094482 104.666112,8.71367014 C102.175382,6.97182367 99.2674968,6.78876337 96.3662689,6.52582222 C94.4069688,6.34941866 92.4565447,6.03100469 90.5161057,5.69705833 C89.8981385,5.59055052 89.3234397,5.22997721 88.4880193,4.8871552 Z M122.205507,14.9998498 C122.719185,15.6743993 123.085305,16.1547938 123.451426,16.6351884 C123.798686,17.0312643 124.145946,17.4273403 124.493206,17.8223067 C125.503921,18.4491495 126.513526,19.074883 127.604122,19.7505418 C126.621144,21.1540042 125.0557,22.1735945 123.182938,23.0711447 C125.064576,23.67247 126.72987,24.2038996 128.582662,24.7952399 C125.274264,27.4534973 124.23914,27.4534973 120.763213,28.9279648 C122.192194,28.5296699 124.461031,28.9279648 125.865604,30.3491783 C125.682543,31.6705408 121.299081,30.6775774 118.841636,32.8876144 C108.636856,50.9506732 105.635777,46.926675 94.4169539,48.9336815 C90.8367384,49.5749473 90.922166,54.7782976 91.4613626,54.5541874 C86.0804989,53.1485062 81.6282506,51.2213805 79.1053469,45.3545754 C78.223329,43.3020811 77.8738503,41.2728855 78.8657042,39.1560428 C79.2007601,38.4426623 79.3350043,37.6205552 79.7388464,36.9548814 C81.1489654,34.6261325 81.7158976,32.033333 82.215153,29.417235 C82.2883771,29.0344725 82.6489504,28.5085902 82.8664038,27.6964682 C83.5054507,25.2567737 87.9710127,24.5955377 87.2565229,23.3729168 C86.5708785,22.199112 85.5313181,21.5001545 84.8734107,20.9021576 C84.6859119,20.6281218 84.5583251,20.4106683 84.4030013,20.2165135 C82.8153689,18.2239299 83.4888087,15.8818675 85.9107521,14.9920836 C87.266508,14.4928283 87.3585925,14.3963055 87.9721217,12.7742803 C82.9240956,10.0816298 81.1278858,5.8579295 82.2495461,0 C83.6774166,1.96151881 84.8423456,3.80987309 86.9303424,4.93264291 C85.3427102,-0.370558419 85.6111986,1.22816817 87.850082,2.3786744 C94.6000139,5.84461603 107.707131,-0.214125075 113.494056,8.68926211 C114.070973,7.01287356 113.758106,5.52287368 113.610549,4.02066979 C115.122737,5.55061009 115.767332,7.42226294 115.836118,9.51247874 C120.308336,9.19961204 120.255083,9.01322338 118.220339,10.4777057 L122.205507,14.9998498 Z M86.0804989,17.5937587 C85.4580938,18.7009961 85.8097916,19.3755456 87.2565229,19.8459551 C87.7280415,19.9713237 88.1940129,20.1710258 88.6721892,20.2076379 C89.9491729,20.3041606 91.2339235,20.3041606 92.5120171,20.392917 C93.8455839,20.4861114 95.0449061,20.9498642 95.7871328,22.1170122 C96.023447,22.4875706 95.9468938,23.0589407 96.0123521,23.5382258 C95.6950475,23.1965133 95.3777428,22.8548007 95.027155,22.478695 C94.7198354,23.1532444 94.5634017,23.7401469 94.2205799,24.1817105 C93.855569,24.6487916 93.3130451,24.9760812 92.7971475,25.4087692 C93.1266562,25.6938995 93.4395228,25.9646068 93.8145188,26.2885681 C93.5393743,26.3185234 93.3796125,26.3351652 93.2198507,26.3529165 C92.496485,26.0489255 91.7986365,25.6362077 91.0453164,25.4697893 C90.176612,25.2778534 89.2613103,25.2878384 88.3648697,25.2567737 C88.2750033,25.2534453 88.1751527,25.5707499 88.0797392,25.7404967 C88.1718238,25.9801392 88.2650182,26.2208912 88.3559937,26.4572054 C87.9366195,26.5570566 87.6026728,26.635828 87.2698361,26.7145994 C84.8645347,27.0074958 83.6352573,28.5085902 83.8094414,31.1424396 C84.4340655,30.6221046 84.9765902,30.1694464 85.5191141,29.7178976 C85.9706624,29.456066 86.4077886,29.1631695 86.8770881,28.9401687 C87.8079228,28.4974956 88.1773717,28.7116207 88.3992629,29.7755894 C88.1196795,29.6801761 87.840097,29.5836534 87.5682797,29.4915686 C86.678496,31.4896994 86.3489873,31.8780091 84.3053688,33.3702279 C83.0350412,33.8029159 82.2950339,34.6938093 81.9022863,35.9674653 C81.5084293,37.2422306 80.9880943,38.4770555 80.5676103,39.7440546 C80.4122864,40.2111357 80.3812216,40.7203762 80.2935746,41.2096465 C81.5006631,41.2506964 82.7077516,41.2917463 83.9137308,41.3327961 C84.9776993,41.3849406 86.0416678,41.437085 87.1056363,41.48812 L87.0956512,41.6867127 C85.898548,41.8353799 84.7025539,41.9851565 83.5054507,42.1338236 C82.8530904,42.2181423 82.1996206,42.3013515 81.5472602,42.3856702 C81.0402387,42.4245012 80.5332171,42.4644416 79.8475732,42.5176955 C81.019159,46.2177324 82.876389,49.0701447 86.48656,50.4802637 C86.9214672,50.6322592 87.3563736,50.7853641 87.8278929,50.9506732 C87.4861802,49.6903308 87.1888457,48.5975163 86.8926211,47.5035923 C90.3030897,48.0394597 92.8659339,46.5738679 94.8673932,43.9866157 C96.0733723,42.4267201 97.1495449,40.7614261 98.2090754,39.0961322 C98.3921363,38.806564 98.3677281,38.133124 98.153603,37.8846058 C96.9576089,36.4966759 95.6728583,35.1852986 94.4191729,33.8472942 C93.9287933,33.4667506 93.4184428,33.1095057 92.9513623,32.7012258 C91.9883543,31.8591484 91.0375495,31.6971678 90.0567904,32.657957 C90.1877061,32.3317768 90.2942137,31.9922831 90.4539755,31.6816354 C91.0830377,30.4645618 91.2760827,29.1964531 90.9232759,27.866215 C90.8001262,27.4024623 90.6215034,26.9531324 90.4672895,26.4971459 C91.1762321,26.9697743 91.8785178,27.4534973 92.5963364,27.9105932 C92.8481828,28.070355 93.1399693,28.1657682 93.4128957,28.2900274 C95.4365441,27.8229462 96.8633054,26.5448525 97.8862237,24.8251952 C98.3555241,24.0374812 98.8314806,23.9320828 99.5603933,24.333706 C100.07851,24.6199458 100.623253,24.8618072 101.123617,25.1768929 C101.713848,25.5485607 102.268576,25.9779203 102.839946,26.3817625 L103.075151,26.2441898 C102.897638,25.5618741 102.807772,24.8407275 102.525971,24.2038996 C101.509708,21.9084344 99.7767374,20.2020906 97.7697311,18.7731108 C97.0341613,18.2505569 96.1809899,17.893312 95.3810718,17.4595145 C94.2006098,16.9946523 93.0201486,16.5286806 91.8396866,16.062709 C89.6806845,15.6699614 87.6548171,15.780907 86.0804989,17.5937587 Z M109.242619,23.3729168 C109.841725,23.825575 110.441941,24.2782332 111.234093,24.8762302 C111.129804,24.333706 111.126476,24.0607797 111.025515,23.8300128 C110.402001,22.403252 110.800296,21.1717554 111.695627,20.0123736 C112.511077,18.9572806 113.308776,17.8866552 114.115351,16.823796 L114.331695,16.9857766 C114.234063,17.3230513 114.136431,17.6603261 114.038799,17.9976008 C114.276222,18.0697155 114.509208,18.1573625 114.74996,18.2117259 C115.931532,18.476886 116.762514,19.6739893 116.570578,20.8988291 C115.884934,20.1632596 115.173773,19.5153371 114.112023,19.6961785 C114.586871,20.4639223 115.161569,21.1528947 115.468888,21.9450465 C116.077979,23.5138178 115.695217,24.4457611 114.371636,25.109216 C113.58725,25.2756345 112.802864,25.4431623 111.850951,25.6450834 C112.561003,26.1698563 113.132373,26.5981064 113.70929,27.0196998 C115.002917,27.968285 117.181889,27.2782032 117.755478,25.7404967 C118.773958,23.8133709 119.346438,21.7730807 119.32203,19.5807951 C119.044666,17.7812568 117.681144,16.8459852 116.369767,15.8685541 C114.624592,14.6858737 113.151233,14.7590977 111.625731,16.4310485 C110.060288,18.1473774 108.697876,20.0500951 107.181249,21.9528127 C107.95565,22.4864612 108.599134,22.9302437 109.242619,23.3729168 L109.242619,23.3729168 Z" id="Fill-18" fill="#1B1A18"></path>
            <path d="M83.5054507,42.1338236 C84.7025539,41.9851565 85.898548,41.8353799 87.0956512,41.6867127 L87.1056363,41.48812 C86.0416678,41.437085 84.9776993,41.3849406 83.9137308,41.3327961 C85.2339836,41.0543226 86.5697694,40.8335407 87.8711612,40.484062 C90.0656664,39.8960502 90.4939166,39.3002721 90.6104092,37.0070258 C90.6126282,36.9715232 90.7047128,36.939349 90.8356285,36.8528114 C91.2339235,37.6416349 91.6288904,38.4215827 92.0782198,39.3113667 C92.3777733,39.0561917 92.6274007,38.8620369 92.8548397,38.6445834 C94.2350029,37.3276587 94.5989048,35.6756782 94.4191729,33.8472942 C95.6728583,35.1852986 96.9576089,36.4966759 98.153603,37.8846058 C98.3677281,38.133124 98.3921363,38.806564 98.2090754,39.0961322 C97.1495449,40.7614261 96.0733723,42.4267201 94.8673932,43.9866157 C92.8659339,46.5738679 90.3030897,48.0394597 86.8926211,47.5035923 C86.0804989,45.9991695 85.2905659,44.4814332 84.4373944,42.9991996 C84.2354734,42.6486114 83.8216454,42.4189539 83.5054507,42.1338236" id="Fill-19" fill="#868C8D"></path>
            <path d="M94.4191729,33.8472942 C94.5989048,35.6756782 94.2350029,37.3276587 92.8548397,38.6445834 C92.6274007,38.8620369 92.3777733,39.0561917 92.0782198,39.3113667 C91.6288904,38.4215827 91.2339235,37.6416349 90.8356285,36.8528114 C90.7047128,36.939349 90.6126282,36.9715232 90.6104092,37.0070258 C90.4939166,39.3002721 90.0656664,39.8960502 87.8711612,40.484062 C86.5697694,40.8335407 85.2339836,41.0543226 83.9137308,41.3327961 C82.7077516,41.2917463 81.5006631,41.2506964 80.2935746,41.2096465 C80.7872826,41.1907858 81.2809908,41.1486264 81.7735894,41.1608304 C82.3726958,41.1752533 82.8320107,40.9844268 82.9607076,40.3631313 C83.1448774,39.4655811 83.7883621,39.3002721 84.5594341,39.1948738 C85.3382722,39.0894754 86.1215491,38.935261 86.868213,38.6945089 C88.6311391,38.1275767 89.1115336,37.4019923 89.0738123,35.5525286 C89.0494042,34.2955146 88.8463733,34.157942 87.6548171,34.6194758 C86.5620025,35.0421786 85.4747358,35.4793045 84.3053688,35.9419478 C84.3053688,34.9767207 84.3053688,34.1734743 84.3053688,33.3702279 C86.3489873,31.8780091 86.678496,31.4896994 87.5682797,29.4915686 C87.840097,29.5836534 88.1196795,29.6801761 88.3992629,29.7755894 C88.1773717,28.7116207 87.8079228,28.4974956 86.8770881,28.9401687 C86.4077886,29.1631695 85.9706624,29.456066 85.5191141,29.7178976 C86.1026881,28.7160586 86.6862621,27.7153289 87.2698361,26.7145994 C87.6026728,26.635828 87.9366195,26.5570566 88.3559937,26.4572054 C88.2650182,26.2208912 88.1718238,25.9801392 88.0797392,25.7404967 C88.9096125,25.8192681 89.7428139,25.8825071 90.570469,25.9812487 C91.4558147,26.0877565 92.3367232,26.227548 93.2198507,26.3529165 C93.3796125,26.3351652 93.5393743,26.3185234 93.8145188,26.2885681 C93.4395228,25.9646068 93.1266562,25.6938995 92.7971475,25.4087692 C93.3130451,24.9760812 93.855569,24.6487916 94.2205799,24.1817105 C94.5634017,23.7401469 94.7198354,23.1532444 95.027155,22.478695 C95.3777428,22.8548007 95.6950475,23.1965133 96.0123521,23.5382258 C96.3873481,24.3448006 96.1931931,25.12142 95.6972665,25.7549196 C94.9971998,26.6480319 94.1795306,27.4490594 93.4128957,28.2900274 C93.1399693,28.1657682 92.8481828,28.070355 92.5963364,27.9105932 C91.8785178,27.4534973 91.1762321,26.9697743 90.4672895,26.4971459 C90.3419209,26.7589776 90.1056066,27.0230282 90.1089347,27.2837504 C90.1455469,29.8177487 89.0826875,31.8402876 87.2742741,33.5244424 C87.1023082,33.6842041 86.8560089,33.7651944 86.6452119,33.8827968 C86.7317494,33.9881951 86.8193968,34.0947029 86.9070442,34.2012107 C87.9576987,33.686423 89.007245,33.1727447 90.0567904,32.657957 C91.0375495,31.6971678 91.9883543,31.8591484 92.9513623,32.7012258 C93.4184428,33.1095057 93.9287933,33.4667506 94.4191729,33.8472942" id="Fill-20" fill="#C3C5C3"></path>
            <path d="M88.4880193,4.8871552 C89.3234397,5.22997721 89.8981385,5.59055052 90.5161057,5.69705833 C92.4565447,6.03100469 94.4069688,6.34941866 96.3662689,6.52582222 C99.2674968,6.78876337 102.175382,6.97182367 104.666112,8.71367014 C105.518174,9.3094482 106.284808,10.0250475 107.020378,10.8271845 C103.354734,8.7070134 99.3440493,8.31981313 95.2457181,8.25213629 C96.9553899,9.09532311 98.6661717,9.93961936 100.375844,10.7828062 C100.337013,10.9059558 100.298182,11.0279961 100.258242,11.1511457 C96.5393438,10.3279291 92.6074305,11.7569089 88.7642738,9.82645486 C89.1392698,10.5808852 89.4388232,11.181101 89.7894111,11.8833869 C86.887074,11.0535136 84.1555921,7.94814525 84.2498956,5.54617227 C86.7617054,7.33128753 89.5242516,8.22994717 92.513127,8.55058001 C91.0286744,7.5986665 89.5220326,6.70000687 88.4880193,4.8871552" id="Fill-21" fill="#868C8D"></path>
            <path d="M93.4128957,28.2900274 C94.1795306,27.4490594 94.9971998,26.6480319 95.6972665,25.7549196 C96.1931931,25.12142 96.3873481,24.3448006 96.0123521,23.5382258 C95.9468938,23.0589407 96.023447,22.4875706 95.7871328,22.1170122 C95.0449061,20.9498642 93.8455839,20.4861114 92.5120171,20.392917 C91.2339235,20.3041606 89.9491729,20.3041606 88.6721892,20.2076379 C88.1940129,20.1710258 87.7280415,19.9713237 87.2565229,19.8459551 C89.4654503,19.5530586 91.6810347,19.301212 93.8810862,18.9472955 C94.647721,18.8241458 95.4676092,18.5434533 95.3810718,17.4595145 C96.1809899,17.893312 97.0341613,18.2505569 97.7697311,18.7731108 C99.7767374,20.2020906 101.509708,21.9084344 102.525971,24.2038996 C102.807772,24.8407275 102.897638,25.5618741 103.075151,26.2441898 L102.839946,26.3817625 C102.268576,25.9779203 101.713848,25.5485607 101.123617,25.1768929 C100.623253,24.8618072 100.07851,24.6199458 99.5603933,24.333706 C98.8314806,23.9320828 98.3555241,24.0374812 97.8862237,24.8251952 C96.8633054,26.5448525 95.4365441,27.8229462 93.4128957,28.2900274" id="Fill-22" fill="#868C8D"></path>
            <path d="M84.3053688,33.3702279 C84.3053688,34.1734743 84.3053688,34.9767207 84.3053688,35.9419478 C85.4747358,35.4793045 86.5620025,35.0421786 87.6548171,34.6194758 C88.8463733,34.157942 89.0494042,34.2955146 89.0738123,35.5525286 C89.1115336,37.4019923 88.6311391,38.1275767 86.868213,38.6945089 C86.1215491,38.935261 85.3382722,39.0894754 84.5594341,39.1948738 C83.7883621,39.3002721 83.1448774,39.4655811 82.9607076,40.3631313 C82.8320107,40.9844268 82.3726958,41.1752533 81.7735894,41.1608304 C81.2809908,41.1486264 80.7872826,41.1907858 80.2935746,41.2096465 C80.3812216,40.7203762 80.4122864,40.2111357 80.5676103,39.7440546 C80.9880943,38.4770555 81.5084293,37.2422306 81.9022863,35.9674653 C82.2950339,34.6938093 83.0350412,33.8029159 84.3053688,33.3702279" id="Fill-23" fill="#FFFFFE"></path>
            <path d="M119.32203,19.5807951 C119.346438,21.7730807 118.773958,23.8133709 117.755478,25.7404967 C116.504011,26.1898265 115.461122,25.5263716 114.371636,25.109216 C115.695217,24.4457611 116.077979,23.5138178 115.468888,21.9450465 C115.161569,21.1528947 114.586871,20.4639223 114.112023,19.6961785 C115.173773,19.5153371 115.884934,20.1632596 116.570578,20.8988291 C116.762514,19.6739893 115.931532,18.476886 114.74996,18.2117259 C114.509208,18.1573625 114.276222,18.0697155 114.038799,17.9976008 C114.945225,17.8966403 115.861635,17.6636545 116.755858,17.7268935 C117.923006,17.8101027 118.603102,18.7675636 119.32203,19.5807951" id="Fill-24" fill="#868C8D"></path>
            <path d="M83.5054507,42.1338236 C83.8216454,42.4189539 84.2354734,42.6486114 84.4373944,42.9991996 C85.2905659,44.4814332 86.0804989,45.9991695 86.8926211,47.5035923 C87.1888457,48.5975163 87.4861802,49.6903308 87.8278929,50.9506732 C87.3563736,50.7853641 86.9214672,50.6322592 86.48656,50.4802637 C86.2136336,50.1374417 85.9884144,49.7358184 85.6577958,49.4606733 C83.4178033,47.6012245 82.0831277,45.2280973 81.5472602,42.3856702 C82.1996206,42.3013515 82.8530904,42.2181423 83.5054507,42.1338236" id="Fill-25" fill="#C3C5C3"></path>
            <path d="M95.3810718,17.4595145 C95.4676092,18.5434533 94.647721,18.8241458 93.8810862,18.9472955 C91.6810347,19.301212 89.4654503,19.5530586 87.2565229,19.8459551 C85.8097916,19.3755456 85.4580938,18.7009961 86.0804989,17.5937587 C86.3656294,17.791242 86.6318988,18.1163126 86.9403274,18.1651288 C88.3970439,18.3903483 89.8304613,18.209507 91.0719427,17.3896188 C91.4535957,17.1377722 91.5911684,16.5153672 91.8396866,16.062709 C93.0201486,16.5286806 94.2006098,16.9946523 95.3810718,17.4595145" id="Fill-26" fill="#C3C5C3"></path>
            <path d="M119.32203,19.5807951 C118.603102,18.7675636 117.923006,17.8101027 116.755858,17.7268935 C115.861635,17.6636545 114.945225,17.8966403 114.038799,17.9976008 C114.136431,17.6603261 114.234063,17.3230513 114.331695,16.9857766 L114.115351,16.823796 C113.308776,17.8866552 112.511077,18.9572806 111.695627,20.0123736 C110.800296,21.1717554 110.402001,22.403252 111.025515,23.8300128 C111.126476,24.0607797 111.129804,24.333706 111.234093,24.8762302 C110.441941,24.2782332 109.841725,23.825575 109.242619,23.3729168 C109.948233,21.8862453 110.612797,20.3773847 111.369447,18.9173401 C112.409007,16.9092241 113.880147,15.5323888 116.369767,15.8685541 C117.681144,16.8459852 119.044666,17.7812568 119.32203,19.5807951" id="Fill-27" fill="#C3C5C3"></path>
            <path d="M116.369767,15.8685541 C113.880147,15.5323888 112.409007,16.9092241 111.369447,18.9173401 C110.612797,20.3773847 109.948233,21.8862453 109.242619,23.3729168 C108.599134,22.9302437 107.95565,22.4864612 107.181249,21.9528127 C108.697876,20.0500951 110.060288,18.1473774 111.625731,16.4310485 C113.151233,14.7590977 114.624592,14.6858737 116.369767,15.8685541" id="Fill-28" fill="#FFFFFE"></path>
            <path d="M81.5472602,42.3856702 C82.0831277,45.2280973 83.4178033,47.6012245 85.6577958,49.4606733 C85.9884144,49.7358184 86.2136336,50.1374417 86.48656,50.4802637 C82.876389,49.0701447 81.019159,46.2177324 79.8475732,42.5176955 C80.5332171,42.4644416 81.0402387,42.4245012 81.5472602,42.3856702" id="Fill-29" fill="#FFFFFE"></path>
            <path d="M91.8396866,16.062709 C91.5911684,16.5153672 91.4535957,17.1377722 91.0719427,17.3896188 C89.8304613,18.209507 88.3970439,18.3903483 86.9403274,18.1651288 C86.6318988,18.1163126 86.3656294,17.791242 86.0804989,17.5937587 C87.6548171,15.780907 89.6806845,15.6699614 91.8396866,16.062709" id="Fill-30" fill="#FFFFFE"></path>
            <path d="M90.0567904,32.657957 C89.007245,33.1727447 87.9576987,33.686423 86.9070442,34.2012107 C86.8193968,34.0947029 86.7317494,33.9881951 86.6452119,33.8827968 C86.8560089,33.7651944 87.1023082,33.6842041 87.2742741,33.5244424 C89.0826875,31.8402876 90.1455469,29.8177487 90.1089347,27.2837504 C90.1056066,27.0230282 90.3419209,26.7589776 90.4672895,26.4971459 C90.6215034,26.9531324 90.8001262,27.4024623 90.9232759,27.866215 C91.2760827,29.1964531 91.0830377,30.4645618 90.4539755,31.6816354 C90.2942137,31.9922831 90.1877061,32.3317768 90.0567904,32.657957" id="Fill-31" fill="#868C8D"></path>
            <path d="M114.371636,25.109216 C115.461122,25.5263716 116.504011,26.1898265 117.755478,25.7404967 C117.181889,27.2782032 115.002917,27.968285 113.70929,27.0196998 C113.132373,26.5981064 112.561003,26.1698563 111.850951,25.6450834 C112.802864,25.4431623 113.58725,25.2756345 114.371636,25.109216" id="Fill-32" fill="#C3C5C3"></path>
            <path d="M87.2698361,26.7145994 C86.6862621,27.7153289 86.1026881,28.7160586 85.5191141,29.7178976 C84.9765902,30.1694464 84.4340655,30.6221046 83.8094414,31.1424396 C83.6352573,28.5085902 84.8645347,27.0074958 87.2698361,26.7145994" id="Fill-33" fill="#FFFFFE"></path>
            <path d="M93.2198507,26.3529165 C92.3367232,26.227548 91.4558147,26.0877565 90.570469,25.9812487 C89.7428139,25.8825071 88.9096125,25.8192681 88.0797392,25.7404967 C88.1751527,25.5707499 88.2750033,25.2534453 88.3648697,25.2567737 C89.2613103,25.2878384 90.176612,25.2778534 91.0453164,25.4697893 C91.7986365,25.6362077 92.496485,26.0489255 93.2198507,26.3529165" id="Fill-34" fill="#FFFFFE"></path>
            <path d="M164.182897,135.11625 C119.916698,140.165386 76.2307455,140.165386 31.9667657,135.11625 C32.4904291,128.964315 32.7522607,125.888902 33.2759241,119.736966 C76.662324,124.686252 119.48512,124.686252 162.873739,119.736966 C163.397402,125.888902 163.658124,128.964315 164.182897,135.11625" id="Fill-35" stroke="#4A4F54" fill="#44484A"></path>
            <path d="M38.5735782,128.611508 L38.5680309,128.68806 C38.5358567,129.106325 38.3894084,129.218381 37.9733623,129.170674 L37.9123422,129.162908 C37.5040623,129.11631 37.3786937,128.972081 37.4108679,128.553816 L37.4175247,128.477264 C37.4496989,128.067874 37.5961472,127.946943 38.0044271,127.99465 L38.0643378,128.001307 C38.4803838,128.049014 38.6057525,128.201009 38.5735782,128.611508" id="Fill-36" fill="#FFFFFE"></path>
            <path d="M45.8915523,126.766482 L45.8316416,126.760934 C45.8305321,126.768701 45.7883728,127.272394 45.5742477,127.774978 C45.2635999,128.472826 45.1071666,128.821195 44.7954094,129.519043 C45.4965858,129.590049 45.847174,129.625551 46.5494598,129.695446 C46.3386632,128.948783 46.2343742,128.576006 46.024687,127.828232 C45.8815671,127.28127 45.8993184,126.776467 45.8915523,126.766482 Z M48.0660866,132.095201 C47.8885736,132.078559 47.7998172,132.069684 47.6223042,132.053042 C47.2628403,132.018648 47.1640987,131.956519 47.1086258,131.744613 C46.9810384,131.288626 46.9166899,131.061187 46.7891025,130.605201 C45.8482834,130.512007 45.377874,130.4643 44.4359456,130.367777 C44.2451191,130.79159 44.1497058,131.003496 43.9588793,131.427308 C43.8756701,131.624791 43.7702717,131.665841 43.4108079,131.628119 C43.2543745,131.612587 43.1756031,131.603711 43.0180603,131.58707 C42.8050447,131.564881 42.7606664,131.46503 42.8416568,131.284189 C43.853481,129.155142 44.3571742,128.090063 45.3567943,125.955469 C45.4466603,125.766862 45.5343073,125.733578 45.7295716,125.752439 C45.9093035,125.771299 45.9991695,125.780175 46.1789014,125.797926 C46.3730563,125.817897 46.4640317,125.870042 46.5195046,126.064196 C47.2173526,128.372975 47.5701597,129.5257 48.2802117,131.832259 C48.336794,132.026414 48.2802117,132.116281 48.0660866,132.095201 L48.0660866,132.095201 Z" id="Fill-37" fill="#FFFFFE"></path>
            <path d="M55.1421993,126.918477 C55.0190496,129.114091 54.9580295,130.212453 54.8348799,132.408067 C54.8237853,132.621083 54.7505611,132.693198 54.5286699,132.674337 C54.3334056,132.658805 54.2357734,132.649929 54.0405091,132.633287 C53.8951703,132.621083 53.8297124,132.581142 53.7675829,132.46465 C52.999839,131.155491 52.6181861,130.499803 51.8582085,129.188425 C51.4943068,128.554926 51.2790723,127.745022 51.2480075,127.690659 L51.1969725,127.686221 C51.1925346,127.753898 51.3301072,128.591538 51.2801817,129.40366 C51.2147238,130.476504 51.1825496,131.013481 51.1170916,132.087435 C51.1048876,132.30045 51.0227879,132.370346 50.8097723,132.351485 C50.6278214,132.334843 50.5379555,132.327077 50.3560046,132.310435 C50.1341133,132.289356 50.0619986,132.205037 50.0753121,131.992021 C50.2117753,129.797517 50.2794521,128.700264 50.4159152,126.50576 C50.4292287,126.292744 50.510219,126.222848 50.7310009,126.242819 C50.9240462,126.26057 51.0205689,126.269446 51.2136143,126.287197 C51.3667193,126.30051 51.4310678,126.358202 51.4854311,126.449178 C52.2354236,127.753898 52.6115293,128.405149 53.3681785,129.707651 C53.765364,130.394404 53.9628472,131.149944 54.0016781,131.220949 L54.0527131,131.225387 C54.057151,131.139959 53.914031,130.346698 53.9639566,129.48354 C54.0238673,128.4229 54.0549321,127.89258 54.1148427,126.83305 C54.1270467,126.620034 54.208037,126.549028 54.4199431,126.56678 C54.5996751,126.582312 54.689541,126.588969 54.869273,126.604501 C55.0900548,126.622253 55.1532938,126.705462 55.1421993,126.918477" id="Fill-38" fill="#FFFFFE"></path>
            <path d="M61.5271205,127.407748 C61.5193543,127.576385 61.5149165,127.659594 61.5071503,127.827122 C61.4971652,128.041247 61.4172843,128.113362 61.2042687,128.097829 C60.6195852,128.05678 60.3277982,128.034591 59.7420052,127.992432 C59.646592,129.905134 59.5988854,130.861485 59.5045816,132.774188 C59.493487,132.987203 59.4124967,133.059319 59.1983716,133.042677 C59.0008884,133.028254 58.9010373,133.020487 58.7024447,133.006064 C58.4883196,132.989422 58.4162049,132.906213 58.4272995,132.693198 C58.5249317,130.780495 58.5737477,129.824144 58.6713799,127.911441 C58.0866964,127.867063 57.7949094,127.844874 57.2102259,127.798277 C56.9894441,127.781635 56.9250956,127.699535 56.9361902,127.48541 C56.9450658,127.317882 56.9506131,127.233563 56.9583793,127.066035 C56.9705833,126.85302 57.0426979,126.780904 57.2634798,126.798656 C58.858878,126.924025 59.6565771,126.983935 61.2530848,127.0971 C61.464991,127.111523 61.5371057,127.194732 61.5271205,127.407748" id="Fill-39" fill="#FFFFFE"></path>
            <path d="M63.6472916,127.2613 C63.8414464,127.274613 63.9379691,127.28016 64.132124,127.293474 C64.3440302,127.306787 64.4172543,127.388887 64.4072692,127.603012 C64.3118559,129.800845 64.2630399,130.899207 64.1676266,133.09704 C64.1576415,133.311165 64.0766512,133.383279 63.8636355,133.368856 C63.6683712,133.355543 63.5707391,133.349996 63.3754748,133.336682 C63.1524741,133.322259 63.0792499,133.239051 63.089235,133.026035 C63.1879767,130.828201 63.2379022,129.72984 63.3366438,127.532007 C63.3466289,127.318991 63.4265098,127.246877 63.6472916,127.2613" id="Fill-40" fill="#FFFFFE"></path>
            <path d="M75.36426,128.197681 C75.2999116,130.396623 75.2666279,131.496095 75.2022794,133.696146 C75.1956227,133.909162 75.1246175,133.983495 74.9027262,133.97351 C74.7274321,133.965744 74.6397851,133.962415 74.4656004,133.954649 C74.2425996,133.944664 74.1760323,133.863674 74.182689,133.650659 C74.2148633,132.60555 74.2315051,132.082997 74.2636794,131.037889 C74.2781023,130.550838 74.3557642,129.996109 74.5210732,129.343749 L74.4600532,129.340421 C74.2281768,129.97392 74.0018477,130.392185 73.713389,130.875908 C73.3594724,131.452825 73.1830689,131.741284 72.8280429,132.317092 C72.7293013,132.466869 72.6594055,132.514575 72.4885492,132.506809 C72.378713,132.501262 72.3243497,132.497934 72.2145135,132.492386 C72.0347816,132.483511 71.9759804,132.446899 71.8883333,132.270495 C71.566591,131.658075 71.4057198,131.350756 71.0861964,130.737226 C70.8121607,130.225767 70.6634935,129.840785 70.484871,129.145157 L70.4249604,129.141828 C70.5370155,129.817487 70.5614235,130.324509 70.5425628,130.863704 C70.5048412,131.905484 70.4870899,132.425819 70.4493684,133.466489 C70.4416023,133.680614 70.370597,133.753838 70.1475963,133.741634 C69.9833967,133.732758 69.901297,133.72832 69.7370975,133.719445 C69.5140967,133.70835 69.4397631,133.626251 69.4475294,133.412126 C69.5296291,131.214292 69.5695696,130.114821 69.6516693,127.915878 C69.6594356,127.702863 69.738207,127.629639 69.9589887,127.641843 C70.1087654,127.649609 70.1830989,127.654047 70.3328755,127.661813 C70.5714086,127.674017 70.6457422,127.720614 70.7333893,127.905893 C71.3946253,129.217271 71.7274621,129.87185 72.3953548,131.181009 C73.1475663,129.945075 73.5225625,129.327107 74.2692267,128.087844 C74.3768439,127.904784 74.437864,127.864844 74.6675214,127.874829 C74.8339399,127.882595 74.9171491,127.885923 75.0835676,127.893689 C75.3043494,127.903675 75.3709168,127.983556 75.36426,128.197681" id="Fill-41" fill="#FFFFFE"></path>
            <path d="M79.9008271,128.958768 C79.0243565,128.927703 78.5284295,129.337093 78.5073499,130.133682 C78.4884891,130.888112 78.4796134,131.265327 78.4596432,132.018648 C78.439673,132.815238 78.9167393,133.262349 79.798757,133.293414 C80.6718992,133.323369 81.1778113,132.910651 81.1944531,132.114062 C81.211095,131.360741 81.2199706,130.983526 81.235503,130.229095 C81.2532543,129.432506 80.7695313,128.988723 79.9008271,128.958768 Z M79.9241256,127.956928 C81.4806929,128.011292 82.3305365,128.8922 82.3016906,130.271254 C82.2861581,131.019028 82.2795014,131.391805 82.263969,132.13847 C82.2351232,133.518633 81.3431203,134.349616 79.774349,134.295253 C78.1978116,134.23978 77.3468585,133.347777 77.3834706,131.968723 C77.4034408,131.222058 77.413426,130.848172 77.4333962,130.101508 C77.4711177,128.722453 78.3597921,127.902565 79.9241256,127.956928 L79.9241256,127.956928 Z" id="Fill-42" fill="#FFFFFE"></path>
            <path d="M89.188086,128.617055 C89.1625688,130.818216 89.1492548,131.917688 89.1237376,134.118849 C89.1215186,134.332974 89.0516232,134.408418 88.829732,134.405089 C88.6333581,134.401761 88.5357256,134.399542 88.3404616,134.396214 C88.1951228,134.392885 88.1274456,134.357382 88.0597691,134.245327 C87.2354429,132.988313 86.8260538,132.359251 86.0083845,131.098909 C85.6167465,130.489817 85.3660092,129.695446 85.3327251,129.643302 L85.2816899,129.642193 C85.2805808,129.709869 85.4536558,130.537524 85.4403426,131.351865 C85.4225915,132.428037 85.4137155,132.966124 85.3970735,134.042297 C85.3926363,134.255312 85.314974,134.330755 85.1008489,134.326317 C84.918898,134.32077 84.8279225,134.318551 84.6459716,134.314113 C84.4240805,134.308566 84.347528,134.229795 84.3508561,134.01567 C84.3907972,131.815617 84.4096574,130.715037 84.4484886,128.514985 C84.4529266,128.30086 84.530588,128.225417 84.7513701,128.230964 C84.9455251,128.236512 85.0420476,128.238731 85.2362026,128.243168 C85.3893074,128.247606 85.4569847,128.29975 85.5146761,128.387398 C86.3212512,129.641083 86.7262023,130.266816 87.5394344,131.517174 C87.9665747,132.17841 88.1973418,132.919527 88.2383911,132.988313 L88.2894263,132.989422 C88.2905363,132.903995 88.1130225,132.120718 88.1241175,131.255342 C88.1374306,130.192483 88.1451975,129.661053 88.1585106,128.598195 C88.1607296,128.385179 88.2383911,128.308626 88.4514071,128.313064 C88.6311391,128.316392 88.7221145,128.317502 88.9018465,128.32083 C89.1226285,128.325268 89.190305,128.40293 89.188086,128.617055" id="Fill-43" fill="#FFFFFE"></path>
            <path d="M95.9113915,134.481656 C95.7127986,134.480532 95.612948,134.480532 95.414355,134.479422 C95.046016,134.477204 94.9339605,134.433935 94.8318909,134.218701 C94.4890683,133.520852 94.3171024,133.172483 93.9753905,132.473526 C93.7468424,132.009772 93.5515783,131.871091 92.9624564,131.864434 C92.7882716,131.863325 92.700625,131.862215 92.5264401,131.859996 C92.5197832,132.781954 92.5164551,133.243488 92.5097981,134.165446 C92.508689,134.379571 92.4310267,134.456124 92.2169016,134.453905 C92.0205285,134.451686 91.922896,134.450577 91.727632,134.448358 C91.5046309,134.445029 91.4280785,134.367367 91.430206,134.153242 C91.4491585,131.952081 91.4580337,130.8515 91.4768947,128.651448 C91.4791137,128.437323 91.5567752,128.360771 91.7775573,128.364099 C91.9717122,128.366318 92.0682348,128.367428 92.2623897,128.369647 C92.4754049,128.371866 92.5508483,128.449527 92.5497392,128.663652 C92.5430822,129.551218 92.5397541,129.995 92.5330971,130.883675 C92.6706698,130.884784 92.7383463,130.885893 92.8748099,130.887003 L92.9857554,130.888112 C93.678056,129.986124 94.0230968,129.534576 94.7109594,128.631478 C94.8651742,128.426229 94.9506026,128.392945 95.2900963,128.394055 C95.5086585,128.395164 95.617386,128.396274 95.8348391,128.397383 C96.0301032,128.397383 96.0811384,128.534955 95.9701928,128.680294 C95.207996,129.654397 94.826343,130.140339 94.059709,131.111113 C94.460223,131.294174 94.7320395,131.613696 94.9783388,132.095201 C95.4088079,132.93395 95.625152,133.353324 96.0578394,134.190964 C96.1432678,134.354054 96.1255166,134.482751 95.9113915,134.481656" id="Fill-44" fill="#FFFFFE"></path>
            <path d="M101.89247,128.679185 C101.89358,128.846713 101.89358,128.931031 101.894689,129.099668 C101.895799,129.313793 101.819247,129.391456 101.598465,129.392565 C100.555576,129.399222 100.034132,129.401441 98.9923515,129.40366 C98.9923515,130.003876 98.9934614,130.303429 98.9934614,130.903645 C99.877698,130.902536 100.320371,130.900317 101.204608,130.894769 C101.417624,130.89366 101.495285,130.970212 101.496395,131.184337 C101.496395,131.352975 101.497504,131.436183 101.497504,131.604821 C101.498613,131.818946 101.422061,131.896608 101.207936,131.897718 C100.32259,131.903265 99.879917,131.904375 98.9945705,131.906593 C98.9956804,132.536764 98.9956804,132.85185 98.9967895,133.483131 C100.082947,133.480912 100.625472,133.478693 101.711629,133.470927 C101.933521,133.469817 102.003416,133.546369 102.004526,133.760494 C102.005635,133.928022 102.005635,134.012342 102.006771,134.179869 C102.007854,134.393995 101.939068,134.471656 101.716067,134.473875 C100.317042,134.48386 99.6180856,134.486079 98.2190605,134.486079 C97.9949503,134.486079 97.9183979,134.409527 97.9183979,134.195402 C97.9183979,131.99424 97.9183979,130.89366 97.9195078,128.693607 C97.9195078,128.479482 97.9960602,128.401821 98.2179514,128.401821 C99.5681594,128.401821 100.243819,128.399602 101.594027,128.389593 C101.814809,128.388507 101.891361,128.46506 101.89247,128.679185" id="Fill-45" fill="#FFFFFE"></path>
            <path d="M108.707861,128.584881 C107.896848,129.958388 107.488568,130.645141 106.66979,132.016429 C106.679775,132.859617 106.684213,133.28121 106.693088,134.124396 C106.696417,134.338521 106.619865,134.417293 106.40463,134.420622 C106.209366,134.42284 106.111733,134.425059 105.916469,134.427278 C105.693468,134.430607 105.623573,134.355163 105.622463,134.141038 C105.613587,133.291195 105.609149,132.865164 105.601383,132.01532 C104.75043,130.677315 104.327728,130.007204 103.483431,128.664762 C103.389127,128.50389 103.42352,128.374085 103.635426,128.371866 C103.87396,128.369647 103.992671,128.368537 104.231204,128.365209 C104.570698,128.36188 104.663893,128.368537 104.794808,128.615946 C105.329566,129.534576 105.598055,129.993891 106.137251,130.910302 C106.659805,129.977249 106.920527,129.510167 107.439753,128.574896 C107.572887,128.324158 107.667191,128.313064 108.007794,128.307517 C108.228576,128.303079 108.338412,128.30086 108.559194,128.296422 C108.773319,128.291984 108.799946,128.419572 108.707861,128.584881" id="Fill-46" fill="#FFFFFE"></path>
            <path d="M115.971472,131.583741 C115.325768,131.60593 115.002917,131.615915 114.357213,131.635885 C114.370526,132.273824 114.377183,132.592237 114.390497,133.229066 C115.038419,133.209095 115.361271,133.199109 116.009193,133.17692 C116.539514,133.15806 116.815768,132.881806 116.802454,132.359251 C116.790251,131.837807 116.500682,131.564881 115.971472,131.583741 Z M115.760675,129.104106 C115.178211,129.124076 114.887533,129.132952 114.305068,129.151814 C114.317272,129.754248 114.323929,130.05602 114.337242,130.659564 C114.919707,130.640703 115.211494,130.631828 115.795068,130.611858 C116.298761,130.594106 116.575016,130.344479 116.562812,129.8308 C116.550608,129.324888 116.272134,129.086355 115.760675,129.104106 Z M117.648969,129.636645 C117.664502,130.253503 117.471457,130.672877 117.033221,130.95357 L117.034331,130.987963 C117.593497,131.165476 117.923006,131.666951 117.942976,132.438023 C117.970712,133.517524 117.180779,134.138819 116.0569,134.17765 C115.087235,134.210934 114.602403,134.226467 113.632738,134.255312 C113.409737,134.261969 113.330965,134.186526 113.326528,133.97351 C113.283259,131.773458 113.262179,130.672877 113.218911,128.472826 C113.214473,128.258701 113.288806,128.17882 113.510697,128.173273 C114.452626,128.144426 114.924145,128.130003 115.866073,128.097829 C116.962216,128.060108 117.623452,128.609289 117.648969,129.636645 L117.648969,129.636645 Z" id="Fill-47" fill="#FFFFFE"></path>
            <path d="M122.345299,133.049334 C123.226207,133.008283 123.648909,132.541202 123.623392,131.779006 C123.574576,130.295663 123.550168,129.554546 123.501352,128.071203 C123.493586,127.858187 123.567919,127.777197 123.779826,127.766102 C123.97398,127.756117 124.070503,127.751679 124.264658,127.741694 C124.48544,127.730599 124.555336,127.804933 124.563102,128.017949 C124.614136,129.497963 124.639654,130.237971 124.690689,131.716876 C124.737286,133.061538 123.952901,133.977948 122.376363,134.051173 C120.799826,134.124396 119.95331,133.283429 119.91448,131.938767 C119.87343,130.458752 119.85235,129.718745 119.810191,128.238731 C119.804643,128.024606 119.878977,127.944724 120.091993,127.935849 C120.288366,127.926973 120.387108,127.922535 120.584591,127.914769 C120.796498,127.905893 120.875269,127.979118 120.881925,128.193243 C120.925194,129.676586 120.947383,130.417703 120.991762,131.901046 C121.013951,132.664352 121.46439,133.090383 122.345299,133.049334" id="Fill-48" fill="#FFFFFE"></path>
            <path d="M130.912521,127.656266 C130.919177,127.823794 130.922506,127.907003 130.930272,128.07564 C130.939147,128.289765 130.865923,128.370756 130.654017,128.38407 C130.068224,128.420682 129.776437,128.438433 129.190644,128.473935 C129.268306,130.387748 129.307137,131.345208 129.38369,133.259021 C129.392565,133.472036 129.319341,133.554136 129.105216,133.567449 C128.906623,133.578544 128.806772,133.5852 128.60818,133.596295 C128.394055,133.608499 128.314173,133.536384 128.306407,133.322259 C128.230964,131.408447 128.194353,130.450986 128.118909,128.537174 C127.534225,128.570458 127.24133,128.5871 126.655537,128.619274 C126.434755,128.631478 126.363749,128.558254 126.355983,128.344129 C126.349326,128.176601 126.345998,128.092282 126.340451,127.924754 C126.332684,127.710629 126.398142,127.629639 126.618925,127.618545 C128.216542,127.529788 129.014241,127.483191 130.611858,127.38334 C130.823764,127.370026 130.902536,127.442141 130.912521,127.656266" id="Fill-49" fill="#FFFFFE"></path>
            <path d="M136.824813,127.247986 C136.832579,127.415514 136.837017,127.499833 136.845893,127.667361 C136.856987,127.881486 136.783763,127.963585 136.571857,127.979118 C135.987174,128.022387 135.694277,128.044576 135.109593,128.085625 C135.201679,129.998328 135.247166,130.955789 135.339251,132.868492 C135.350346,133.081508 135.277121,133.164716 135.062996,133.180249 C134.864404,133.193562 134.765662,133.200219 134.56596,133.214642 C134.352944,133.229066 134.271954,133.15806 134.261969,132.943935 C134.173212,131.031232 134.127725,130.07488 134.038969,128.161069 C133.454285,128.202119 133.161388,128.220979 132.575595,128.25981 C132.354813,128.275342 132.282699,128.203228 132.273824,127.989103 C132.266057,127.820466 132.262729,127.737256 132.254963,127.568619 C132.246087,127.355603 132.310435,127.273504 132.531217,127.259081 C134.127725,127.153682 134.925424,127.0971 136.521932,126.978388 C136.733838,126.962855 136.813719,127.034971 136.824813,127.247986" id="Fill-50" fill="#FFFFFE"></path>
            <path d="M143.616905,126.274993 C144.863934,126.166266 145.631677,126.601173 146.011111,127.494285 C146.102087,127.691768 146.0566,127.79162 145.856898,127.887033 C145.673837,127.969133 145.581752,128.010183 145.398692,128.092282 C145.198989,128.169944 145.112452,128.152193 145.023695,127.945834 C144.804023,127.441032 144.38132,127.213593 143.675706,127.275722 C142.801455,127.352275 142.342139,127.820466 142.386518,128.60707 C142.429787,129.36261 142.451976,129.740935 142.495244,130.496474 C142.540732,131.28197 143.053301,131.678046 143.931991,131.600383 C144.649808,131.537144 145.03479,131.227606 145.191223,130.68952 C145.263338,130.467628 145.345438,130.416593 145.554016,130.475394 C145.742623,130.524211 145.836927,130.547509 146.024425,130.595216 C146.235222,130.654017 146.291804,130.742774 146.236331,130.95468 C145.968952,131.907703 145.256681,132.489058 143.991901,132.600003 C142.418692,132.738685 141.497843,131.9543 141.421291,130.578574 C141.379132,129.828581 141.358051,129.454695 141.315892,128.705811 C141.23934,127.337852 142.057009,126.412565 143.616905,126.274993" id="Fill-51" fill="#FFFFFE"></path>
            <path d="M150.211513,126.658865 C149.338371,126.747621 148.882385,127.221359 148.934529,128.01573 C148.984455,128.766832 149.008863,129.142938 149.058788,129.895148 C149.110932,130.68952 149.62683,131.068953 150.50441,130.980197 C151.375333,130.89255 151.840195,130.414374 151.784722,129.621113 C151.732578,128.868902 151.705951,128.492796 151.653806,127.741694 C151.598334,126.947323 151.076889,126.572327 150.211513,126.658865 Z M150.143837,125.660354 C151.694857,125.503921 152.619033,126.265008 152.716666,127.639624 C152.76992,128.38407 152.796546,128.756847 152.848691,129.501291 C152.946323,130.875908 152.13642,131.822274 150.573196,131.979817 C149.001097,132.13847 148.074701,131.366288 147.984835,129.990562 C147.937128,129.245007 147.91272,128.873339 147.865013,128.127785 C147.776256,126.752059 148.585051,125.816787 150.143837,125.660354 L150.143837,125.660354 Z" id="Fill-52" fill="#FFFFFE"></path>
            <path d="M158.965124,128.449527 L158.970671,128.527189 C159.003955,128.945454 158.878587,129.088574 158.46143,129.13739 L158.40152,129.144047 C157.992131,129.191754 157.846792,129.079698 157.813508,128.661433 L157.807961,128.583772 C157.775787,128.174382 157.901156,128.022387 158.309436,127.97579 L158.369346,127.968023 C158.785392,127.920316 158.93295,128.040138 158.965124,128.449527" id="Fill-53" fill="#FFFFFE"></path>
        </g>
    </g>
</svg>