<?xml version="1.0" encoding="UTF-8"?>
<svg width="300px" height="100px" viewBox="0 0 300 100" version="1.1" xmlns="http://www.w3.org/2000/svg" xmlns:xlink="http://www.w3.org/1999/xlink">
    <title>brand-cystex</title>
    <g id="Page-1" stroke="none" stroke-width="1" fill="none" fill-rule="evenodd">
        <g id="brand-cystex" fill="#231F20" fill-rule="nonzero">
            <path d="M62.262486,68.43932 C57.5798576,73.4396141 48.1087123,76.8456968 38.4199071,76.8456968 C15.6420966,76.8456968 0,61.6271545 0,38.4199071 C0,17.0304136 13.5184423,-8.35981806e-15 38.1022413,-8.35981806e-15 C47.7851638,-8.35981806e-15 55.8797576,3.08841697 60.7741632,7.55926819 L54.9208777,17.2421907 C50.4500265,14.2596623 45.5556209,12.2418966 38.1022413,12.2418966 C24.2661333,12.2418966 13.836108,22.2483676 13.836108,38.4257898 C13.836108,53.9678805 24.3720219,64.6096829 39.5905642,64.6096829 C45.867404,64.6096829 52.1501265,62.5860345 57.2621919,58.6505089 L62.262486,68.43932 Z M93.7702218,75.6750397 C86.7462792,92.8113418 82.275428,96.9586446 75.2514854,96.9586446 C70.8865227,96.9586446 67.6922172,95.2585446 64.9273487,93.2348962 L68.8628743,83.975528 C70.13942,84.7226307 71.9512913,85.675628 73.8631684,85.675628 C76.9515854,85.675628 79.187011,83.2284252 81.2047768,78.2281311 L82.2695453,75.6750397 L60.132949,27.7781046 L74.8220484,27.7781046 C74.8220484,27.7781046 85.9991764,53.9619978 85.9991764,53.9619978 C86.9580564,56.303312 87.5933878,58.5387376 88.3404906,60.8800518 C88.7640449,58.6446262 89.193482,56.303312 90.0405906,53.8561092 L98.6646273,27.7781046 L112.606624,27.7781046 C112.606624,27.7781046 93.7643391,75.6750397 93.7643391,75.6750397 L93.7702218,75.6750397 Z M115.165598,41.1906583 C115.165598,31.8254015 122.830755,26.6074475 132.725454,26.6074475 C141.984823,26.6074475 147.943997,29.9076416 150.926525,32.6725101 L146.349785,41.4024354 C143.479028,39.1670098 138.472851,36.8256956 133.366669,36.8256956 C129.64292,36.8256956 127.407495,38.8493441 127.407495,40.9788811 C127.407495,48.9617036 153.273722,44.596741 153.273722,61.521266 C153.273722,70.9924113 145.608565,76.8456968 133.901994,76.8456968 C125.06618,76.8456968 116.130361,72.0571798 113.894935,68.6510971 L119.854109,60.6682746 C122.724866,63.7566916 129.966469,66.6274487 134.754986,66.6274487 C138.266957,66.6274487 141.037708,65.1391258 141.037708,62.1565974 C141.037708,54.3855521 115.171481,58.6446262 115.171481,41.1906583 L115.165598,41.1906583 Z M159.762339,14.4773222 L172.004236,14.4773222 L172.004236,27.7839873 C172.004236,27.7839873 187.440438,27.7839873 187.440438,27.7839873 C187.440438,27.7839873 187.652215,39.2787811 178.892876,39.2787811 C170.133537,39.2787811 172.004236,39.2787811 172.004236,39.2787811 L172.004236,56.732749 C172.004236,61.950703 173.704336,65.350903 177.751632,65.350903 C181.051827,65.350903 183.393141,63.8625802 185.093241,62.5860345 L188.816989,72.0571798 C185.946232,74.398494 180.834167,76.7398082 174.663215,76.7398082 C163.809636,76.7398082 159.762339,69.7158656 159.762339,57.4739691 L159.762339,14.4773222 L159.762339,14.4773222 Z M235.119713,70.8865227 C230.331196,74.9279369 223.519031,76.8456968 216.812754,76.8456968 C201.382434,76.8456968 191.058298,66.8392258 191.058298,51.7265722 C191.058298,37.7845756 200.635331,26.6074475 216.389199,26.6074475 C228.736985,26.6074475 239.061121,35.4432614 239.061121,48.8499323 C239.061121,51.8324607 238.849344,53.6384493 238.314018,55.4503206 L203.723748,55.4503206 C204.788517,62.6860404 210.535914,66.6274487 218.095182,66.6274487 C223.948468,66.6274487 228.842873,64.4979116 231.613624,62.262486 L235.125596,70.8865227 L235.119713,70.8865227 Z M203.294311,47.2557209 L226.819225,47.2557209 C226.925113,41.4024354 222.883699,36.8256956 215.853874,36.8256956 C208.512265,36.8256956 204.570857,40.9788811 203.294311,47.2557209 Z M273.116066,50.6618036 L290.146479,75.6750397 L275.245603,75.6750397 C275.245603,75.6750397 264.068475,58.432849 264.068475,58.432849 L252.467792,75.6750397 L238.314018,75.6750397 C238.314018,75.6750397 255.344432,51.3030178 255.344432,51.3030178 L239.378787,27.7839873 L254.385552,27.7839873 C254.385552,27.7839873 264.497912,43.6437437 264.497912,43.6437437 L274.927937,27.7839873 L289.081711,27.7839873 C289.081711,27.7839873 273.116066,50.6676863 273.116066,50.6676863 L273.116066,50.6618036 Z M299.699982,32.7313371 C299.699982,35.4550268 297.511618,37.6139773 294.729102,37.6139773 C291.946585,37.6139773 289.728808,35.4550268 289.728808,32.7313371 C289.728808,30.0076475 291.946585,27.8781105 294.758515,27.8781105 C297.570445,27.8781105 299.699982,30.0076475 299.699982,32.7313371 L299.699982,32.7313371 Z M290.970057,32.7313371 C290.970057,34.8902877 292.599565,36.6080358 294.758515,36.6080358 C296.858639,36.6374493 298.458733,34.8902877 298.458733,32.7607506 C298.458733,30.6018001 296.858639,28.8546385 294.705571,28.8546385 C292.605447,28.8546385 290.97594,30.6018001 290.97594,32.7313371 L290.970057,32.7313371 Z M293.958468,35.2491323 L292.834873,35.2491323 L292.834873,30.3959056 C293.276075,30.3370787 293.899641,30.2488382 294.699688,30.2488382 C295.617389,30.2488382 296.029178,30.3959056 296.358609,30.6370963 C296.652744,30.8429908 296.858639,31.1959527 296.858639,31.6724513 C296.858639,32.2666039 296.417436,32.6489794 295.852697,32.8254603 L295.852697,32.8842873 C296.323313,33.0313548 296.558621,33.4196129 296.711571,34.0667098 C296.858639,34.8079299 296.976293,35.0726513 297.064533,35.2491323 L295.882111,35.2491323 C295.735043,35.0726513 295.646803,34.6549797 295.493853,34.0667098 C295.405612,33.5607977 295.111477,33.3254897 294.487911,33.3254897 L293.952585,33.3254897 C293.952585,33.3254897 293.952585,35.2491323 293.952585,35.2491323 L293.958468,35.2491323 Z M293.987882,32.5254427 L294.523207,32.5254427 C295.146773,32.5254427 295.646803,32.3195482 295.646803,31.8136361 C295.646803,31.3724337 295.323254,31.072416 294.611448,31.072416 C294.317313,31.072416 294.105536,31.1018295 293.987882,31.131243 L293.987882,32.51956 L293.987882,32.5254427 Z" id="Shape"></path>
            <path d="M123.901406,91.4112595 C123.901406,93.0172363 123.748456,94.2173069 123.166069,95.1350079 C122.460145,96.246838 121.171834,96.8586387 119.583505,96.8586387 C117.995176,96.8586387 116.6951,96.1997765 116.018589,95.0997117 C115.45385,94.1996588 115.295017,92.9995882 115.295017,91.5230308 L115.295017,85.8168128 L117.089241,85.8168128 L117.089241,91.3994941 C117.089241,92.6760398 117.189246,93.4113771 117.489264,93.9702335 C117.830461,94.5996823 118.465792,95.1114771 119.654097,95.1114771 C120.730631,95.1114771 121.383611,94.6879228 121.748338,94.0172951 C122.071887,93.4290252 122.160127,92.6172128 122.160127,91.4347903 L122.160127,85.8168128 L123.901406,85.8168128 L123.901406,91.3994941 L123.901406,91.4112595 Z M126.119183,89.3111359 L127.819283,89.3111359 L127.819283,90.346491 L127.848697,90.3641391 C128.331078,89.6464498 129.048768,89.2405436 129.872345,89.2405436 C130.025296,89.2405436 130.184128,89.2581917 130.337079,89.2993706 L130.337079,91.0406494 C130.16648,90.9935879 129.995882,90.9641744 129.77234,90.9641744 C128.96641,90.9641744 128.31343,91.3406671 127.836932,92.0583564 L127.836932,96.6998059 L126.125066,96.6998059 L126.125066,89.3111359 L126.119183,89.3111359 Z M131.831284,89.3111359 L133.54315,89.3111359 L133.54315,96.6998059 L131.831284,96.6998059 L131.831284,89.3111359 Z M132.696041,85.734455 C133.278428,85.734455 133.754927,86.2462498 133.754927,86.8580505 C133.754927,87.4698512 133.272545,87.9875287 132.678393,87.9875287 C132.08424,87.9875287 131.619507,87.4757339 131.619507,86.8580505 C131.619507,86.2403671 132.101888,85.734455 132.696041,85.734455 Z M135.837402,89.3111359 L137.537502,89.3111359 L137.537502,90.1053003 L137.566916,90.1229484 C138.149303,89.5699747 138.937585,89.1464204 139.861168,89.1464204 C140.614154,89.1464204 141.261251,89.4170245 141.702453,89.9288193 C142.114242,90.3935526 142.296606,91.011236 142.296606,92.105418 L142.296606,96.6998059 L140.58474,96.6998059 L140.58474,92.4230837 C140.58474,91.7642214 140.502382,91.3994941 140.302371,91.1641861 C140.090594,90.893582 139.778811,90.7582799 139.38467,90.7582799 C138.708159,90.7582799 137.996353,91.1759515 137.561033,91.6877463 L137.561033,96.7056886 L135.849168,96.7056886 L135.849168,89.3170186 L135.837402,89.3111359 Z M148.526384,96.1585976 C148.10283,96.5174422 147.379258,96.8645214 146.461557,96.8645214 C145.896817,96.8645214 145.31443,96.7292194 144.849697,96.3703747 C144.367316,95.993882 144.073181,95.4114948 144.073181,94.6702747 C144.073181,93.8584623 144.443791,93.258427 144.967351,92.8819342 C145.490911,92.5054415 146.196835,92.3701394 146.920407,92.3701394 C147.402788,92.3701394 147.838108,92.4289664 148.261662,92.534855 L148.261662,92.0995353 C148.261662,91.6465674 148.149891,91.3171363 147.920466,91.0935937 C147.66751,90.8524031 147.267486,90.7347491 146.743926,90.7347491 C145.908583,90.7347491 145.185011,91.0347668 144.649685,91.3936114 L144.649685,89.740573 C145.202659,89.4111418 146.008589,89.1405377 146.996882,89.1405377 C147.902818,89.1405377 148.708748,89.3640802 149.232308,89.8288135 C149.697041,90.2464851 149.967645,90.8818166 149.967645,91.7936349 L149.967645,94.6349785 C149.967645,95.0408848 150.10883,95.3232543 150.450026,95.3232543 C150.579446,95.3232543 150.720631,95.2761927 150.832402,95.2173657 L150.832402,96.6468616 C150.620625,96.7527502 150.32649,96.8292252 149.985293,96.8292252 C149.420554,96.8292252 148.885229,96.6174481 148.555797,96.1527149 L148.526384,96.1527149 L148.526384,96.1585976 Z M148.25578,93.7231602 C147.943997,93.6349197 147.520442,93.57021 147.179246,93.57021 C146.473322,93.57021 145.779163,93.8114007 145.779163,94.5290899 C145.779163,95.1291252 146.27331,95.4173775 146.885111,95.4173775 C147.408671,95.4173775 147.920466,95.2232484 148.25578,94.9644097 L148.25578,93.7172775 L148.25578,93.7231602 Z M152.367786,89.3111359 L154.067886,89.3111359 L154.067886,90.346491 L154.0973,90.3641391 C154.579681,89.6464498 155.29737,89.2405436 156.120948,89.2405436 C156.279781,89.2405436 156.432731,89.2581917 156.585682,89.2993706 L156.585682,91.0406494 C156.415083,90.9935879 156.244485,90.9641744 156.020942,90.9641744 C155.215013,90.9641744 154.562033,91.3406671 154.085534,92.0583564 L154.085534,96.6998059 L152.373669,96.6998059 L152.373669,89.3111359 L152.367786,89.3111359 Z M158.409318,100 L160.262368,95.8879934 L157.391611,89.3111359 L159.244661,89.3111359 L160.191776,91.5936232 C160.544738,92.4466145 160.827107,93.140773 161.127125,93.923172 L161.156539,93.923172 C161.480087,93.0995941 161.838932,92.2583681 162.174246,91.4465557 L163.080181,89.3111359 L164.82146,89.3111359 L160.191776,100 L158.409318,100 Z M170.021766,85.8226955 L171.815989,85.8226955 L171.815989,90.2053062 L176.810401,90.2053062 L176.810401,85.8226955 L178.604624,85.8226955 L178.604624,96.6939232 L176.810401,96.6939232 L176.810401,91.9054062 L171.815989,91.9054062 L171.815989,96.6939232 L170.021766,96.6939232 L170.021766,85.8226955 Z M182.240132,93.4937349 C182.451909,94.723219 183.375493,95.3526678 184.54615,95.3526678 C185.422672,95.3526678 186.24625,95.0055886 186.92276,94.4996765 L186.92276,96.1644803 C186.269781,96.5998 185.281487,96.852756 184.375552,96.852756 C182.140126,96.852756 180.498853,95.3232543 180.498853,93.0113536 C180.498853,90.6994529 182.151891,89.134655 184.052003,89.134655 C185.781517,89.134655 187.305136,90.3817872 187.305136,92.7525149 C187.305136,92.9937055 187.29337,93.2937232 187.263957,93.4878522 L182.240132,93.4878522 L182.240132,93.4937349 Z M185.705041,92.2348373 C185.575622,91.1230072 184.816754,90.6112124 184.034355,90.6112124 C183.251956,90.6112124 182.446026,91.1230072 182.234249,92.2348373 L185.699159,92.2348373 L185.705041,92.2348373 Z M193.1996,96.1527149 C192.776046,96.5115595 192.052474,96.8586387 191.134773,96.8586387 C190.570034,96.8586387 189.987646,96.7233367 189.522913,96.364492 C189.040532,95.9879993 188.746397,95.4056121 188.746397,94.664392 C188.746397,93.8525796 189.117007,93.2525443 189.640567,92.8760515 C190.164127,92.4995588 190.870051,92.3642567 191.593623,92.3642567 C192.076004,92.3642567 192.511324,92.4230837 192.934879,92.5289723 L192.934879,92.0936526 C192.934879,91.6406847 192.823107,91.3112536 192.593682,91.087711 C192.340726,90.8465204 191.940702,90.7288664 191.417142,90.7288664 C190.581799,90.7288664 189.858227,91.0288841 189.322901,91.3877287 L189.322901,89.7346903 C189.875875,89.4052591 190.681805,89.134655 191.670098,89.134655 C192.576034,89.134655 193.381964,89.3581975 193.905524,89.8229308 C194.370257,90.2406024 194.640861,90.8759339 194.640861,91.7877522 L194.640861,94.6290958 C194.640861,95.0350021 194.782046,95.3173716 195.123243,95.3173716 C195.252662,95.3173716 195.393847,95.27031 195.505618,95.211483 L195.505618,96.6409789 C195.293841,96.7468675 194.999706,96.8233425 194.658509,96.8233425 C194.09377,96.8233425 193.558445,96.6115654 193.229013,96.1468322 L193.1996,96.1468322 L193.1996,96.1527149 Z M192.928996,93.7172775 C192.617213,93.629037 192.193658,93.5643273 191.852462,93.5643273 C191.146538,93.5643273 190.45238,93.805518 190.45238,94.5232072 C190.45238,95.1232425 190.946526,95.4114948 191.558327,95.4114948 C192.081887,95.4114948 192.593682,95.2173657 192.928996,94.958527 L192.928996,93.7113948 L192.928996,93.7172775 Z M197.046885,85.2167775 L198.758751,85.2167775 L198.758751,96.6880405 L197.046885,96.6880405 L197.046885,85.2167775 Z M205.265016,96.5115595 C204.953233,96.7056886 204.388493,96.8586387 203.847285,96.8586387 C203.241367,96.8586387 202.588388,96.6645097 202.147185,96.1409495 C201.794223,95.7350432 201.582446,95.1232425 201.582446,94.0231778 L201.582446,90.8524031 L200.364727,90.8524031 L200.364727,89.3052533 L201.582446,89.3052533 L201.582446,87.3404318 L203.294311,87.022766 L203.294311,89.3052533 L205.259133,89.3052533 L205.259133,90.8524031 L203.294311,90.8524031 L203.294311,93.7643391 C203.294311,94.5879169 203.435496,95.2820754 204.212012,95.2820754 C204.57674,95.2820754 204.976763,95.1291252 205.259133,94.9644097 L205.259133,96.5115595 L205.265016,96.5115595 Z M206.988646,85.2167775 L208.700512,85.2167775 L208.700512,90.0994176 L208.729925,90.1170657 C209.294664,89.564092 210.088829,89.1405377 211.00653,89.1405377 C211.759515,89.1405377 212.406612,89.4111418 212.847815,89.9229366 C213.259604,90.3876699 213.441967,91.0053533 213.441967,92.0995353 L213.441967,96.6939232 L211.730102,96.6939232 L211.730102,92.417201 C211.730102,91.7289252 211.647744,91.3936114 211.447732,91.1583034 C211.218307,90.8759339 210.912407,90.7523972 210.541797,90.7523972 C209.847638,90.7523972 209.15348,91.1700688 208.700512,91.6818636 L208.700512,96.6998059 L206.988646,96.6998059 L206.988646,85.2285429 L206.988646,85.2167775 Z M219.424672,85.8168128 L221.165951,85.8168128 L224.507324,90.8759339 L227.848697,85.8168128 L229.560562,85.8168128 L229.560562,96.6880405 L227.766339,96.6880405 L227.766339,91.3112536 C227.766339,90.4876757 227.766339,89.7052768 227.778105,88.9522913 L227.748691,88.9346432 C227.325137,89.622919 226.872169,90.2994294 226.389788,91.0347668 L224.466145,93.9467027 L222.542503,91.0347668 C222.060121,90.2994294 221.607153,89.622919 221.183599,88.9346432 L221.154186,88.9522913 C221.165951,89.7052768 221.165951,90.481793 221.165951,91.3112536 L221.165951,96.6880405 L219.424672,96.6880405 L219.424672,85.8168128 L219.424672,85.8168128 Z M235.860933,96.1468322 C235.437379,96.5056768 234.713807,96.852756 233.796106,96.852756 C233.231367,96.852756 232.648979,96.717454 232.184246,96.3586093 C231.701865,95.9821166 231.40773,95.3997294 231.40773,94.6585093 C231.40773,93.8466969 231.77834,93.2466616 232.3019,92.8701688 C232.82546,92.4936761 233.531384,92.358374 234.254956,92.358374 C234.737337,92.358374 235.172657,92.417201 235.596212,92.5230896 L235.596212,92.0877699 C235.596212,91.634802 235.48444,91.3053709 235.255015,91.0818283 C235.002059,90.8406377 234.602035,90.7229837 234.078475,90.7229837 C233.243132,90.7229837 232.51956,91.0230014 231.984234,91.381846 L231.984234,89.7288076 C232.537208,89.3993764 233.343138,89.1287723 234.331431,89.1287723 C235.237367,89.1287723 236.043297,89.3523148 236.566857,89.8170481 C237.03159,90.2347197 237.302194,90.8700512 237.302194,91.7818695 L237.302194,94.6232131 C237.302194,95.0291194 237.443379,95.3114889 237.784576,95.3114889 C237.913995,95.3114889 238.05518,95.2644273 238.166951,95.2056003 L238.166951,96.6350962 C237.955174,96.7409848 237.661039,96.8174599 237.319842,96.8174599 C236.755103,96.8174599 236.219778,96.6056827 235.890346,96.1409495 L235.860933,96.1409495 L235.860933,96.1468322 Z M235.590329,93.7113948 C235.278546,93.6231543 234.854991,93.5584446 234.513795,93.5584446 C233.807871,93.5584446 233.113713,93.7996353 233.113713,94.5173245 C233.113713,95.1173598 233.607859,95.4056121 234.21966,95.4056121 C234.74322,95.4056121 235.255015,95.211483 235.590329,94.9526443 L235.590329,93.7055121 L235.590329,93.7113948 Z M244.490852,96.246838 C244.026119,96.5939173 243.384905,96.8468733 242.637802,96.8468733 C240.814166,96.8468733 239.296429,95.3938467 239.296429,93.1231249 C239.296429,90.8524031 240.837696,89.1287723 242.973116,89.1287723 C243.579034,89.1287723 244.061415,89.2640744 244.473204,89.4582034 L244.502618,89.4405553 L244.502618,85.2050121 L246.214483,85.2050121 L246.214483,96.6762751 L244.514383,96.6762751 L244.514383,96.2586034 L244.48497,96.2409554 L244.490852,96.246838 Z M244.502618,91.0524148 C244.108477,90.8406377 243.61433,90.6759221 243.084887,90.6759221 C241.784811,90.6759221 241.02006,91.7112771 241.02006,93.0348844 C241.02006,94.3584917 241.743632,95.3173716 242.984881,95.3173716 C243.567269,95.3173716 244.090829,95.093829 244.496735,94.8055768 L244.496735,91.0524148 L244.502618,91.0524148 Z M249.80293,93.4878522 C250.014707,94.7173363 250.93829,95.3467851 252.108948,95.3467851 C252.98547,95.3467851 253.809048,94.9997059 254.485558,94.4937938 L254.485558,96.1585976 C253.832578,96.5939173 252.844285,96.8468733 251.938349,96.8468733 C249.702924,96.8468733 248.061651,95.3173716 248.061651,93.0054709 C248.061651,90.6935702 249.714689,89.1287723 251.614801,89.1287723 C253.344314,89.1287723 254.867933,90.3759045 254.867933,92.7466322 C254.867933,92.9878228 254.856168,93.2878405 254.826755,93.4819695 L249.80293,93.4819695 L249.80293,93.4878522 Z M253.267839,92.2289546 C253.13842,91.1171245 252.379552,90.6053297 251.597153,90.6053297 C250.814754,90.6053297 250.008824,91.1171245 249.797047,92.2289546 L253.261957,92.2289546 L253.267839,92.2289546 Z M260.509442,85.8168128 L266.621566,85.8168128 L266.621566,87.5110301 L262.303665,87.5110301 L262.303665,90.2170716 L266.050944,90.2170716 L266.050944,91.8406965 L262.303665,91.8406965 L262.303665,94.9938232 L266.762751,94.9938232 L266.762751,96.6880405 L260.509442,96.6880405 L260.509442,85.8168128 Z M272.533678,96.1468322 C272.110124,96.5056768 271.386552,96.852756 270.468851,96.852756 C269.904112,96.852756 269.321725,96.717454 268.856992,96.3586093 C268.37461,95.9821166 268.080475,95.3997294 268.080475,94.6585093 C268.080475,93.8466969 268.451085,93.2466616 268.974646,92.8701688 C269.498206,92.4936761 270.20413,92.358374 270.927702,92.358374 C271.410083,92.358374 271.845403,92.417201 272.268957,92.5230896 L272.268957,92.0877699 C272.268957,91.634802 272.157186,91.3053709 271.92776,91.0818283 C271.674804,90.8406377 271.274781,90.7229837 270.751221,90.7229837 C269.915877,90.7229837 269.192305,91.0230014 268.65698,91.381846 L268.65698,89.7288076 C269.209954,89.3993764 270.015883,89.1287723 271.004177,89.1287723 C271.910112,89.1287723 272.716042,89.3523148 273.239602,89.8170481 C273.704336,90.2347197 273.97494,90.8700512 273.97494,91.7818695 L273.97494,94.6232131 C273.97494,95.0291194 274.116124,95.3114889 274.457321,95.3114889 C274.58674,95.3114889 274.727925,95.2644273 274.839696,95.2056003 L274.839696,96.6350962 C274.627919,96.7409848 274.333784,96.8174599 273.992588,96.8174599 C273.427849,96.8174599 272.892523,96.6056827 272.563092,96.1409495 L272.533678,96.1409495 L272.533678,96.1468322 Z M272.263074,93.7113948 C271.951291,93.6231543 271.527737,93.5584446 271.18654,93.5584446 C270.480617,93.5584446 269.786458,93.7996353 269.786458,94.5173245 C269.786458,95.1173598 270.280605,95.4056121 270.892405,95.4056121 C271.415966,95.4056121 271.92776,95.211483 272.263074,94.9526443 L272.263074,93.7055121 L272.263074,93.7113948 Z M276.180952,94.5349726 C277.057474,95.1055944 278.11636,95.3585505 278.881111,95.3585505 C279.645862,95.3585505 280.151774,95.1173598 280.151774,94.5643861 C280.151774,93.8290488 279.263486,93.8584623 278.198718,93.6172716 C276.869228,93.317254 275.963292,92.8231072 275.963292,91.4818519 C275.975057,89.934702 277.233955,89.1228896 278.904641,89.1228896 C279.739985,89.1228896 280.745926,89.3052533 281.481264,89.7052768 L281.481264,91.3583152 C280.628272,90.8465204 279.610565,90.6053297 278.904641,90.6053297 C278.198718,90.6053297 277.686923,90.8288723 277.686923,91.3406671 C277.686923,92.0289429 278.563445,92.0171775 279.5988,92.24072 C280.92829,92.5407377 281.875404,92.9937055 281.875404,94.3996706 C281.875404,96.0703571 280.487087,96.8351079 278.845814,96.8351079 C277.981058,96.8351079 276.951585,96.6409789 276.175069,96.2174246 L276.175069,94.5173245 L276.180952,94.5349726 Z M283.904936,99.9882346 L285.757986,95.876228 L282.887229,89.2993706 L284.740279,89.2993706 L285.687393,91.5818578 C286.040355,92.4348491 286.322725,93.1290076 286.622743,93.9114066 L286.652156,93.9114066 C286.975704,93.0878287 287.334549,92.2466027 287.669863,91.4347903 L288.575799,89.2993706 L290.317077,89.2993706 L285.687393,99.9882346 L283.904936,99.9882346 Z M291.687746,85.869757 L290.987705,85.869757 L290.987705,85.3520795 L292.923113,85.3520795 L292.923113,85.869757 L292.223072,85.869757 L292.223072,87.8875228 L291.687746,87.8875228 L291.687746,85.869757 L291.687746,85.869757 Z M294.470263,87.3051356 L294.099653,86.7639273 C293.981999,86.5874463 293.87611,86.4227307 293.78787,86.2638979 L293.770222,86.2756633 C293.776104,86.416848 293.78787,86.6580387 293.78787,86.8345197 L293.78787,87.8934055 L293.270192,87.8934055 L293.270192,85.3579622 L293.770222,85.3579622 L294.470263,86.3874346 L295.170304,85.3579622 L295.682099,85.3579622 L295.682099,87.8934055 L295.152656,87.8934055 L295.152656,86.8345197 C295.152656,86.6580387 295.158539,86.416848 295.170304,86.2756633 L295.152656,86.2638979 C295.064416,86.4227307 294.952644,86.5874463 294.840873,86.7639273 L294.470263,87.3051356 L294.470263,87.3051356 Z" id="Shape"></path>
        </g>
    </g>
</svg>