<?xml version="1.0" encoding="UTF-8"?>
<svg width="183px" height="150px" viewBox="0 0 183 150" version="1.1" xmlns="http://www.w3.org/2000/svg" xmlns:xlink="http://www.w3.org/1999/xlink">
    <title>brand-certain-dri</title>
    <g id="Page-1" stroke="none" stroke-width="1" fill="none" fill-rule="evenodd">
        <g id="brand-certain-dri" fill="#00263A" fill-rule="nonzero">
            <path d="M178.89812,141.862378 C181.106815,141.862378 182.957677,143.657714 182.957677,145.940443 C182.957677,148.223173 181.143833,150 178.89812,150 C176.652408,150 174.838564,148.167647 174.838564,145.940443 C174.838564,143.71324 176.670917,141.862378 178.89812,141.862378 Z M178.89812,149.271994 C180.730473,149.271994 182.229671,147.772796 182.229671,145.940443 C182.229671,144.10809 180.730473,142.590384 178.89812,142.590384 C177.065767,142.590384 175.566569,144.071073 175.566569,145.940443 C175.566569,147.809814 177.065767,149.271994 178.89812,149.271994 Z M178.108419,148.105952 L177.182989,148.105952 L177.182989,143.750257 L179.212767,143.750257 C179.471887,143.750257 180.866203,143.750257 180.866203,145.05203 C180.866203,145.878748 180.273928,146.11936 180.057994,146.218073 L180.866203,148.105952 L179.879077,148.105952 L179.16958,146.372311 L178.108419,146.372311 L178.108419,148.105952 Z M178.108419,145.644306 L179.070867,145.644306 C179.385514,145.644306 179.897586,145.570271 179.897586,145.033521 C179.897586,144.774401 179.718669,144.459754 179.151071,144.459754 L178.108419,144.459754 L178.108419,145.644306 Z M0.00616953893,48.1347427 L36.5421791,48.1347427 C56.5931806,48.1347427 69.0741579,60.6527372 69.0741579,80.4384486 L69.0741579,117.690125 C69.0741579,137.482006 56.5993501,149.99383 36.5421791,149.99383 L0.00616953893,149.99383 L0.00616953893,48.1347427 Z M36.5421791,137.050138 C48.1285732,137.050138 54.514046,129.628182 54.514046,115.802246 L54.514046,82.332497 C54.514046,68.5065603 48.1285732,61.2326739 36.5421791,61.2326739 L14.5601119,61.2326739 L14.5601119,137.050138 L36.5421791,137.050138 Z M155.237939,48.1347427 L169.791881,48.1347427 L169.791881,150 L155.237939,150 L155.237939,48.1347427 Z M27.7937729,0.746514211 L49.2514293,0.746514211 L49.2514293,5.5155678 L33.0934068,5.5155678 L33.0934068,16.5837206 L46.5491712,16.5837206 L46.5491712,21.2972484 L33.0934068,21.2972484 L33.0934068,33.1057459 L49.6339407,33.1057459 L49.6339407,37.8192736 L27.7999424,37.8192736 L27.7999424,0.740344672 L27.7937729,0.746514211 Z M89.5200099,5.46004195 L79.4636614,5.46004195 L79.4636614,0.746514211 L104.869823,0.746514211 L104.869823,5.46004195 L94.8134743,5.46004195 L94.8134743,37.8254432 L89.5200099,37.8254432 L89.5200099,5.46004195 L89.5200099,5.46004195 Z M133.00292,0.746514211 L138.302554,0.746514211 L138.302554,37.8254432 L133.00292,37.8254432 L133.00292,0.746514211 Z M143.744088,0.746514211 L149.420063,0.746514211 L164.658824,28.447744 L164.547773,0.746514211 L169.791881,0.746514211 L169.791881,37.8254432 L164.004853,37.8254432 L148.815449,10.2290955 L148.975857,37.8254432 L143.731748,37.8254432 L143.731748,0.746514211 L143.744088,0.746514211 Z M19.6931683,28.4724222 C19.2427919,31.7422778 16.4479908,33.7967343 12.5426726,33.7967343 C8.2733517,33.7967343 5.29963394,31.0944762 5.29963394,26.0601324 L5.29963394,12.4994859 C5.29963394,7.46514211 8.2733517,4.76905359 12.5426726,4.76905359 C16.5467034,4.76905359 19.3785218,6.92839222 19.7178464,10.2969605 L24.9742936,10.2969605 L24.9742936,10.2784519 C24.9742936,4.34952495 19.8412372,0 12.5426726,0 C5.24410809,0 0,4.55311973 0,11.7591412 L0,26.8004771 C0,33.9509727 5.24410809,38.5596183 12.5426726,38.5596183 C19.8412372,38.5596183 24.8570723,34.3026364 24.9619545,28.4662526 L19.6931683,28.4662526 L19.6931683,28.4724222 Z M117.227409,0.746514211 L112.143709,0.746514211 L99.1753383,37.8254432 L105.011722,37.8254432 L114.630033,6.94690083 L119.713733,22.9445153 L112.520051,22.9445153 L111.088718,27.5531609 L121.120388,27.5531609 L124.365566,37.8316127 L130.20195,37.8316127 L117.227409,0.752683749 L117.227409,0.746514211 Z M119.078271,113.328261 C141.652614,113.328261 146.847366,100.378398 146.847366,84.6584132 L146.847366,78.9824374 C146.847366,59.1905565 134.372558,48.1285732 114.315387,48.1285732 L77.7793773,48.1285732 L77.7793773,149.99383 L92.3333196,149.99383 L92.3333196,61.2326739 L114.315387,61.2326739 C126.04985,61.2326739 132.287254,67.198618 132.287254,80.8764858 L132.287254,82.9124337 C132.287254,97.466376 125.451405,101.970139 113.124666,101.970139 L100.35372,101.951631 L100.35372,111.440382 L133.021429,150 L150.252951,150 L119.065932,113.328261 L119.078271,113.328261 Z M68.6422901,24.4622219 C76.8292683,24.4622219 78.7171472,19.7672027 78.7171472,14.0665488 L78.7171472,12.0059228 C78.7171472,4.82457944 74.1887056,0.814379139 66.9148192,0.814379139 L53.6626496,0.814379139 L53.6626496,37.7637478 L58.9437749,37.7637478 L58.9437749,5.56492411 L66.9148192,5.56492411 C71.1718011,5.56492411 73.4360219,7.73043228 73.4360219,12.6907416 L73.4360219,13.4310863 C73.4360219,18.7122116 70.9558672,20.3471394 66.4829515,20.3471394 L61.8496278,20.3471394 C61.8496278,20.3471394 61.8496278,23.7835726 61.8496278,23.7835726 L73.7013121,37.7699173 L79.951055,37.7699173 L68.6422901,24.4683914 L68.6422901,24.4622219 Z" id="Shape"></path>
        </g>
    </g>
</svg>