<?xml version="1.0" encoding="UTF-8"?>
<svg width="400px" height="60px" viewBox="0 0 400 60" version="1.1" xmlns="http://www.w3.org/2000/svg" xmlns:xlink="http://www.w3.org/1999/xlink">
    <title>brand-thermacare</title>
    <g id="Page-1" stroke="none" stroke-width="1" fill="none" fill-rule="evenodd">
        <g id="brand-thermacare" fill="#CC202D" fill-rule="nonzero">
            <path d="M332.025007,22.1923893 C331.334716,23.7297707 325.581873,37.1807637 325.581873,37.1807637 L337.575447,37.1807637 C337.575447,37.1807637 342.709213,25.1940623 343.363896,24.2201584 C344.467737,22.5172323 346.582964,19.4449684 350.952725,17.9875484 C354.409803,16.7675136 359.758465,17.0086471 361.179653,17.0086471 L363.626595,11.8261541 C363.626595,11.8261541 351.397511,11.5075582 349.681465,11.6668561 C343.567548,11.9879508 339.000383,13.8526737 336.712739,15.8791933 C334.18896,18.0656357 332.720296,20.6575068 332.025007,22.1923893 Z M120.011944,22.1923893 C119.277299,23.7297707 113.570685,37.1807637 113.570685,37.1807637 L125.56051,37.1807637 C125.56051,37.1807637 130.658668,25.1940623 131.391439,24.2201584 C132.49528,22.5172323 134.530545,19.4449684 138.934665,17.9875484 C142.397989,16.7675136 147.746652,17.0086471 149.169713,17.0086471 L151.618529,11.8261541 C151.618529,11.8261541 139.384447,11.5075582 137.671525,11.6668561 C131.552611,11.9879508 126.988569,13.8526737 124.663444,15.8791933 C122.177146,18.0656357 120.705358,20.6575068 120.011944,22.1923893 Z M304.418361,33.3751047 C310.006284,33.132722 313.635777,29.6475329 314.655284,28.1095269 C315.759125,26.567148 317.06162,23.8141048 317.06162,23.8141048 C310.784657,25.0310161 300.955037,26.567148 298.993485,30.6176885 C298.261965,32.1613168 300.670175,33.3751047 304.418361,33.3751047 Z M322.358433,37.2569768 L311.594265,37.2569768 L312.698107,34.7538127 C308.537619,36.7715867 304.751951,37.8298247 298.669268,37.8298247 C291.412153,37.8298247 285.949796,34.6694785 287.496548,30.7001487 C288.722205,27.4604659 292.877695,25.0310161 299.320828,23.3305888 C302.093236,22.6821524 307.232,21.628912 311.027664,20.8986403 C315.880941,19.8441503 319.142489,20.1689932 319.507312,18.0656357 C319.917739,15.3925539 313.758219,15.2288829 309.923823,15.5555999 C306.050072,15.7967333 302.055755,16.6082157 298.669268,17.6558339 L296.873261,13.7720877 C302.175072,12.1509969 311.066396,10.9372091 316.818613,11.1008799 C324.321859,11.3388898 331.459655,12.5558011 330.718764,17.5777467 C330.516987,19.1163773 322.358433,37.2569768 322.358433,37.2569768 Z M229.103545,33.3751047 C234.732697,33.132722 238.319712,29.6475329 239.377951,28.1095269 C240.436188,26.567148 241.745555,23.8141048 241.745555,23.8141048 C235.501076,25.0310161 225.678328,26.567148 223.718025,30.6176885 C222.985255,32.1613168 225.389717,33.3751047 229.103545,33.3751047 Z M247.044867,37.2569768 L236.321928,37.2569768 L237.383291,34.7538127 C233.260909,36.7715867 229.513972,37.8298247 223.391933,37.8298247 C216.092964,37.8298247 210.669339,34.6694785 212.216089,30.7001487 C213.441747,27.4604659 217.605357,25.0310161 224.009135,23.3305888 C226.816527,22.6821524 231.957789,21.628912 235.705976,20.8986403 C240.602357,19.8441503 243.863905,20.1689932 244.189372,18.0656357 C244.596051,15.3925539 238.482133,15.2288829 234.650861,15.5555999 C230.774612,15.7967333 226.777171,16.6082157 223.357575,17.6558339 L221.600925,13.7720877 C226.860256,12.1509969 235.828417,10.9372091 241.502548,11.1008799 C249.039527,11.3388898 256.179197,12.5558011 255.448301,17.5777467 C255.236528,19.1163773 247.044867,37.2569768 247.044867,37.2569768 Z M304.703224,4.53343193 C300.955037,3.64511167 297.814681,3.07913545 290.347668,3.15659799 C273.345893,3.32089351 258.338153,12.314043 255.816248,23.7297707 C254.385065,30.1341725 258.791059,36.4517413 272.407597,37.748614 C277.180288,38.1534181 279.667835,37.9891227 282.645769,37.4218971 L284.889684,32.4036996 C281.830539,33.213308 279.094987,33.3751047 277.790617,33.213308 C271.265024,32.6410848 267.882911,29.4857361 269.312844,23.3305888 C271.020768,16.0378667 277.258376,10.3687341 287.126727,7.93491147 C291.613931,6.80733193 298.46874,7.61569088 302.301885,9.15182277 L304.703224,4.53343193 Z M69.0391021,11.2608025 C63.8622315,10.6948263 56.4820516,11.4225993 52.4021503,13.1267749 L58.0712828,0 L4.12050669,0 L0,5.59291941 L19.8341552,5.59291941 L4.07927664,37.1807637 L16.5307532,37.1807637 L32.1650651,5.59291941 L44.37166,5.59291941 L29.7162496,37.1807637 L41.2700355,37.1807637 C41.2700355,37.1807637 45.5129829,26.8139037 47.5882291,23.1706661 C49.2236879,20.1689932 52.4852351,15.7967333 60.9661324,15.6330624 C64.4725612,15.5555999 65.7788043,17.0086471 65.452712,18.0656357 C65.0878885,19.2800483 57.1317373,37.1807637 57.1317373,37.1807637 L68.3875423,37.1807637 C68.3875423,37.1807637 74.4627284,22.7646125 75.8458093,19.8441503 C77.3569533,16.6894264 77.0364833,12.4727163 69.0391021,11.2608025 Z M154.146056,11.5075582 L142.604764,37.1807637 L154.389688,37.1807637 C154.389688,37.1807637 160.220617,23.1706661 161.15704,21.9575029 C165.07452,17.0086471 168.420401,15.6330624 173.026297,15.5555999 C175.796208,15.5555999 177.469773,16.5245063 177.184911,18.3105172 C176.978136,19.4449684 168.990125,37.1807637 168.990125,37.1807637 L181.099268,37.1807637 C181.099268,37.1807637 186.156196,24.7074227 187.540527,22.2779729 C191.214999,16.1184527 196.920364,15.5555999 199.204884,15.5555999 C202.260905,15.5555999 204.01818,16.7675136 203.446583,18.3854809 C202.713812,20.4163735 195.168712,37.1807637 195.168712,37.1807637 L206.875548,37.1807637 C206.875548,37.1807637 214.909161,19.6080145 215.237753,18.4698152 C216.420305,14.0956812 211.034161,10.8591219 204.175604,11.1008799 C198.472113,11.2608025 194.108599,11.8261541 188.523801,14.9865003 C187.540527,12.8787699 183.831071,10.9372091 178.573615,10.9372091 C170.784257,11.0171704 165.846021,12.8787699 163.608979,14.3355651 L164.827139,11.5075582 L154.146056,11.5075582 Z M385.487269,15.2288829 C379.125972,15.2288829 376.556589,16.8487244 373.090141,20.4163735 L389.1961,20.4163735 C389.932619,18.7965321 389.974473,15.2288829 385.487269,15.2288829 Z M391.967884,35.4765881 C386.591111,37.4218971 379.413957,38.4751375 374.555683,38.4751375 C360.282587,38.4751375 355.228781,32.1613168 357.180963,25.7587891 C359.393643,18.6328613 368.931528,11.1008799 384.795104,11.1008799 C391.516852,11.1008799 401.839359,12.233457 399.717885,20.5750468 C399.353061,21.9575029 399.188767,22.9195376 398.615293,24.4625412 L370.644449,24.4625412 C370.150939,25.3508615 369.786115,26.4072255 369.584337,27.5385532 C368.723504,32.1613168 372.357371,34.0216669 376.556589,33.9392068 C379.980559,33.9392068 389.074284,32.4867844 393.805745,30.3753059 L391.967884,35.4765881 Z M103.784794,15.2288829 C97.4609778,15.2288829 94.89347,16.8487244 91.3876658,20.4163735 L107.539852,20.4163735 C108.229519,18.7965321 108.268875,15.2288829 103.784794,15.2288829 Z M110.309138,35.4765881 C104.928615,37.4218971 97.7071088,38.4751375 92.8994345,38.4751375 C78.5819857,38.4751375 73.5662871,32.1613168 75.4834847,25.7587891 C77.6849196,18.6328613 87.228428,11.1008799 103.133234,11.1008799 C109.861854,11.1008799 120.138757,12.233457 118.054766,20.5750468 C117.647463,21.9575029 117.486291,22.9195376 116.914692,24.4625412 L88.9388505,24.4625412 C88.4946904,25.3508615 88.1273681,26.4072255 87.9243413,27.5385532 C87.0666312,32.1613168 90.6911278,34.0216669 94.89347,33.9392068 C98.2799568,33.9392068 107.414288,32.4867844 112.186355,30.3753059 L110.309138,35.4765881 L110.309138,35.4765881 Z" id="Fill-3"></path>
            <path d="M394.512903,45.8353271 L395.291276,45.8353271 L396.440096,47.6388296 L397.58954,45.8353271 L398.343549,45.8353271 L398.343549,49.640986 L397.638891,49.640986 L397.638891,46.9347952 L396.465084,48.7632856 L396.390744,48.7632856 L395.216937,46.9347952 L395.216937,49.640986 L394.512903,49.640986 L394.512903,45.8353271 Z M391.793593,46.5025043 L390.620411,46.5025043 L390.620411,45.8353271 L393.697048,45.8353271 L393.697048,46.5025043 L392.52324,46.5025043 L392.52324,49.640986 L391.793593,49.640986 L391.793593,46.5025043 Z M381.636632,53.9439044 L376.319829,45.8353271 L379.092863,45.8353271 L382.841049,51.7637092 L386.628592,45.8353271 L389.324788,45.8353271 L384.007985,53.8870569 L384.007985,59.2219761 L381.636632,59.2219761 L381.636632,53.9439044 Z M371.041757,52.7963345 C372.820896,52.7963345 373.929111,51.8018157 373.929111,50.4056161 L373.929111,50.3681343 C373.929111,48.7988933 372.800907,47.9767911 371.041757,47.9767911 L368.307455,47.9767911 L368.307455,52.7963345 L371.041757,52.7963345 Z M365.954843,45.8353271 L371.232915,45.8353271 C374.350781,45.8353271 376.319829,47.6138416 376.319829,50.3100373 L376.319829,50.3481439 C376.319829,53.3516909 373.910369,54.9190577 370.965544,54.9190577 L368.307455,54.9190577 L368.307455,59.2219761 L365.954843,59.2219761 L365.954843,45.8353271 Z M359.878408,53.9057979 L357.564527,48.5508884 L355.270012,53.9057979 L359.878408,53.9057979 Z M356.512536,45.7391236 L358.692731,45.7391236 L364.583007,59.2219761 L362.096709,59.2219761 L360.738616,55.9897897 L354.408553,55.9897897 L353.03172,59.2219761 L350.62226,59.2219761 L356.512536,45.7391236 Z M343.736841,52.4708671 C345.419777,52.4708671 346.490509,51.5919172 346.490509,50.2338243 L346.490509,50.1957176 C346.490509,48.7614115 345.457259,47.9767911 343.716851,47.9767911 L340.294132,47.9767911 L340.294132,52.4708671 L343.736841,52.4708671 Z M337.94152,45.8353271 L343.908008,45.8353271 C345.590944,45.8353271 346.910305,46.3325864 347.77114,47.1740544 C348.479547,47.900578 348.880603,48.8950968 348.880603,50.0620323 L348.880603,50.0995141 C348.880603,52.2990752 347.561241,53.6184369 345.686523,54.1538029 L349.301649,59.2219761 L346.527991,59.2219761 L343.238332,54.5561083 L340.294132,54.5561083 L340.294132,59.2219761 L337.94152,59.2219761 L337.94152,45.8353271 Z M325.126469,45.8353271 L335.051668,45.8353271 L335.051668,47.9386845 L327.478456,47.9386845 L327.478456,51.4195007 L334.191459,51.4195007 L334.191459,53.5228581 L327.478456,53.5228581 L327.478456,57.1186187 L335.147871,57.1186187 L335.147871,59.2219761 L325.126469,59.2219761 L325.126469,45.8353271 Z M310.590376,45.8353271 L312.942363,45.8353271 L312.942363,51.4001351 L319.330523,51.4001351 L319.330523,45.8353271 L321.682511,45.8353271 L321.682511,59.2219761 L319.330523,59.2219761 L319.330523,53.5809551 L312.942363,53.5809551 L312.942363,59.2219761 L310.590376,59.2219761 L310.590376,45.8353271 Z M301.485405,48.0155223 L297.239959,48.0155223 L297.239959,45.8353271 L308.102204,45.8353271 L308.102204,48.0155223 L303.856759,48.0155223 L303.856759,59.2219761 L301.485405,59.2219761 L301.485405,48.0155223 Z M283.352927,48.0155223 L279.107481,48.0155223 L279.107481,45.8353271 L289.969727,45.8353271 L289.969727,48.0155223 L285.72428,48.0155223 L285.72428,59.2219761 L283.352927,59.2219761 L283.352927,48.0155223 Z M275.548577,53.9057979 L273.234697,48.5508884 L270.940181,53.9057979 L275.548577,53.9057979 Z M272.182705,45.7391236 L274.362901,45.7391236 L280.253176,59.2219761 L277.76688,59.2219761 L276.408787,55.9897897 L270.078724,55.9897897 L268.701889,59.2219761 L266.292431,59.2219761 L272.182705,45.7391236 Z M254.624949,45.8353271 L264.550148,45.8353271 L264.550148,47.9386845 L256.976936,47.9386845 L256.976936,51.4195007 L263.689939,51.4195007 L263.689939,53.5228581 L256.976936,53.5228581 L256.976936,57.1186187 L264.645727,57.1186187 L264.645727,59.2219761 L254.624949,59.2219761 L254.624949,45.8353271 Z M240.088856,45.8353271 L242.440219,45.8353271 L242.440219,51.4001351 L248.829003,51.4001351 L248.829003,45.8353271 L251.180991,45.8353271 L251.180991,59.2219761 L248.829003,59.2219761 L248.829003,53.5809551 L242.440219,53.5809551 L242.440219,59.2219761 L240.088856,59.2219761 L240.088856,45.8353271 L240.088856,45.8353271 Z" id="Fill-4"></path>
        </g>
    </g>
</svg>