<?xml version="1.0" encoding="UTF-8"?>
<svg width="277px" height="75px" viewBox="0 0 277 75" version="1.1" xmlns="http://www.w3.org/2000/svg" xmlns:xlink="http://www.w3.org/1999/xlink">
    <title>brand-florajen</title>
    <g id="Page-1" stroke="none" stroke-width="1" fill="none" fill-rule="evenodd">
        <g id="brand-florajen" fill-rule="nonzero">
            <g id="Group" transform="translate(0, 4.5157)" fill="#EC008C">
                <path d="M0,59.3184899 C0,60.1303481 0.826269864,60.6827961 1.57567741,60.3705429 L9.86719941,56.9357582 C10.294746,56.7580142 10.5733719,56.3448792 10.5733719,55.8837054 L10.5733719,33.9395151 L24.4422155,33.9395151 C25.1579959,33.9395151 25.7825021,33.4591256 25.9698539,32.7721686 L27.9586663,25.4462295 C28.2324883,24.4422155 27.473473,23.4526132 26.4310279,23.4526132 L10.5733719,23.4526132 L10.5733719,11.615817 C10.5733719,10.9913107 11.0777808,10.4869018 11.7022871,10.4869018 L30.4422797,10.4869018 C31.0379628,10.4869018 31.5711951,10.1073941 31.7681548,9.54533848 L34.43912,1.86391109 C34.7561771,0.951171122 34.078828,0 33.1132451,0 L7.59495728,0 C3.40115734,0 0,3.40115734 0,7.59495728 L0,59.3088822 L0,59.3184899 Z" id="Path"></path>
                <path d="M63.3537614,35.6737209 C63.3537614,28.4870947 69.4402958,22.957812 76.3290806,22.957812 C83.2178654,22.957812 89.3043997,28.4870947 89.3043997,35.6737209 C89.3043997,42.8603472 83.2178654,48.3896299 76.3290806,48.3896299 C69.4402958,48.3896299 63.3537614,42.8603472 63.3537614,35.6737209 M53.7459723,35.6737209 C53.7459723,48.3079637 64.3193442,57.9685956 76.3290806,57.9685956 C88.338817,57.9685956 98.9121889,48.3079637 98.9121889,35.6737209 C98.9121889,23.0394783 88.338817,13.3836502 76.3290806,13.3836502 C64.3193442,13.3836502 53.7459723,23.0442821 53.7459723,35.6737209" id="Shape"></path>
                <path d="M107.919491,13.5710021 L101.03551,15.944126 C100.444631,16.1506935 100.194829,16.8520621 100.531101,17.3804905 L101.256489,18.5286213 C102.649619,20.728805 103.389419,23.2748692 103.389419,25.8785799 L103.389419,57.0078167 C103.389419,57.7235969 103.97069,58.3048682 104.68647,58.3048682 L112.267016,58.3048682 C112.982796,58.3048682 113.564067,57.7235969 113.564067,57.0078167 L113.564067,36.495187 C113.564067,29.4238541 116.624148,25.2588776 124.757142,23.2892808 C125.17508,23.1883989 125.516157,22.8761458 125.636254,22.463011 L127.822026,14.9689354 C128.057417,14.1810967 127.432911,13.2827684 126.621053,13.4220814 C121.649022,14.2819785 117.373556,15.8000092 113.16054,21.3004684 L112.997208,21.3004684 C112.286231,18.0722514 111.186139,15.7087353 108.846643,13.7295306 C108.592036,13.5133554 108.231744,13.4557086 107.914687,13.5661982 L107.919491,13.5710021 Z" id="Path"></path>
                <path d="M178.973908,14.7047212 L178.973908,58.2952605 C178.9787,63.8053275 176.005089,67.87903 173.76167,70.1704878 C173.463829,70.477937 173.007459,70.569211 172.618342,70.4010747 C169.836887,69.2145127 167.19955,67.7493249 164.735153,66.0535502 C164.139469,65.6452191 164.125057,64.7468908 164.735153,64.3529714 C168.669542,61.7828879 168.80405,56.397722 168.80405,56.397722 L168.80405,15.5213833 C168.80405,15.0602094 169.159539,14.671094 169.625517,14.623055 L177.979489,13.806393 C178.512722,13.7535501 178.973908,14.1714889 178.973908,14.7047212 L178.973908,14.7047212 Z" id="Path"></path>
                <path d="M221.75738,23.3901626 C219.533178,16.5253973 212.591549,13.3788463 205.794039,13.3788463 C193.784302,13.3788463 183.624065,23.2988885 183.624065,35.9331313 C183.624065,48.567374 193.779498,57.9637917 205.794039,57.9637917 C211.107146,57.9637917 216.482704,56.4121338 221.089639,53.5970516 C222.10326,52.9773492 222.501983,51.704317 221.987967,50.6330486 L219.658079,45.7811151 C219.072004,44.556122 217.549169,44.1093598 216.396234,44.8251401 C212.942233,46.9628732 209.555488,48.3848259 205.236786,48.3848259 C200.351227,48.3848259 198.107807,45.9108202 197.310361,44.1766144 C204.910122,43.3599523 213.264095,41.4239828 218.519555,35.2269588 C221.4115,31.8161936 223.088059,27.4878846 221.762184,23.3901626 L221.75738,23.3901626 Z M194.130183,35.9715624 C193.784302,33.7761826 194.082144,31.6384495 194.966061,29.6064022 C195.677036,27.9778819 196.733893,26.4982823 198.064572,25.3165243 C199.376036,24.149178 200.951713,23.2844769 202.652292,22.8521265 C203.502581,22.6359512 204.37689,22.5254616 205.256002,22.5254616 C209.00304,22.5254616 214.215265,25.0907412 211.212831,29.4622854 C207.835695,34.3862773 194.163811,38.2149812 194.130183,35.9667586 L194.130183,35.9715624 Z" id="Shape"></path>
                <path d="M237.480527,19.8737118 L237.763957,19.4894002 C241.20835,14.6999173 244.571075,13.3788463 250.258886,13.3788463 C258.670506,13.3788463 264.276651,18.9129328 264.276651,27.8241572 L264.276651,56.7820336 C264.276651,57.541049 263.661753,58.1559475 262.902737,58.1559475 L255.471112,58.1559475 C254.712096,58.1559475 254.097198,57.541049 254.097198,56.7820336 L254.097198,30.6296317 C254.097198,26.1716176 252.093975,22.4582071 247.530274,22.4582071 C241.121879,22.4582071 238.157876,27.4974925 238.157876,32.7769725 L238.157876,56.5514467 C238.157876,57.079875 237.749545,57.5170295 237.221116,57.5506567 L229.064104,58.0790852 C228.482833,58.1175163 227.992836,57.6515386 227.99764,57.0702673 C228.12254,36.1541103 229.251456,21.4878203 226.028043,16.8088271 C225.538045,16.0978506 225.898338,15.1226601 226.729411,14.9016809 L234.146624,12.9080647 C234.526132,12.7975751 234.934463,12.936888 235.160246,13.258749 C235.90485,14.3300175 237.432489,16.8952972 237.470919,19.8689078 L237.480527,19.8737118 Z" id="Path"></path>
                <path d="M270.848379,16.7415725 C267.644181,16.7415725 265.011648,14.1570773 265.011648,10.84239 C265.011648,7.52770277 267.644181,4.94801139 270.848379,4.94801139 C274.052577,4.94801139 276.694719,7.53250666 276.694719,10.84239 C276.694719,14.1522734 274.033361,16.7415725 270.848379,16.7415725 Z M270.848379,5.9135942 C268.230256,5.9135942 266.154974,8.07054286 266.154974,10.84239 C266.154974,13.6142372 268.230256,15.7904013 270.848379,15.7904013 C273.466502,15.7904013 275.556196,13.5998255 275.556196,10.84239 C275.556196,8.08495454 273.447286,5.9135942 270.848379,5.9135942 L270.848379,5.9135942 Z M272.164646,14.1282539 L271.592982,13.1002205 C271.136613,12.2931662 270.833967,11.846404 270.468871,11.481308 C270.339167,11.3516028 270.243088,11.2891522 270.041325,11.2747405 L270.041325,14.1282539 L268.965252,14.1282539 L268.965252,7.53250666 L270.978085,7.53250666 C272.448075,7.53250666 273.115817,8.38759989 273.115817,9.42043721 C273.115817,10.4532746 272.467291,11.2267016 271.487297,11.2267016 C271.722688,11.3516028 272.155038,11.9857169 272.500918,12.5429687 L273.466502,14.1282539 L272.16945,14.1282539 L272.164646,14.1282539 Z M270.036521,8.42122715 L270.036521,10.5109213 L270.608184,10.5109213 C271.179847,10.5109213 271.482493,10.434059 271.674649,10.2274915 C271.866804,10.0545513 271.977293,9.76631762 271.977293,9.43484891 C271.977293,8.76710756 271.607395,8.42122715 270.646615,8.42122715 L270.041325,8.42122715 L270.036521,8.42122715 Z" id="Shape"></path>
                <rect id="Rectangle" x="37.8883163" y="0.0576467347" width="11.0153302" height="57.5554606" rx="3.14"></rect>
                <path d="M131.045439,20.9161569 C130.843676,21.6031138 131.439359,22.2612474 132.140727,22.1267384 C134.994241,21.5790943 137.804519,21.1899788 141.272931,21.1899788 C146.096041,21.1899788 151.058465,21.3965464 151.058465,27.2188666 C151.058465,28.1460182 150.986406,29.5343437 150.914347,30.4999265 C150.895131,30.7257095 150.654938,30.8506108 150.453173,30.749729 C146.634077,28.8041517 144.088013,28.3621934 139.745293,28.3621934 C131.972591,28.3621934 125.021356,35.6785249 125.021356,43.4416185 C125.021356,53.2223477 131.890925,58.5354551 140.725287,58.5354551 C144.568403,58.5354551 148.248186,57.0174244 151.111308,54.485772 C151.851107,56.6187012 153.18659,58.1511436 154.992854,59.2128042 C155.396381,59.4481952 155.895986,59.4433913 156.289905,59.1935888 L162.40046,55.3072379 C163.039378,54.898907 163.164279,54.0197943 162.659869,53.4529348 L162.064187,52.7851934 C161.11782,51.7235327 160.598999,50.3496188 160.598999,48.9228621 L160.598999,25.0619179 C160.598999,16.3764765 152.230614,12.6150271 144.789382,12.6150271 C141.253715,12.6150271 137.847754,12.3652246 134.355323,12.9609075 C133.50023,13.1050244 132.822881,13.758354 132.616313,14.5990356 L131.040636,20.9209608 L131.045439,20.9161569 Z M134.67238,42.8891706 C134.67238,38.7530174 138.750886,36.173326 142.574786,36.173326 C146.398687,36.173326 150.481998,38.7482135 150.481998,42.8891706 C150.481998,47.0301277 146.062414,49.7731515 142.23371,49.7731515 C138.405006,49.7731515 134.67238,47.1165978 134.67238,42.8891706" id="Shape"></path>
            </g>
            <circle id="Oval" fill="#FAD5E5" cx="148.123285" cy="6.11535776" r="6.11535776"></circle>
            <circle id="Oval" fill="#F6ADCD" cx="161.233113" cy="6.11535776" r="6.11535776"></circle>
            <circle id="Oval" fill="#EC008C" cx="174.342942" cy="6.11535776" r="6.11535776"></circle>
        </g>
    </g>
</svg>