<?xml version="1.0" encoding="UTF-8"?>
<svg width="300px" height="111px" viewBox="0 0 300 111" version="1.1" xmlns="http://www.w3.org/2000/svg" xmlns:xlink="http://www.w3.org/1999/xlink">
    <title>brand-lipo-flavonoid</title>
    <g id="Page-1" stroke="none" stroke-width="1" fill="none" fill-rule="evenodd">
        <g id="brand-lipo-flavonoid" fill-rule="nonzero">
            <g id="Group" transform="translate(123.7438, 21.1957)" fill="#EF4230">
                <path d="M10.7645777,13.0434783 C10.4180958,13.0434783 10.1419146,12.7760177 10.1419146,12.4512442 L10.1419146,0.592234091 C10.1419146,0.262684476 10.4231173,0 10.7645777,0 C11.1060381,0 11.3872408,0.267460558 11.3872408,0.592234091 L11.3872408,12.4512442 C11.3872408,12.7807938 11.1060381,13.0434783 10.7645777,13.0434783 Z" id="Path"></path>
                <path d="M13.2602515,10.7939439 C12.9137697,10.7939439 12.6375884,10.5264834 12.6375884,10.2017098 L12.6375884,2.85132059 C12.6375884,2.52177098 12.9187911,2.2590865 13.2602515,2.2590865 C13.6017119,2.2590865 13.8829146,2.52654705 13.8829146,2.85132059 L13.8829146,10.2017098 C13.8829146,10.5312595 13.6017119,10.7939439 13.2602515,10.7939439 Z" id="Path"></path>
                <path d="M15.7559253,8.59694649 C15.4094435,8.59694649 15.1332623,8.32948594 15.1332623,8.0047124 L15.1332623,5.03876587 C15.1332623,4.70921624 15.4144649,4.44653177 15.7559253,4.44653177 C16.0973857,4.44653177 16.3785884,4.71399232 16.3785884,5.03876587 L16.3785884,8.0047124 C16.3785884,8.33426201 16.0973857,8.59694649 15.7559253,8.59694649 Z" id="Path"></path>
                <path d="M18.2465776,7.88531037 C17.9000958,7.88531037 17.6239147,7.6178498 17.6239147,7.29307628 L17.6239147,5.75040199 C17.6239147,5.42085237 17.9051173,5.15816789 18.2465776,5.15816789 C18.5880381,5.15816789 18.8692407,5.42562846 18.8692407,5.75040199 L18.8692407,7.29307628 C18.8692407,7.62262589 18.5880381,7.88531037 18.2465776,7.88531037 Z" id="Path"></path>
                <path d="M8.2739254,10.7939439 C7.92744352,10.7939439 7.65126232,10.5264834 7.65126232,10.2017098 L7.65126232,2.85132059 C7.65126232,2.52177098 7.93246501,2.2590865 8.2739254,2.2590865 C8.6153858,2.2590865 8.89658849,2.52654705 8.89658849,2.85132059 L8.89658849,10.2017098 C8.89658849,10.5312595 8.6153858,10.7939439 8.2739254,10.7939439 Z" id="Path"></path>
                <path d="M5.7782516,8.59694649 C5.43176972,8.59694649 5.15558851,8.32948594 5.15558851,8.0047124 L5.15558851,5.03876587 C5.15558851,4.70921624 5.43679121,4.44653177 5.7782516,4.44653177 C6.119712,4.44653177 6.40091469,4.71399232 6.40091469,5.03876587 L6.40091469,8.0047124 C6.40091469,8.33426201 6.119712,8.59694649 5.7782516,8.59694649 Z" id="Path"></path>
                <path d="M3.28759927,7.88531037 C2.94111739,7.88531037 2.66493619,7.6178498 2.66493619,7.29307628 L2.66493619,5.75040199 C2.66493619,5.42085237 2.94613888,5.15816789 3.28759927,5.15816789 C3.62905967,5.15816789 3.91026236,5.42562846 3.91026236,5.75040199 L3.91026236,7.29307628 C3.91026236,7.62262589 3.62905967,7.88531037 3.28759927,7.88531037 Z" id="Path"></path>
                <path d="M0.791925465,7.70859536 C0.445443589,7.70859536 0.169262383,7.44113479 0.169262383,7.11636126 L0.169262383,5.93189307 C0.169262383,5.60234346 0.450465065,5.33965899 0.791925465,5.33965899 C1.13338586,5.33965899 1.41458855,5.60711954 1.41458855,5.93189307 L1.41458855,7.11636126 C1.41458855,7.44591088 1.13338586,7.70859536 0.791925465,7.70859536 Z" id="Path"></path>
                <path d="M20.7422515,7.70859536 C20.3957696,7.70859536 20.1195884,7.44113479 20.1195884,7.11636126 L20.1195884,5.93189307 C20.1195884,5.60234346 20.400791,5.33965899 20.7422515,5.33965899 C21.0837119,5.33965899 21.3649145,5.60711954 21.3649145,5.93189307 L21.3649145,7.11636126 C21.3649145,7.44591088 21.0837119,7.70859536 20.7422515,7.70859536 Z" id="Path"></path>
            </g>
            <g id="Group">
                <g transform="translate(0, 63.178)" fill="#A32035">
                    <polygon id="Path" points="0 46.9703101 7.06677797 46.9703101 7.06677797 27.0813038 26.8898164 27.0813038 26.8898164 21.2012499 7.06677797 21.2012499 7.06677797 6.27573027 29.7846411 6.27573027 29.7846411 0.395676529 0 0.395676529"></polygon>
                    <rect id="Rectangle" x="35.0233722" y="0.395676529" width="6.87145242" height="46.5696249"></rect>
                    <path d="M75.5859766,18.3413601 C72.7562604,14.6901172 68.8347245,12.8419572 63.9115192,12.8419572 C54.3105175,12.8419572 47.3388982,20.1694859 47.3388982,30.2667502 C47.3388982,40.3640146 54.3055092,47.6915432 63.9115192,47.6915432 C68.8347245,47.6915432 72.7612687,45.8433832 75.5859766,42.1871317 L75.5859766,46.9653015 L82.4524206,46.9653015 L82.4524206,13.5631904 L75.5859766,13.5631904 L75.5859766,18.3413601 L75.5859766,18.3413601 Z M75.7161937,30.2617417 C75.6510852,36.9030971 71.1185308,41.5460356 64.6978298,41.5460356 C58.2771285,41.5460356 54.2053422,36.9081056 54.2053422,30.2617417 C54.2053422,23.6153777 58.5175292,18.9824563 64.6978298,18.9824563 C70.8781301,18.9824563 75.6510852,23.6203863 75.7161937,30.2617417 Z" id="Shape"></path>
                    <polygon id="Path" points="103.146911 38.9916681 93.7562604 13.7234644 93.7011686 13.5631904 86.4641068 13.5631904 99.3005008 46.8150445 99.3606009 46.9703101 106.933222 46.9703101 119.824708 13.5631904 112.592654 13.5631904"></polygon>
                    <path d="M138.826377,12.8419572 C129.1803,12.8419572 121.33222,20.6603251 121.33222,30.2667502 C121.33222,39.8731753 129.1803,47.6915432 138.826377,47.6915432 C148.472454,47.6915432 156.385643,39.8731753 156.385643,30.2667502 C156.385643,20.6603251 148.507512,12.8419572 138.826377,12.8419572 L138.826377,12.8419572 Z M149.51419,30.3318615 C149.51419,36.5174377 144.721202,41.5510442 138.826377,41.5510442 C132.931553,41.5510442 128.203673,36.5174377 128.203673,30.3318615 C128.203673,24.1462855 132.971619,18.9824563 138.826377,18.9824563 C144.681135,18.9824563 149.51419,24.0711569 149.51419,30.3318615 Z" id="Shape"></path>
                    <path d="M179.253756,12.8419572 C174.110183,12.8419572 170.163606,15.1308708 168.430718,19.0375505 L168.430718,13.568199 L161.559265,13.568199 L161.559265,46.9703101 L168.430718,46.9703101 L168.430718,31.4537797 C168.430718,19.1277046 178.367278,18.9874649 178.78798,18.9874649 C182.904841,18.9874649 185.263774,22.3331854 185.263774,28.1631535 L185.263774,46.9703101 L192.130217,46.9703101 L192.130217,28.1631535 C192.130217,14.3345092 183.120201,12.8419572 179.248748,12.8419572 L179.253756,12.8419572 Z" id="Path"></path>
                    <path d="M214.342238,12.8419572 C204.696159,12.8419572 196.84808,20.6603251 196.84808,30.2667502 C196.84808,39.8731753 204.696159,47.6915432 214.342238,47.6915432 C223.988314,47.6915432 231.901503,39.8731753 231.901503,30.2667502 C231.901503,20.6603251 224.023373,12.8419572 214.342238,12.8419572 L214.342238,12.8419572 Z M225.03005,30.3318615 C225.03005,36.5174377 220.237062,41.5510442 214.342238,41.5510442 C208.447412,41.5510442 203.719533,36.5174377 203.719533,30.3318615 C203.719533,24.1462855 208.487479,18.9824563 214.342238,18.9824563 C220.196995,18.9824563 225.03005,24.0711569 225.03005,30.3318615 Z" id="Shape"></path>
                    <path d="M240.676127,0 C238.066777,0 236.023372,2.07354536 236.023372,4.71806697 C236.023372,7.36258858 238.021702,9.3710226 240.676127,9.3710226 C243.330551,9.3710226 245.39399,7.32752863 245.39399,4.71806697 C245.39399,2.10860529 243.320534,0 240.676127,0 Z" id="Path"></path>
                    <rect id="Rectangle" x="237.275458" y="13.5631904" width="6.87145242" height="33.402111"></rect>
                    <path d="M277.898164,0.395676529 L277.898164,18.3413601 C275.068448,14.6901172 271.146912,12.8419572 266.218698,12.8419572 C256.617696,12.8419572 249.651085,20.1694859 249.651085,30.2667502 C249.651085,40.3640146 256.617696,47.6915432 266.218698,47.6915432 C271.141904,47.6915432 275.068448,45.8433832 277.898164,42.1871317 L277.898164,46.9653015 L284.764607,46.9653015 L284.764607,0.395676529 L277.898164,0.395676529 L277.898164,0.395676529 Z M278.02838,30.2617417 C277.963273,36.9030971 273.430717,41.5460356 267.010017,41.5460356 C260.589315,41.5460356 256.517529,36.9081056 256.517529,30.2617417 C256.517529,23.6153777 260.829717,18.9824563 267.010017,18.9824563 C273.190317,18.9824563 277.963273,23.6203863 278.02838,30.2617417 L278.02838,30.2617417 Z" id="Shape"></path>
                </g>
                <g transform="translate(0.0801, 0)" fill="#A32035">
                    <polygon id="Path" points="37.1919866 42.7080223 37.1919866 53.7468966 0 53.7468966 0 0.826413004 13.3772955 0.826413004 13.3772955 42.7030138 37.1869783 42.7030138"></polygon>
                    <polygon id="Path" points="55.3222037 53.7418881 41.9449082 53.7418881 41.9449082 0.826413004 55.3222037 0.826413004"></polygon>
                    <path d="M62.7295492,53.7418881 L62.7295492,0.826413004 L86.9949916,0.826413004 C98.4841403,0.826413004 104.759599,9.14062868 104.759599,18.7420453 C104.759599,28.3434618 98.4090151,36.1267697 86.9949916,36.1267697 L76.1118531,36.1267697 L76.1118531,53.7418881 L62.7345575,53.7418881 L62.7295492,53.7418881 Z M85.4073456,25.5436747 C88.9582638,25.5436747 91.3021703,22.5235108 91.3021703,18.8171737 C91.3021703,14.8854512 88.9582638,11.8602788 85.4073456,11.8602788 L76.1118531,11.8602788 L76.1118531,25.5436747 L85.4073456,25.5436747 L85.4073456,25.5436747 Z" id="Shape"></path>
                    <path d="M106.93823,27.2866548 C106.93823,12.3961951 118.732888,0 134.984975,0 C151.237062,0 163.026711,12.3961951 163.026711,27.2866548 C163.026711,42.1771147 151.237062,54.5733096 134.984975,54.5733096 C118.732888,54.5733096 106.93823,42.1771147 106.93823,27.2866548 Z M149.649416,27.2866548 C149.649416,18.5166598 143.449082,11.8652873 134.984975,11.8652873 C126.520868,11.8652873 120.395659,18.5166598 120.395659,27.2866548 C120.395659,36.0566498 126.520868,42.7080223 134.984975,42.7080223 C143.449082,42.7080223 149.649416,36.0566498 149.649416,27.2866548 Z" id="Shape"></path>
                </g>
                <g id="Shape" transform="translate(288.2204, 63.5236)">
                    <path d="M5.87979966,0 C9.54590984,0 11.7796327,2.52932465 11.7796327,5.68972831 C11.7796327,8.85013198 9.54590984,11.3443967 5.87979966,11.3443967 C2.21368948,11.3443967 0,8.84512342 0,5.68972831 C0,2.53433321 2.23372287,0 5.87979966,0 L5.87979966,0 Z M5.87979966,10.2475212 C8.46410684,10.2475212 10.4524207,8.57466099 10.4524207,5.68972831 C10.4524207,2.80479565 8.46410684,1.1169097 5.87979966,1.1169097 C3.29549248,1.1169097 1.32220367,2.80980422 1.32220367,5.68972831 C1.32220367,8.56965243 3.31051753,10.2475212 5.87979966,10.2475212 Z M7.12186978,6.13549049 L8.22370617,8.18900159 L8.22370617,8.2691386 L6.89649416,8.2691386 L5.90984975,6.28073884 L5.04841402,6.28073884 L5.04841402,8.2691386 L3.85141903,8.2691386 L3.85141903,2.98009539 L6.22537563,2.98009539 C7.34223706,2.98009539 8.10851418,3.39580616 8.10851418,4.63792996 C8.10851418,5.46434295 7.71285476,5.93013937 7.12186978,6.13549049 Z M5.04841402,5.30406891 L6.21035059,5.30406891 C6.65609348,5.30406891 6.89649416,5.06365786 6.89649416,4.63792996 C6.89649416,4.24225343 6.65609348,4.00184237 6.21035059,4.00184237 L5.04841402,4.00184237 L5.04841402,5.30907748 L5.04841402,5.30406891 Z" fill="#A8A8AB"></path>
                    <path d="M5.87979966,0 C9.54590984,0 11.7796327,2.52932465 11.7796327,5.68972831 C11.7796327,8.85013198 9.54590984,11.3443967 5.87979966,11.3443967 C2.21368948,11.3443967 0,8.84512342 0,5.68972831 C0,2.53433321 2.23372287,0 5.87979966,0 L5.87979966,0 Z M5.87979966,10.2475212 C8.46410684,10.2475212 10.4524207,8.57466099 10.4524207,5.68972831 C10.4524207,2.80479565 8.46410684,1.1169097 5.87979966,1.1169097 C3.29549248,1.1169097 1.32220367,2.80980422 1.32220367,5.68972831 C1.32220367,8.56965243 3.31051753,10.2475212 5.87979966,10.2475212 Z M7.12186978,6.13549049 L8.22370617,8.18900159 L8.22370617,8.2691386 L6.89649416,8.2691386 L5.90984975,6.28073884 L5.04841402,6.28073884 L5.04841402,8.2691386 L3.85141903,8.2691386 L3.85141903,2.98009539 L6.22537563,2.98009539 C7.34223706,2.98009539 8.10851418,3.39580616 8.10851418,4.63792996 C8.10851418,5.46434295 7.71285476,5.93013937 7.12186978,6.13549049 Z M5.04841402,5.30406891 L6.21035059,5.30406891 C6.65609348,5.30406891 6.89649416,5.06365786 6.89649416,4.63792996 C6.89649416,4.24225343 6.65609348,4.00184237 6.21035059,4.00184237 L5.04841402,4.00184237 L5.04841402,5.30907748 L5.04841402,5.30406891 Z" fill="#A32035"></path>
                </g>
            </g>
        </g>
    </g>
</svg>