<?xml version="1.0" encoding="UTF-8"?>
<svg width="300px" height="57px" viewBox="0 0 300 57" version="1.1" xmlns="http://www.w3.org/2000/svg" xmlns:xlink="http://www.w3.org/1999/xlink">
    <title>brand-albolene</title>
    <defs>
        <path d="M0,55.9702792 L22.460382,2.86904278 L33.1528995,2.86904278 C33.1528995,2.86904278 55.6132815,55.9702792 55.6132815,55.9702792 L43.2707378,55.9702792 C43.2707378,55.9702792 39.3960063,46.3531085 39.3960063,46.3531085 L16.1476171,46.3531085 C16.1476171,46.3531085 12.2728856,55.9702792 12.2728856,55.9702792 L0,55.9702792 Z M35.8086144,36.8839612 L27.8414698,17.1489522 L19.8046671,36.8839612 L35.8042608,36.8839612 L35.8086144,36.8839612 Z M55.8396703,55.9702792 L55.8396703,-6.18688166e-15 C55.8396703,-6.18688166e-15 66.9631973,-6.18688166e-15 66.9631973,-6.18688166e-15 L66.9631973,55.9702792 C66.9631973,55.9702792 55.8396703,55.9702792 55.8396703,55.9702792 Z M103.342137,18.9078191 C106.16329,20.6536251 108.401056,23.0698903 110.051083,26.1566146 C111.701109,29.2433389 112.528299,32.7480118 112.528299,36.6706333 C112.528299,40.5453648 111.71417,44.0021478 110.090265,47.0409822 C108.462007,50.0798166 106.224241,52.4481918 103.38132,54.1461079 C100.534045,55.8440239 97.3907239,56.6929819 93.9470018,56.6929819 C88.3003425,56.6929819 84.1426249,54.5161665 81.4607883,50.1625356 L81.4869101,55.9746328 L70.6246009,55.9746328 C70.6246009,55.9746328 70.6246009,0.00435363093 70.6246009,0.00435363093 L81.7437743,0.00435363093 C81.7437743,0.00435363093 81.7437743,22.6084054 81.7437743,22.6084054 C84.4691473,18.3984443 88.5354386,16.2956406 93.9426482,16.2956406 C97.3863702,16.2956406 100.520985,17.1663667 103.342137,18.9121728 L103.342137,18.9078191 Z M98.3528763,44.2372439 C100.146572,42.2998781 101.04342,39.753004 101.04342,36.5966216 C101.04342,33.3923492 100.15528,30.7975852 98.3877053,28.8123295 C96.6157776,26.8270738 94.2952923,25.8344459 91.4262495,25.8344459 C88.5093168,25.8344459 86.1627097,26.8140129 84.3951355,28.7775004 C82.6232078,30.740988 81.7394207,33.3226911 81.7394207,36.5269635 C81.7394207,39.7312359 82.6232078,42.3042317 84.3951355,44.2415975 C86.1670633,46.1789633 88.5093168,47.1454693 91.4262495,47.1454693 C94.251756,47.1454693 96.5591804,46.1789633 98.3528763,44.2415975 L98.3528763,44.2372439 Z M123.551692,54.1765833 C120.369188,52.504789 117.896326,50.1364138 116.124398,47.0714576 C114.35247,44.0108551 113.468683,40.4931213 113.468683,36.5226099 C113.468683,32.5042085 114.339409,28.9647066 116.085215,25.904104 C117.831021,22.8435015 120.308237,20.4751263 123.512509,18.7989783 C126.716782,17.1228304 130.399954,16.2869333 134.562025,16.2869333 C138.671852,16.2869333 142.320195,17.1228304 145.502699,18.7989783 C148.68085,20.4751263 151.158066,22.8522087 152.929994,25.9389331 C154.701921,29.0256574 155.585708,32.5520985 155.585708,36.5226099 C155.585708,40.4931213 154.701921,44.0108551 152.929994,47.0714576 C151.162419,50.1320601 148.685203,52.5004354 145.502699,54.1765833 C142.320195,55.8527312 138.671852,56.6886283 134.562025,56.6886283 C130.399954,56.6886283 126.729843,55.8527312 123.547338,54.1765833 L123.551692,54.1765833 Z M141.453822,44.2024148 C143.221397,42.2432809 144.109537,39.6833459 144.109537,36.5269635 C144.109537,33.3226911 143.221397,30.7366344 141.453822,28.7775004 C139.681895,26.8183665 137.387531,25.8344459 134.566378,25.8344459 C131.697336,25.8344459 129.37685,26.8140129 127.604923,28.7775004 C125.832995,30.740988 124.949208,33.3226911 124.949208,36.5269635 C124.949208,39.6833459 125.832995,42.2432809 127.604923,44.2024148 C129.37685,46.1659024 131.697336,47.1454693 134.566378,47.1454693 C137.387531,47.1454693 139.681895,46.1659024 141.453822,44.2024148 Z M157.17043,55.9702792 L157.17043,-6.18688166e-15 C157.17043,-6.18688166e-15 168.289604,-6.18688166e-15 168.289604,-6.18688166e-15 L168.289604,55.9702792 C168.289604,55.9702792 157.17043,55.9702792 157.17043,55.9702792 Z M200.401985,19.0514889 C203.436466,20.8930748 205.621989,23.3659372 207.219771,26.3351135 C210.167179,31.8206885 209.283392,40.3973414 209.283392,40.3973414 L181.711848,40.3973414 C181.759738,41.4509201 182.060138,42.5480351 182.608696,43.6973936 C183.157253,44.8467522 184.080223,45.83938 185.373251,46.6752772 C186.661926,47.5111743 188.359842,47.9291229 190.466999,47.9291229 C192.234574,47.9291229 193.862832,47.4894062 195.34742,46.6012655 C196.827654,45.7174784 197.903001,44.8206304 198.577814,43.9107215 L207.189296,48.2164625 C205.321588,50.8939456 202.905323,52.9749811 199.9405,54.4595693 C196.975678,55.9441574 193.862832,56.6842747 190.610669,56.6842747 C186.496488,56.6842747 182.874267,55.8614384 179.739653,54.2070587 C176.605039,52.5570326 174.175713,50.2234864 172.456028,47.2107738 C170.73199,44.1980612 169.869972,40.7543391 169.869972,36.8796076 C169.869972,32.8133163 170.697161,29.2259244 172.347188,26.1174319 C173.997214,23.0089395 176.304638,20.5926743 179.269461,18.8686364 C182.234283,17.1445986 185.630116,16.2869333 189.456957,16.2869333 C193.714808,16.2869333 197.358797,17.2099031 200.401985,19.0471353 L200.401985,19.0514889 Z M195.521565,27.4452894 C194.158879,25.8431532 192.186684,25.0420851 189.600627,25.0420851 C187.15824,25.0420851 185.246996,25.8431532 183.858188,27.4452894 C182.469379,29.0474256 181.755384,30.8803042 181.707494,32.935218 L197.563418,32.935218 C197.563418,30.8803042 196.884251,29.0474256 195.517211,27.4452894 L195.521565,27.4452894 Z M281.183607,19.0514889 C284.218088,20.8930748 286.403611,23.3659372 288.001393,26.3351135 C290.948801,31.8206885 290.065014,40.3973414 290.065014,40.3973414 L262.49347,40.3973414 C262.541359,41.4509201 262.84176,42.5480351 263.390318,43.6973936 C263.938875,44.8467522 264.861845,45.83938 266.154873,46.6752772 C267.443548,47.5111743 269.141464,47.9291229 271.248621,47.9291229 C273.016196,47.9291229 274.644453,47.4894062 276.129042,46.6012655 C277.609276,45.7174784 278.684623,44.8206304 279.359436,43.9107215 L287.970918,48.2164625 C286.10321,50.8939456 283.686945,52.9749811 280.722122,54.4595693 C277.7573,55.9441574 274.644453,56.6842747 271.392291,56.6842747 C267.27811,56.6842747 263.655889,55.8614384 260.521275,54.2070587 C257.38666,52.5570326 254.957334,50.2234864 253.23765,47.2107738 C251.513612,44.1980612 250.651593,40.7543391 250.651593,36.8796076 C250.651593,32.8133163 251.478783,29.2259244 253.128809,26.1174319 C254.778836,23.0089395 257.08626,20.5926743 260.051083,18.8686364 C263.015905,17.1445986 266.411737,16.2869333 270.238579,16.2869333 C274.49643,16.2869333 278.140419,17.2099031 281.183607,19.0471353 L281.183607,19.0514889 Z M276.303187,27.4452894 C274.9405,25.8431532 272.968306,25.0420851 270.382249,25.0420851 C267.939862,25.0420851 266.028618,25.8431532 264.63981,27.4452894 C263.251001,29.0474256 262.537006,30.8803042 262.489116,32.935218 L278.34504,32.935218 C278.34504,30.8803042 277.665873,29.0474256 276.298833,27.4452894 L276.303187,27.4452894 Z M241.731004,18.18947 C244.051489,19.4563766 245.858246,21.2500726 247.146921,23.5705578 C248.439949,25.8910431 249.084286,28.5598189 249.084286,31.5725315 L249.084286,55.9702792 C249.084286,55.9702792 237.965113,55.9702792 237.965113,55.9702792 L237.965113,33.2225576 C237.965113,31.023974 237.224996,29.2389853 235.740407,27.8762988 C234.260173,26.5136124 232.296685,25.8300923 229.858652,25.8300923 C227.368375,25.8300923 225.38312,26.5005515 223.902885,27.8371162 C222.418297,29.1780345 221.67818,30.9717304 221.67818,33.218204 L221.67818,55.9659256 C221.67818,55.9659256 210.554653,55.9659256 210.554653,55.9659256 L210.554653,17.0009288 C210.554653,17.0009288 221.329889,17.0009288 221.329889,17.0009288 L221.386486,22.0250189 C222.775295,20.1616648 224.521101,18.7380275 226.623904,17.7541069 C228.726708,16.77454 231.095083,16.2825797 233.72903,16.2825797 C236.741743,16.2825797 239.410518,16.9182098 241.731004,18.1851164 L241.731004,18.18947 Z M294.893191,27.3277413 C292.037209,27.3277413 289.799443,25.1030359 289.799443,22.2339932 C289.799443,19.3649504 292.037209,17.140245 294.893191,17.140245 C297.749173,17.140245 300,19.3649504 300,22.2339932 C300,25.1030359 297.762234,27.3277413 294.893191,27.3277413 Z M294.893191,17.9021304 C292.455158,17.9021304 290.561328,19.7959598 290.561328,22.2339932 C290.561328,24.6720265 292.455158,26.5658559 294.893191,26.5658559 C297.331224,26.5658559 299.225054,24.6720265 299.225054,22.2339932 C299.225054,19.7959598 297.344285,17.9021304 294.893191,17.9021304 Z M295.968538,25.220584 L294.719046,22.8826842 L294.131306,22.8826842 L294.131306,25.220584 L292.912289,25.220584 L292.912289,19.251756 L295.0238,19.251756 C296.34295,19.251756 297.161433,19.9265688 297.161433,21.0454519 C297.161433,22.1643351 296.416962,22.5953445 295.942416,22.7259534 L297.418297,25.220584 L295.968538,25.220584 Z M294.819179,20.2400302 L294.131306,20.2400302 L294.131306,21.8900563 L294.819179,21.8900563 C295.393858,21.8900563 295.894526,21.7463865 295.894526,21.0715737 C295.894526,20.3967609 295.393858,20.2400302 294.819179,20.2400302 Z" id="path-1"></path>
        <linearGradient x1="0.698232323%" y1="50%" x2="101.895202%" y2="50%" id="linearGradient-3">
            <stop stop-color="#00A9AB" offset="0%"></stop>
            <stop stop-color="#06ADB1" offset="7%"></stop>
            <stop stop-color="#17BAC5" offset="17%"></stop>
            <stop stop-color="#1CBECA" offset="19%"></stop>
            <stop stop-color="#28BFC9" offset="24%"></stop>
            <stop stop-color="#49C3C7" offset="33%"></stop>
            <stop stop-color="#59C5C7" offset="37%"></stop>
            <stop stop-color="#53C3C4" offset="41%"></stop>
            <stop stop-color="#43BEBC" offset="46%"></stop>
            <stop stop-color="#28B7B0" offset="53%"></stop>
            <stop stop-color="#1AB3AA" offset="55%"></stop>
            <stop stop-color="#20B4AD" offset="61%"></stop>
            <stop stop-color="#33BAB5" offset="70%"></stop>
            <stop stop-color="#53C3C3" offset="80%"></stop>
            <stop stop-color="#5AC5C7" offset="82%"></stop>
            <stop stop-color="#54C3C3" offset="85%"></stop>
            <stop stop-color="#44BEBA" offset="90%"></stop>
            <stop stop-color="#29B5AB" offset="95%"></stop>
            <stop stop-color="#28B5AA" offset="95%"></stop>
        </linearGradient>
    </defs>
    <g id="Page-1" stroke="none" stroke-width="1" fill="none" fill-rule="evenodd">
        <g id="brand-albolene">
            <mask id="mask-2" fill="white">
                <use xlink:href="#path-1"></use>
            </mask>
            <g id="Shape"></g>
            <rect id="Rectangle" fill="url(#linearGradient-3)" fill-rule="nonzero" mask="url(#mask-2)" x="-25.538399" y="-47.1759447" width="344.80757" height="163.417891"></rect>
        </g>
    </g>
</svg>