<?xml version="1.0" encoding="UTF-8"?>
<svg width="300px" height="82px" viewBox="0 0 300 82" version="1.1" xmlns="http://www.w3.org/2000/svg" xmlns:xlink="http://www.w3.org/1999/xlink">
    <title>brand-albolene</title>
    <g id="Page-1" stroke="none" stroke-width="1" fill="none" fill-rule="evenodd">
        <g id="brand-albolene" fill-rule="nonzero">
            <path d="M300,40.9633757 C300,63.6544585 282.444268,81.9279027 260.947453,81.9279027 L39.0525478,81.9279027 C17.5557325,82.0461783 0,63.6544585 0,40.9633757 L0,40.9633757 C0,18.3917198 17.5557325,0 39.0525478,0 L260.828026,0 C282.444268,0 300,18.3917198 300,40.9633757 L300,40.9633757 Z" id="Sandy" fill="#EFB679"></path>
            <path d="M300,40.9633757 C300,60.3105095 282.444268,75.955414 260.947453,75.955414 L39.0525478,75.955414 C17.5557325,75.955414 0,60.3105095 0,40.9633757 L0,40.9633757 C0,21.7356688 17.5557325,6.09076433 39.0525478,6.09076433 L260.828026,6.09076433 C282.444268,6.09076433 300,21.7356688 300,40.9633757 L300,40.9633757 Z" id="Prussian_Blue" fill="#004179"></path>
            <path d="M100.557325,31.1703822 C96.616242,31.1703822 91.7197452,33.200637 89.0923566,37.1417198 L88.9729299,37.1417198 L88.9729299,16.361465 L82.6433121,16.361465 L82.6433121,65.4458598 L88.9729299,65.4458598 L88.9729299,61.02707 L89.0923566,61.02707 C91.7197452,64.2515923 95.4219745,66.2818471 99.8407643,66.2818471 C110.111465,66.2818471 116.441083,57.9219745 116.441083,47.7707006 C116.441083,42.8742039 114.171974,31.1703822 100.557325,31.1703822 Z M99.8407643,61.8630572 C91.9585987,61.8630572 88.8535031,55.7722929 88.8535031,49.3232484 C88.8535031,40.7245222 92.6751592,35.4697452 99.8407643,35.4697452 C106.409236,35.4697452 109.633758,41.6799363 109.633758,47.7707006 C109.633758,53.861465 107.36465,61.8630572 99.8407643,61.8630572 Z M40.4856688,18.6305732 L20.5414013,65.3264331 L27.1098725,65.3264331 L32.3646497,51.5923566 L51.1146497,51.5923566 L56.1305732,65.3264331 L64.0127388,65.3264331 L45.7404458,18.6305732 L40.4856688,18.6305732 Z M34.2754777,46.9347133 C36.9028662,40.4856688 39.5302547,34.0366241 42.0382166,25.5573248 L42.1576433,25.5573248 C44.665605,33.9171974 46.9347133,40.4856688 49.4426751,46.9347133 L34.2754777,46.9347133 Z M265.007962,31.1703822 C257.125797,31.1703822 248.407643,36.4251592 248.407643,48.009554 C248.407643,59.7133757 255.573248,66.1624203 266.56051,66.1624203 C270.262739,66.1624203 274.562102,64.7292994 278.144904,62.3407643 L276.353503,59.116242 C273.845541,60.9076433 270.023885,61.9824841 266.799363,61.9824841 C259.872611,61.9824841 254.856688,55.8917196 254.976115,49.2038216 L278.622612,49.2038216 C279.219745,40.366242 275.636942,31.1703822 265.007962,31.1703822 Z M255.334394,45.1433121 C255.573248,40.843949 258.200637,35.5891719 264.888535,35.5891719 C270.382166,35.5891719 272.770701,40.0079617 272.770701,45.1433121 L255.334394,45.1433121 Z M67.4761146,16.361465 L73.8057325,16.361465 L73.8057325,65.4458598 L67.4761146,65.4458598 L67.4761146,16.361465 Z M241.719745,43.9490445 L241.719745,65.4458598 L235.390128,65.4458598 L235.390128,45.1433121 C235.390128,38.8136942 232.643312,35.5891719 226.910828,35.5891719 C221.894904,35.5891719 217.356688,38.8136942 217.356688,45.2627388 L217.356688,65.3264331 L211.02707,65.3264331 L211.02707,32.0063694 L217.237261,32.0063694 L217.237261,36.1863056 C220.58121,32.8423566 225.597134,31.2898089 229.179936,31.2898089 C237.420383,31.1703822 241.719745,35.4697452 241.719745,43.9490445 Z M191.321656,31.1703822 C183.43949,31.1703822 174.721337,36.4251592 174.721337,48.009554 C174.721337,59.7133757 181.886943,66.1624203 192.874203,66.1624203 C196.576433,66.1624203 200.875796,64.7292994 204.458598,62.3407643 L202.667197,59.116242 C200.159235,60.9076433 196.337579,61.9824841 193.113057,61.9824841 C186.186306,61.9824841 181.170382,55.8917196 181.289809,49.2038216 L204.936306,49.2038216 C205.53344,40.366242 201.950637,31.1703822 191.321656,31.1703822 Z M181.648089,45.1433121 C181.886943,40.843949 184.514331,35.5891719 191.202229,35.5891719 C196.695859,35.5891719 199.084395,40.0079617 199.084395,45.1433121 L181.648089,45.1433121 Z M137.937898,31.1703822 C129.100318,31.1703822 120.740446,37.5 120.740446,48.2484076 C120.740446,58.638535 127.667197,66.1624203 137.937898,66.1624203 C148.328026,66.1624203 155.254777,58.638535 155.254777,48.2484076 C155.13535,37.5 146.775478,31.1703822 137.937898,31.1703822 Z M137.937898,61.8630572 C129.697452,61.8630572 127.547771,54.5780254 127.547771,48.2484076 C127.547771,42.2770701 130.175159,35.4697452 137.937898,35.4697452 C145.820064,35.4697452 148.447453,42.2770701 148.447453,48.2484076 C148.447453,54.5780254 146.178344,61.8630572 137.937898,61.8630572 Z M161.823248,16.361465 L168.152867,16.361465 L168.152867,65.4458598 L161.823248,65.4458598 L161.823248,16.361465 Z M282.683121,59.9522293 C281.130572,59.9522293 279.936306,61.2659235 279.936306,62.6990445 C279.936306,64.2515923 281.130572,65.5652865 282.683121,65.5652865 C284.235669,65.5652865 285.429936,64.2515923 285.429936,62.6990445 C285.429936,61.1464968 284.235669,59.9522293 282.683121,59.9522293 Z M282.683121,65.0875796 C281.488853,65.0875796 280.414013,64.0127388 280.414013,62.6990445 C280.414013,61.3853503 281.488853,60.3105095 282.683121,60.3105095 C283.877388,60.3105095 284.952228,61.3853503 284.952228,62.6990445 C284.952228,64.0127388 283.877388,65.0875796 282.683121,65.0875796 Z M283.877388,61.8630572 C283.877388,61.3853503 283.399681,61.02707 282.683121,61.02707 L281.488853,61.02707 L281.488853,64.0127388 L282.085987,64.0127388 L282.085987,62.8184712 L282.683121,62.8184712 L283.638535,64.1321656 L284.235669,64.0127388 L283.280254,62.6990445 C283.638535,62.5796178 283.877388,62.3407643 283.877388,61.8630572 Z M282.444268,62.5796178 L282.085987,62.5796178 L282.085987,61.3853503 L282.563694,61.3853503 C282.921974,61.3853503 283.280254,61.504777 283.280254,61.8630572 C283.280254,62.2213375 283.160827,62.5796178 282.444268,62.5796178 Z" id="White" fill="#FFFFFF"></path>
        </g>
    </g>
</svg>