<svg xmlns="http://www.w3.org/2000/svg" width="3838.496" height="3069.855" viewBox="0 0 3838.496 3069.855">
  <g>
    <g>
      <g>
        <path d="M927.319,1364.5q-24.556,106.991-93.6,164.435-71.1,56.921-168.29,56.92-87.909-2.115-146.678-44.343-59.812-40.639-86.892-93.963-8.186-17.42-14.817-33.261-6.144-16.353-10.228-41.163-7.68-46.458-7.662-178.433,0-134.06,7.674-179.469,8.167-45.392,25.045-73.376,27.087-53.305,86.928-95.023,58.781-42.212,146.739-43.283,107.875,1.067,175.891,65.882,68,65.378,85.892,161.809H807.492A170.408,170.408,0,0,0,757.306,951.9q-37.893-31.206-92.168-32.273-39.952,1.067-68.629,16.4Q567.309,951.9,549.4,975.7q-22.027,24.864-29.189,64.015-8.185,41.253-8.192,154.979,0,113.75,8.2,153.943,7.157,40.2,29.189,65.063,17.943,23.8,47.138,38.621,28.677,17.456,68.653,17.455,95.283,0,142.426-105.274Z" transform="translate(-399.15 -803.542)" fill="#00263a"/>
        <path d="M970.6,809.878h476.236V919.622H1083.466v220.223h310.186v103.371H1083.466v226.559h363.372v109.744H970.6Z" transform="translate(-399.15 -803.542)" fill="#00263a"/>
        <path d="M1550.221,809.878h291.273q93.168,0,152.04,50.68,70.833,57.534,73.9,164.17Q2065.4,1181.5,1923.5,1237.988l172.531,341.531h-134.09L1807.644,1250.6H1663.085v328.918H1550.221Zm112.864,337.364h171.2q63.57-1.049,95.349-38.1,31.26-34.422,31.273-84.7-1.031-60.317-37.417-87.325-28.713-23.817-83.049-23.828H1663.085Z" transform="translate(-399.15 -803.542)" fill="#00263a"/>
        <path d="M2295.083,913.286H2090.761V809.878H2612.4V913.286H2407.947v666.233H2295.083Z" transform="translate(-399.15 -803.542)" fill="#00263a"/>
        <path d="M2989.108,1407.386H2706.375l-57.257,172.133H2529.484l270.975-769.641h94.577l270.975,769.641h-119.14ZM2956.9,1304.015l-107.877-336.7h-2.048l-107.876,336.7Z" transform="translate(-399.15 -803.542)" fill="#00263a"/>
        <path d="M3244.771,809.878h112.876v769.641H3244.771Z" transform="translate(-399.15 -803.542)" fill="#00263a"/>
        <path d="M3501.868,809.878h106.419l337.593,547.13h2.047V809.878H4060.8v769.641H3953.878L3616.792,1032.39h-2.048v547.129H3501.868Z" transform="translate(-399.15 -803.542)" fill="#00263a"/>
      </g>
      <g>
        <path d="M400.355,1706.8h734.008q425.977,2.982,639.02,365.408,76.182,121.808,96.3,255.5,15.811,133.68,15.805,461.96,0,349.072-24.466,487.21-11.511,69.858-34.526,124.778a1168.351,1168.351,0,0,1-59,111.407q-92.12,153.015-256.157,252.519-162.629,106.974-398.632,106.949H400.355ZM717.962,3563.7h380.309q267.921,0,388.947-189.034,53.287-69.93,67.7-177.132,12.939-105.708,12.974-395.97,0-282.792-12.974-404.884-17.274-122.061-82.1-197.961-132.578-189.045-374.551-183.1H717.962Z" transform="translate(-399.15 -803.542)" fill="#00263a"/>
        <path d="M2073.161,1706.8h819.622q262.176,0,427.833,142.595,199.347,161.924,207.972,461.961-5.782,441.174-405.077,600.122l485.523,961.048H3231.689l-434.158-925.535H2390.768v925.535H2073.161Zm317.607,949.315h481.753q178.873-2.963,268.313-107.226,87.963-96.817,87.988-238.316-2.892-169.767-105.311-245.75-80.772-67-233.679-67.027H2390.768Z" transform="translate(-399.15 -803.542)" fill="#00263a"/>
        <path d="M3745.931,1706.8h317.595V3872.529H3745.931Z" transform="translate(-399.15 -803.542)" fill="#00263a"/>
      </g>
    </g>
    <path d="M4182.739,3763.315a55.041,55.041,0,1,1-54.909,55.174A55.047,55.047,0,0,1,4182.739,3763.315Zm0,100.2a45.175,45.175,0,1,0-45.03-45.03A45.167,45.167,0,0,0,4182.739,3863.519Zm-10.65-15.709h-12.528V3788.9H4187c3.469,0,22.407,0,22.407,17.588,0,11.179-8,14.384-10.939,15.733l10.939,25.587h-13.348l-9.589-23.467h-14.384Zm0-33.321h13.059c4.264,0,11.179-1.084,11.179-8.264,0-3.469-2.385-7.734-10.119-7.734h-14.119Z" transform="translate(-399.15 -803.542)" fill="#00263a"/>
  </g>
</svg>
