<svg xmlns="http://www.w3.org/2000/svg" xmlns:xlink="http://www.w3.org/1999/xlink" width="60.349" height="17.898" viewBox="0 0 60.349 17.898">
  <defs>
    <linearGradient id="a" x1="19.213" y1="21.397" x2="46.133" y2="21.397" gradientUnits="userSpaceOnUse">
      <stop offset="0" stop-color="#231f20" stop-opacity="0"/>
      <stop offset="0.224" stop-color="#231f20"/>
      <stop offset="0.505" stop-color="#231f20"/>
      <stop offset="0.776" stop-color="#231f20"/>
      <stop offset="1" stop-color="#231f20" stop-opacity="0"/>
    </linearGradient>
    <linearGradient id="b" x1="2.077" y1="38.684" x2="62.272" y2="38.684" xlink:href="#a"/>
    <linearGradient id="c" x1="19.058" y1="23.838" x2="45.979" y2="23.838" xlink:href="#a"/>
    <filter id="e" filterUnits="userSpaceOnUse" color-interpolation-filters="sRGB">
      <feColorMatrix values="-1 0 0 0 1 0 -1 0 0 1 0 0 -1 0 1 0 0 0 1 0"/>
    </filter>
    <mask id="d" x="17.29" y="-4.079" width="26.92" height="4.691" maskUnits="userSpaceOnUse">
      <g filter="url(#e)">
        <g transform="translate(-1.923 -23.131)">
          <rect x="19.213" y="19.052" width="26.92" height="4.691" fill="url(#a)"/>
        </g>
      </g>
    </mask>
    <mask id="f" x="0" y="13.207" width="60.349" height="4.691" maskUnits="userSpaceOnUse">
      <g filter="url(#e)">
        <g transform="translate(-1.923 -23.131)">
          <rect x="2.077" y="36.338" width="60.195" height="4.691" fill="url(#b)"/>
        </g>
      </g>
    </mask>
    <mask id="g" x="17.136" y="0.247" width="26.92" height="0.921" maskUnits="userSpaceOnUse">
      <g filter="url(#e)">
        <g transform="translate(-1.923 -23.131)">
          <rect x="19.058" y="23.687" width="26.92" height="0.303" fill="url(#c)"/>
        </g>
      </g>
    </mask>
  </defs>
  <g>
    <polygon points="43.533 9.911 43.543 9.91 43.535 9.909 43.533 9.911" fill="#a32035"/>
    <path d="M58.64,38.463a.86.86,0,1,1,.861.85A.847.847,0,0,1,58.64,38.463Zm.861.709a.707.707,0,1,0-.691-.709A.685.685,0,0,0,59.5,39.172Zm-.179-.218h-.148v-.978h.372c.231,0,.346.085.346.278a.254.254,0,0,1-.254.269l.278.431H59.75l-.258-.424h-.17Zm.177-.55c.126,0,.238-.009.238-.159,0-.121-.11-.144-.213-.144h-.2v.3Z" transform="translate(-1.923 -23.131)" fill="#a32035"/>
    <path d="M10.459,32.31l-.2.868H7.034L6.6,35.089h2.72l-.2.868H6.4l-.666,2.9H4.38l1.5-6.55Z" transform="translate(-1.923 -23.131)" fill="#a32035"/>
    <path d="M12.451,32.31l-1.3,5.682H14l-.2.868H9.6l1.5-6.55Z" transform="translate(-1.923 -23.131)" fill="#a32035"/>
    <path d="M19.136,32.31l1.033,6.55H18.683l-.233-1.953H16.061L14.874,38.86H13.689l4.447-6.55Zm-.789,3.823-.3-2.48-1.512,2.48Z" transform="translate(-1.923 -23.131)" fill="#a32035"/>
    <path d="M22.871,32.31l.594,5.031,3.1-5.031h1.2L23.34,38.86h-.962l-1-6.55Z" transform="translate(-1.923 -23.131)" fill="#a32035"/>
    <polygon points="28.612 9.911 28.622 9.91 28.614 9.909 28.612 9.911" fill="#a32035"/>
    <path d="M36.844,32.31l2.887,4.608.98-4.608h.971l-1.5,6.477L39.34,39,36.3,34.17l-1,4.69H34.33l1.532-6.55Z" transform="translate(-1.923 -23.131)" fill="#a32035"/>
    <path d="M52.324,32.31l-1.5,6.55H49.47l1.5-6.55Z" transform="translate(-1.923 -23.131)" fill="#a32035"/>
    <path d="M53.848,32.31c.6,0,1.484-.072,2.223-.072h.4c.981,0,3.692,0,2.976,3.12a4.415,4.415,0,0,1-2.116,2.954,6.836,6.836,0,0,1-3,.548H52.346Zm.036,5.734h1.039c1.321,0,2.542-.279,3.056-2.521.351-1.529.1-2.479-1.831-2.479-.35,0-.682.01-1.122.02Z" transform="translate(-1.923 -23.131)" fill="#a32035"/>
    <path d="M48.783,32.971a3.015,3.015,0,0,0-2.065-.784,4.487,4.487,0,0,0-2.79.857,4.95,4.95,0,0,0-.76.663,3.5,3.5,0,0,1,3.8-.551c.734.344,1.148,1.228.847,2.543a2.846,2.846,0,0,1-2.609,2.479c-1.175,0-2-.992-1.609-2.686A3.355,3.355,0,0,1,45.112,33.3a3.658,3.658,0,0,0-2.883,2.046c-.028.093-.057.184-.079.281-.356,1.55.17,3.368,2.657,3.368a4.478,4.478,0,0,0,4.456-3.46A2.682,2.682,0,0,0,48.783,32.971Z" transform="translate(-1.923 -23.131)" fill="#a32035"/>
    <path d="M33.553,32.971a3.013,3.013,0,0,0-2.064-.784,4.488,4.488,0,0,0-2.791.857,4.95,4.95,0,0,0-.76.663,3.5,3.5,0,0,1,3.8-.551c.733.344,1.148,1.228.846,2.543a2.844,2.844,0,0,1-2.609,2.479c-1.175,0-2-.992-1.608-2.686a3.352,3.352,0,0,1,1.516-2.2A3.835,3.835,0,0,0,27.2,34.932a4.171,4.171,0,0,0-.2.413c-.028.093-.057.184-.079.281-.355,1.55.17,3.368,2.657,3.368a4.48,4.48,0,0,0,4.457-3.46A2.681,2.681,0,0,0,33.553,32.971Z" transform="translate(-1.923 -23.131)" fill="#a32035"/>
    <g>
      <path d="M27.047,25.824l-.915,3.989h2L28,30.422H25.044l1.055-4.6Z" transform="translate(-1.923 -23.131)" fill="#a32035"/>
      <path d="M30.459,25.824l-1.055,4.6h-.949l1.055-4.6Z" transform="translate(-1.923 -23.131)" fill="#a32035"/>
      <path d="M31.355,30.422h-.948l1.055-4.6c.388,0,1.065-.036,1.591-.036A1.681,1.681,0,0,1,34.4,26.2a1.191,1.191,0,0,1,.166,1.03,1.852,1.852,0,0,1-.851,1.153,2.9,2.9,0,0,1-1.5.341c-.184,0-.306-.007-.468-.014Zm.526-2.292a2.558,2.558,0,0,0,.417.022,1.109,1.109,0,0,0,1.264-.87c.152-.66-.123-.921-.812-.921-.17,0-.356.007-.465.007Z" transform="translate(-1.923 -23.131)" fill="#a32035"/>
      <path d="M39.456,26.327A2.125,2.125,0,0,0,38,25.773a3.169,3.169,0,0,0-1.969.605,3.466,3.466,0,0,0-.536.468,2.473,2.473,0,0,1,2.683-.389c.517.243.81.867.6,1.794A2.008,2.008,0,0,1,36.933,30c-.829,0-1.409-.7-1.135-1.9a2.367,2.367,0,0,1,1.07-1.549,2.706,2.706,0,0,0-1.9,1.154,2.934,2.934,0,0,0-.142.292c-.019.065-.04.129-.056.2a1.772,1.772,0,0,0,1.875,2.376A3.161,3.161,0,0,0,39.8,28.135,1.888,1.888,0,0,0,39.456,26.327Z" transform="translate(-1.923 -23.131)" fill="#a32035"/>
    </g>
  </g>
  <g mask="url(#d)">
    <rect x="17.29" width="26.92" height="0.611" fill="#0082be"/>
  </g>
  <g mask="url(#f)">
    <rect y="17.287" width="60.349" height="0.611" fill="#1e376c"/>
  </g>
  <g mask="url(#g)">
    <rect x="17.136" y="0.247" width="26.92" height="0.921" fill="#1e376c"/>
  </g>
</svg>
