<?xml version="1.0" encoding="UTF-8"?>
<svg width="149px" height="23px" viewBox="0 0 149 23" version="1.1" xmlns="http://www.w3.org/2000/svg" xmlns:xlink="http://www.w3.org/1999/xlink">
    <title>menarddesign copy 2</title>
    <g id="Page-1" stroke="none" stroke-width="1" fill="none" fill-rule="evenodd">
        <path d="M4.16,18 L4.16,9 C4.424,8.744 4.706,8.54 5.006,8.388 C5.306,8.236 5.624,8.16 5.96,8.16 C6.504,8.16 6.916,8.304 7.196,8.592 C7.476,8.88 7.616,9.38 7.616,10.092 L7.616,10.092 L7.616,18 L11.336,18 L11.336,10.092 C11.336,9.468 11.502,8.99 11.834,8.658 C12.166,8.326 12.584,8.16 13.088,8.16 C14.192,8.16 14.744,8.804 14.744,10.092 L14.744,10.092 L14.744,18 L18.464,18 L18.464,10.092 C18.464,9.348 18.368,8.682 18.176,8.094 C17.984,7.506 17.702,7.01 17.33,6.606 C16.958,6.202 16.496,5.894 15.944,5.682 C15.392,5.47 14.76,5.364 14.048,5.364 C13.664,5.364 13.278,5.404 12.89,5.484 C12.502,5.564 12.134,5.688 11.786,5.856 C11.438,6.024 11.114,6.244 10.814,6.516 C10.514,6.788 10.26,7.116 10.052,7.5 C9.796,6.852 9.422,6.334 8.93,5.946 C8.438,5.558 7.816,5.364 7.064,5.364 C6.704,5.364 6.374,5.402 6.074,5.478 C5.774,5.554 5.494,5.658 5.234,5.79 C4.974,5.922 4.732,6.078 4.508,6.258 C4.284,6.438 4.068,6.636 3.86,6.852 L3.86,6.852 L3.656,6.18 C3.592,5.972 3.482,5.816 3.326,5.712 C3.17,5.608 2.976,5.556 2.744,5.556 L2.744,5.556 L0.44,5.556 L0.44,18 L4.16,18 Z M26.6,18.192 C27.024,18.192 27.47,18.162 27.938,18.102 C28.406,18.042 28.874,17.934 29.342,17.778 C29.81,17.622 30.266,17.406 30.71,17.13 C31.154,16.854 31.568,16.496 31.952,16.056 L31.952,16.056 L30.872,14.724 C30.72,14.508 30.496,14.4 30.2,14.4 C29.976,14.4 29.762,14.452 29.558,14.556 C29.354,14.66 29.13,14.776 28.886,14.904 C28.642,15.032 28.364,15.148 28.052,15.252 C27.74,15.356 27.368,15.408 26.936,15.408 C26.128,15.408 25.468,15.174 24.956,14.706 C24.444,14.238 24.128,13.484 24.008,12.444 L24.008,12.444 L31.184,12.444 C31.352,12.444 31.49,12.424 31.598,12.384 C31.706,12.344 31.792,12.272 31.856,12.168 C31.92,12.064 31.964,11.924 31.988,11.748 C32.012,11.572 32.024,11.344 32.024,11.064 C32.024,10.168 31.886,9.366 31.61,8.658 C31.334,7.95 30.95,7.352 30.458,6.864 C29.966,6.376 29.378,6.004 28.694,5.748 C28.01,5.492 27.256,5.364 26.432,5.364 C25.48,5.364 24.626,5.528 23.87,5.856 C23.114,6.184 22.47,6.628 21.938,7.188 C21.406,7.748 20.998,8.4 20.714,9.144 C20.43,9.888 20.288,10.676 20.288,11.508 C20.288,12.612 20.454,13.58 20.786,14.412 C21.118,15.244 21.57,15.94 22.142,16.5 C22.714,17.06 23.382,17.482 24.146,17.766 C24.91,18.05 25.728,18.192 26.6,18.192 Z M28.688,10.284 L24.044,10.284 C24.172,9.524 24.436,8.942 24.836,8.538 C25.236,8.134 25.792,7.932 26.504,7.932 C26.904,7.932 27.244,8 27.524,8.136 C27.804,8.272 28.03,8.45 28.202,8.67 C28.374,8.89 28.498,9.14 28.574,9.42 C28.65,9.7 28.688,9.988 28.688,10.284 L28.688,10.284 Z M37.88,18 L37.88,9.132 C38.208,8.836 38.552,8.6 38.912,8.424 C39.272,8.248 39.656,8.16 40.064,8.16 C40.608,8.16 41.02,8.33 41.3,8.67 C41.58,9.01 41.72,9.484 41.72,10.092 L41.72,10.092 L41.72,18 L45.44,18 L45.44,10.092 C45.44,9.412 45.348,8.782 45.164,8.202 C44.98,7.622 44.708,7.122 44.348,6.702 C43.988,6.282 43.546,5.954 43.022,5.718 C42.498,5.482 41.896,5.364 41.216,5.364 C40.816,5.364 40.446,5.402 40.106,5.478 C39.766,5.554 39.45,5.658 39.158,5.79 C38.866,5.922 38.592,6.084 38.336,6.276 C38.08,6.468 37.832,6.676 37.592,6.9 L37.592,6.9 L37.376,6.18 C37.312,5.972 37.202,5.816 37.046,5.712 C36.89,5.608 36.696,5.556 36.464,5.556 L36.464,5.556 L34.16,5.556 L34.16,18 L37.88,18 Z M51.224,18.192 C51.648,18.192 52.034,18.158 52.382,18.09 C52.73,18.022 53.058,17.918 53.366,17.778 C53.674,17.638 53.972,17.468 54.26,17.268 C54.548,17.068 54.848,16.836 55.16,16.572 L55.16,16.572 L55.424,17.256 C55.544,17.56 55.694,17.76 55.874,17.856 C56.054,17.952 56.32,18 56.672,18 L56.672,18 L58.376,18 L58.376,10.224 C58.376,9.512 58.264,8.856 58.04,8.256 C57.816,7.656 57.494,7.138 57.074,6.702 C56.654,6.266 56.142,5.926 55.538,5.682 C54.934,5.438 54.256,5.316 53.504,5.316 C52.456,5.316 51.474,5.478 50.558,5.802 C49.642,6.126 48.808,6.62 48.056,7.284 L48.056,7.284 L48.728,8.448 C48.832,8.632 48.974,8.786 49.154,8.91 C49.334,9.034 49.552,9.096 49.808,9.096 C50.096,9.096 50.344,9.048 50.552,8.952 C50.76,8.856 50.974,8.748 51.194,8.628 C51.414,8.508 51.664,8.4 51.944,8.304 C52.224,8.208 52.584,8.16 53.024,8.16 C53.576,8.16 54.002,8.322 54.302,8.646 C54.602,8.97 54.752,9.496 54.752,10.224 L54.752,10.224 L54.752,10.752 C53.328,10.784 52.148,10.928 51.212,11.184 C50.276,11.44 49.532,11.758 48.98,12.138 C48.428,12.518 48.04,12.94 47.816,13.404 C47.592,13.868 47.48,14.32 47.48,14.76 C47.48,15.32 47.568,15.814 47.744,16.242 C47.92,16.67 48.17,17.028 48.494,17.316 C48.818,17.604 49.212,17.822 49.676,17.97 C50.14,18.118 50.656,18.192 51.224,18.192 Z M52.4,15.732 C51.952,15.732 51.612,15.646 51.38,15.474 C51.148,15.302 51.032,15.004 51.032,14.58 C51.032,14.364 51.086,14.164 51.194,13.98 C51.302,13.796 51.496,13.632 51.776,13.488 C52.056,13.344 52.436,13.224 52.916,13.128 C53.396,13.032 54.008,12.968 54.752,12.936 L54.752,12.936 L54.752,14.664 C54.384,15.04 54.02,15.312 53.66,15.48 C53.3,15.648 52.88,15.732 52.4,15.732 Z M64.736,18 L64.736,10.368 C65.296,9.328 66.064,8.808 67.04,8.808 C67.32,8.808 67.552,8.826 67.736,8.862 C67.92,8.898 68.08,8.916 68.216,8.916 C68.376,8.916 68.504,8.882 68.6,8.814 C68.696,8.746 68.76,8.628 68.792,8.46 L68.792,8.46 L69.272,5.724 C68.928,5.452 68.472,5.316 67.904,5.316 C67.232,5.316 66.612,5.52 66.044,5.928 C65.476,6.336 64.964,6.892 64.508,7.596 L64.508,7.596 L64.304,6.432 C64.272,6.272 64.234,6.136 64.19,6.024 C64.146,5.912 64.082,5.822 63.998,5.754 C63.914,5.686 63.81,5.636 63.686,5.604 C63.562,5.572 63.408,5.556 63.224,5.556 L63.224,5.556 L61.016,5.556 L61.016,18 L64.736,18 Z M74.6,18.192 C75.024,18.192 75.418,18.15 75.782,18.066 C76.146,17.982 76.486,17.862 76.802,17.706 C77.118,17.55 77.412,17.364 77.684,17.148 C77.956,16.932 78.216,16.692 78.464,16.428 L78.464,16.428 L78.752,17.376 C78.816,17.584 78.926,17.74 79.082,17.844 C79.238,17.948 79.432,18 79.664,18 L79.664,18 L81.968,18 L81.968,0.036 L78.248,0.036 L78.248,6.336 C77.888,6.032 77.486,5.786 77.042,5.598 C76.598,5.41 76.056,5.316 75.416,5.316 C74.624,5.316 73.9,5.48 73.244,5.808 C72.588,6.136 72.026,6.59 71.558,7.17 C71.09,7.75 70.728,8.438 70.472,9.234 C70.216,10.03 70.088,10.892 70.088,11.82 C70.088,12.828 70.202,13.726 70.43,14.514 C70.658,15.302 70.972,15.968 71.372,16.512 C71.772,17.056 72.248,17.472 72.8,17.76 C73.352,18.048 73.952,18.192 74.6,18.192 Z M75.896,15.336 C75.6,15.336 75.332,15.276 75.092,15.156 C74.852,15.036 74.646,14.838 74.474,14.562 C74.302,14.286 74.168,13.924 74.072,13.476 C73.976,13.028 73.928,12.476 73.928,11.82 C73.928,11.14 73.988,10.56 74.108,10.08 C74.228,9.6 74.394,9.21 74.606,8.91 C74.818,8.61 75.068,8.392 75.356,8.256 C75.644,8.12 75.96,8.052 76.304,8.052 C76.664,8.052 77.006,8.114 77.33,8.238 C77.654,8.362 77.96,8.58 78.248,8.892 L78.248,8.892 L78.248,14.172 C78.088,14.364 77.926,14.532 77.762,14.676 C77.598,14.82 77.424,14.94 77.24,15.036 C77.056,15.132 76.854,15.206 76.634,15.258 C76.414,15.31 76.168,15.336 75.896,15.336 Z M89.108,18.156 C89.988,18.156 90.782,17.944 91.49,17.52 C92.198,17.096 92.816,16.524 93.344,15.804 L93.344,15.804 L93.464,17.688 C93.496,17.896 93.612,18 93.812,18 L93.812,18 L94.448,18 L94.448,0.54 L93.296,0.54 L93.296,7.62 C92.864,7.044 92.352,6.606 91.76,6.306 C91.168,6.006 90.468,5.856 89.66,5.856 C88.82,5.856 88.078,6.016 87.434,6.336 C86.79,6.656 86.246,7.094 85.802,7.65 C85.358,8.206 85.022,8.862 84.794,9.618 C84.566,10.374 84.452,11.188 84.452,12.06 C84.452,14.092 84.862,15.616 85.682,16.632 C86.502,17.648 87.644,18.156 89.108,18.156 Z M89.432,17.232 C88.208,17.232 87.268,16.814 86.612,15.978 C85.956,15.142 85.628,13.836 85.628,12.06 C85.628,11.276 85.718,10.558 85.898,9.906 C86.078,9.254 86.346,8.694 86.702,8.226 C87.058,7.758 87.5,7.396 88.028,7.14 C88.556,6.884 89.172,6.756 89.876,6.756 C90.58,6.756 91.21,6.896 91.766,7.176 C92.322,7.456 92.832,7.936 93.296,8.616 L93.296,8.616 L93.296,14.916 C92.792,15.644 92.22,16.212 91.58,16.62 C90.94,17.028 90.224,17.232 89.432,17.232 Z M103.028,18.156 C103.476,18.156 103.922,18.112 104.366,18.024 C104.81,17.936 105.226,17.818 105.614,17.67 C106.002,17.522 106.354,17.344 106.67,17.136 C106.986,16.928 107.24,16.704 107.432,16.464 L107.432,16.464 L107.12,16.08 C107.064,16 106.984,15.96 106.88,15.96 C106.8,15.96 106.672,16.026 106.496,16.158 C106.32,16.29 106.082,16.438 105.782,16.602 C105.482,16.766 105.112,16.914 104.672,17.046 C104.232,17.178 103.712,17.244 103.112,17.244 C102.44,17.244 101.832,17.128 101.288,16.896 C100.744,16.664 100.28,16.318 99.896,15.858 C99.512,15.398 99.216,14.828 99.008,14.148 C98.8,13.468 98.696,12.68 98.696,11.784 L98.696,11.784 L98.696,11.556 L107.324,11.556 C107.436,11.556 107.518,11.524 107.57,11.46 C107.622,11.396 107.648,11.276 107.648,11.1 C107.648,10.26 107.53,9.516 107.294,8.868 C107.058,8.22 106.73,7.674 106.31,7.23 C105.89,6.786 105.394,6.448 104.822,6.216 C104.25,5.984 103.628,5.868 102.956,5.868 C102.108,5.868 101.35,6.016 100.682,6.312 C100.014,6.608 99.45,7.018 98.99,7.542 C98.53,8.066 98.178,8.69 97.934,9.414 C97.69,10.138 97.568,10.928 97.568,11.784 C97.568,12.8 97.698,13.702 97.958,14.49 C98.218,15.278 98.588,15.944 99.068,16.488 C99.548,17.032 100.124,17.446 100.796,17.73 C101.468,18.014 102.212,18.156 103.028,18.156 Z M106.616,10.824 L98.744,10.824 C98.816,10.2 98.962,9.636 99.182,9.132 C99.402,8.628 99.69,8.196 100.046,7.836 C100.402,7.476 100.824,7.2 101.312,7.008 C101.8,6.816 102.352,6.72 102.968,6.72 C103.512,6.72 104.008,6.814 104.456,7.002 C104.904,7.19 105.288,7.46 105.608,7.812 C105.928,8.164 106.176,8.594 106.352,9.102 C106.528,9.61 106.616,10.184 106.616,10.824 L106.616,10.824 Z M113.648,18.192 C114.312,18.192 114.904,18.096 115.424,17.904 C115.944,17.712 116.382,17.452 116.738,17.124 C117.094,16.796 117.366,16.408 117.554,15.96 C117.742,15.512 117.836,15.028 117.836,14.508 C117.836,14.028 117.74,13.62 117.548,13.284 C117.356,12.948 117.104,12.664 116.792,12.432 C116.48,12.2 116.126,12.006 115.73,11.85 C115.334,11.694 114.928,11.552 114.512,11.424 C114.096,11.296 113.69,11.168 113.294,11.04 C112.898,10.912 112.544,10.76 112.232,10.584 C111.92,10.408 111.668,10.196 111.476,9.948 C111.284,9.7 111.188,9.388 111.188,9.012 C111.188,8.708 111.258,8.418 111.398,8.142 C111.538,7.866 111.734,7.624 111.986,7.416 C112.238,7.208 112.542,7.042 112.898,6.918 C113.254,6.794 113.648,6.732 114.08,6.732 C114.56,6.732 114.966,6.782 115.298,6.882 C115.63,6.982 115.91,7.094 116.138,7.218 C116.366,7.342 116.55,7.454 116.69,7.554 C116.83,7.654 116.944,7.704 117.032,7.704 C117.152,7.704 117.24,7.648 117.296,7.536 L117.296,7.536 L117.548,7.14 C117.076,6.708 116.558,6.388 115.994,6.18 C115.43,5.972 114.784,5.868 114.056,5.868 C113.448,5.868 112.9,5.956 112.412,6.132 C111.924,6.308 111.51,6.544 111.17,6.84 C110.83,7.136 110.568,7.48 110.384,7.872 C110.2,8.264 110.108,8.672 110.108,9.096 C110.108,9.592 110.204,10.006 110.396,10.338 C110.588,10.67 110.84,10.952 111.152,11.184 C111.464,11.416 111.818,11.608 112.214,11.76 C112.61,11.912 113.018,12.052 113.438,12.18 C113.858,12.308 114.266,12.436 114.662,12.564 C115.058,12.692 115.412,12.848 115.724,13.032 C116.036,13.216 116.288,13.44 116.48,13.704 C116.672,13.968 116.768,14.3 116.768,14.7 C116.768,15.06 116.702,15.402 116.57,15.726 C116.438,16.05 116.244,16.332 115.988,16.572 C115.732,16.812 115.412,17.002 115.028,17.142 C114.644,17.282 114.2,17.352 113.696,17.352 C113.16,17.352 112.71,17.288 112.346,17.16 C111.982,17.032 111.678,16.894 111.434,16.746 C111.19,16.598 110.992,16.46 110.84,16.332 C110.688,16.204 110.56,16.14 110.456,16.14 C110.368,16.14 110.3,16.156 110.252,16.188 C110.204,16.22 110.16,16.268 110.12,16.332 L110.12,16.332 L109.844,16.74 C110.324,17.172 110.868,17.522 111.476,17.79 C112.084,18.058 112.808,18.192 113.648,18.192 Z M121.952,2.988 C122.096,2.988 122.232,2.96 122.36,2.904 C122.488,2.848 122.6,2.772 122.696,2.676 C122.792,2.58 122.87,2.47 122.93,2.346 C122.99,2.222 123.02,2.088 123.02,1.944 C123.02,1.8 122.99,1.662 122.93,1.53 C122.87,1.398 122.792,1.284 122.696,1.188 C122.6,1.092 122.488,1.016 122.36,0.96 C122.232,0.904 122.096,0.876 121.952,0.876 C121.808,0.876 121.672,0.904 121.544,0.96 C121.416,1.016 121.304,1.092 121.208,1.188 C121.112,1.284 121.036,1.398 120.98,1.53 C120.924,1.662 120.896,1.8 120.896,1.944 C120.896,2.088 120.924,2.222 120.98,2.346 C121.036,2.47 121.112,2.58 121.208,2.676 C121.304,2.772 121.416,2.848 121.544,2.904 C121.672,2.96 121.808,2.988 121.952,2.988 Z M122.516,18 L122.516,6.06 L121.376,6.06 L121.376,18 L122.516,18 Z M130.784,22.452 C131.608,22.452 132.352,22.346 133.016,22.134 C133.68,21.922 134.246,21.64 134.714,21.288 C135.182,20.936 135.54,20.532 135.788,20.076 C136.036,19.62 136.16,19.144 136.16,18.648 C136.16,18.112 136.04,17.682 135.8,17.358 C135.56,17.034 135.242,16.782 134.846,16.602 C134.45,16.422 133.998,16.296 133.49,16.224 C132.982,16.152 132.466,16.102 131.942,16.074 C131.418,16.046 130.902,16.02 130.394,15.996 C129.886,15.972 129.434,15.918 129.038,15.834 C128.642,15.75 128.324,15.616 128.084,15.432 C127.844,15.248 127.724,14.984 127.724,14.64 C127.724,14.392 127.82,14.136 128.012,13.872 C128.204,13.608 128.468,13.38 128.804,13.188 C129.364,13.396 129.988,13.5 130.676,13.5 C131.308,13.5 131.884,13.408 132.404,13.224 C132.924,13.04 133.37,12.782 133.742,12.45 C134.114,12.118 134.404,11.718 134.612,11.25 C134.82,10.782 134.924,10.26 134.924,9.684 C134.924,9.252 134.864,8.846 134.744,8.466 C134.624,8.086 134.452,7.744 134.228,7.44 L134.228,7.44 L136.04,7.308 C136.264,7.292 136.376,7.184 136.376,6.984 L136.376,6.984 L136.376,6.588 L133.316,6.588 C132.964,6.356 132.566,6.176 132.122,6.048 C131.678,5.92 131.196,5.856 130.676,5.856 C130.036,5.856 129.452,5.948 128.924,6.132 C128.396,6.316 127.946,6.576 127.574,6.912 C127.202,7.248 126.914,7.65 126.71,8.118 C126.506,8.586 126.404,9.108 126.404,9.684 C126.404,10.412 126.562,11.048 126.878,11.592 C127.194,12.136 127.636,12.572 128.204,12.9 C127.964,13.028 127.754,13.172 127.574,13.332 C127.394,13.492 127.24,13.662 127.112,13.842 C126.984,14.022 126.888,14.204 126.824,14.388 C126.76,14.572 126.728,14.748 126.728,14.916 C126.728,15.372 126.846,15.728 127.082,15.984 C127.318,16.24 127.636,16.436 128.036,16.572 C127.308,16.82 126.736,17.172 126.32,17.628 C125.904,18.084 125.696,18.628 125.696,19.26 C125.696,19.692 125.804,20.1 126.02,20.484 C126.236,20.868 126.558,21.206 126.986,21.498 C127.414,21.79 127.944,22.022 128.576,22.194 C129.208,22.366 129.944,22.452 130.784,22.452 Z M130.676,12.72 C130.172,12.72 129.72,12.646 129.32,12.498 C128.92,12.35 128.582,12.144 128.306,11.88 C128.03,11.616 127.82,11.3 127.676,10.932 C127.532,10.564 127.46,10.156 127.46,9.708 C127.46,9.26 127.532,8.85 127.676,8.478 C127.82,8.106 128.03,7.788 128.306,7.524 C128.582,7.26 128.92,7.056 129.32,6.912 C129.72,6.768 130.172,6.696 130.676,6.696 C131.18,6.696 131.63,6.768 132.026,6.912 C132.422,7.056 132.758,7.26 133.034,7.524 C133.31,7.788 133.52,8.106 133.664,8.478 C133.808,8.85 133.88,9.26 133.88,9.708 C133.88,10.156 133.81,10.564 133.67,10.932 C133.53,11.3 133.324,11.616 133.052,11.88 C132.78,12.144 132.444,12.35 132.044,12.498 C131.644,12.646 131.188,12.72 130.676,12.72 Z M130.796,21.6 C130.14,21.6 129.56,21.536 129.056,21.408 C128.552,21.28 128.126,21.106 127.778,20.886 C127.43,20.666 127.166,20.406 126.986,20.106 C126.806,19.806 126.716,19.48 126.716,19.128 C126.716,18.848 126.768,18.59 126.872,18.354 C126.976,18.118 127.12,17.902 127.304,17.706 C127.488,17.51 127.71,17.334 127.97,17.178 C128.23,17.022 128.512,16.884 128.816,16.764 C129.224,16.836 129.664,16.884 130.136,16.908 C130.608,16.932 131.078,16.956 131.546,16.98 C132.014,17.004 132.462,17.042 132.89,17.094 C133.318,17.146 133.696,17.236 134.024,17.364 C134.352,17.492 134.614,17.67 134.81,17.898 C135.006,18.126 135.104,18.428 135.104,18.804 C135.104,19.212 134.994,19.588 134.774,19.932 C134.554,20.276 134.25,20.572 133.862,20.82 C133.474,21.068 133.018,21.26 132.494,21.396 C131.97,21.532 131.404,21.6 130.796,21.6 Z M139.988,18 L139.988,9.048 C140.516,8.344 141.116,7.79 141.788,7.386 C142.46,6.982 143.188,6.78 143.972,6.78 C145.028,6.78 145.812,7.098 146.324,7.734 C146.836,8.37 147.092,9.248 147.092,10.368 L147.092,10.368 L147.092,18 L148.232,18 L148.232,10.368 C148.232,9.672 148.148,9.048 147.98,8.496 C147.812,7.944 147.564,7.472 147.236,7.08 C146.908,6.688 146.494,6.388 145.994,6.18 C145.494,5.972 144.916,5.868 144.26,5.868 C143.372,5.868 142.566,6.078 141.842,6.498 C141.118,6.918 140.484,7.472 139.94,8.16 L139.94,8.16 L139.832,6.36 C139.8,6.16 139.68,6.06 139.472,6.06 L139.472,6.06 L138.848,6.06 L138.848,18 L139.988,18 Z" id="menarddesign-copy-2" fill="#000000" fill-rule="nonzero"></path>
    </g>
</svg>